<svg width="24" height="24" viewBox="0 0 24 24" fill="none" xmlns="http://www.w3.org/2000/svg">
<path d="M10.0262 19.7219C10.7765 19.9215 11.5611 20.0179 12.3389 19.9973C13.1305 19.9766 13.922 19.839 14.6723 19.5774C15.4569 19.3021 16.2003 18.9029 16.8611 18.3935C17.5425 17.8704 18.1413 17.251 18.63 16.5489C19.0774 15.9019 19.4284 15.1723 19.6624 14.4152C19.8896 13.665 20.0066 12.8734 19.9997 12.0956C19.9928 11.3041 19.8689 10.5126 19.6349 9.76232C19.3871 8.97767 19.0223 8.22743 18.5543 7.5529C18.3684 7.28446 18.1619 7.02291 17.9486 6.77512C17.9417 6.76824 17.9417 6.76136 17.9348 6.76136C17.8729 6.69253 17.8109 6.6237 17.749 6.55487C17.1983 5.96294 16.5582 5.44672 15.8561 5.04062C15.1954 4.66206 14.4658 4.37298 13.7224 4.2009C12.9859 4.03571 12.2219 3.96688 11.4717 4.01506C10.7214 4.06325 9.97804 4.21467 9.27597 4.47622C8.70468 4.68271 8.16092 4.95803 7.65846 5.28841C7.65158 5.29529 7.64469 5.29529 7.63781 5.30217C7.62404 5.30906 7.61716 5.31594 7.61028 5.32282C7.49327 5.40542 7.37625 5.48113 7.25924 5.57061C6.59847 6.06618 6.02718 6.65123 5.53849 7.31888C4.98096 8.076 4.56798 8.93637 4.31331 9.84492C4.05176 10.7672 3.94851 11.7446 4.02422 12.7013C4.09994 13.6718 4.34773 14.6217 4.77447 15.4958C5.11174 16.191 5.56602 16.8311 6.09601 17.3955C6.62601 17.9599 7.23859 18.4417 7.90625 18.834C8.56702 19.2195 9.28285 19.5223 10.0262 19.7219ZM19.2976 12.6945C19.2908 12.7839 19.2839 12.8734 19.2701 12.9629C19.2632 13.0042 19.2632 13.0524 19.2563 13.0937C19.2495 13.1212 19.2495 13.1487 19.2426 13.1831C19.1875 13.5479 19.1049 13.9127 18.9948 14.2706C18.9397 14.4496 18.8778 14.6217 18.809 14.8006C18.7952 14.8282 18.7814 14.9039 18.7608 14.9245C18.7677 14.9108 18.7745 14.897 18.7745 14.8832C18.7677 14.897 18.7608 14.9108 18.7539 14.9245C18.747 14.9452 18.7332 14.9658 18.7264 14.9865C18.6851 15.076 18.6438 15.1654 18.6025 15.2549C18.4373 15.5991 18.2377 15.9226 18.0243 16.2392C17.9692 16.3149 17.9142 16.3906 17.8591 16.4663L17.8522 16.4732C17.8384 16.487 17.8247 16.5076 17.8109 16.5214C17.804 16.5283 17.804 16.5351 17.7971 16.5351C17.7903 16.5283 17.7834 16.5145 17.7834 16.5076C17.7765 16.487 17.7627 16.4663 17.7559 16.4457C17.749 16.425 17.7421 16.4044 17.7421 16.3975C17.7077 16.3011 17.6801 16.1979 17.6526 16.0946C17.6388 16.0396 17.632 15.9914 17.6251 15.9363C17.6182 15.9088 17.6182 15.8813 17.6113 15.8537C17.6113 15.8468 17.6113 15.84 17.6113 15.84C17.6113 15.8331 17.6113 15.8193 17.6113 15.8124C17.5562 15.3375 17.5631 14.8557 17.4736 14.3877C17.3842 13.9127 17.1846 13.4378 16.806 13.1212C16.4343 12.8046 15.98 12.6325 15.5258 12.4536C15.4776 12.4329 15.4294 12.4123 15.3743 12.3916C15.3537 12.3847 15.3399 12.3778 15.3193 12.371C15.3055 12.3641 15.2917 12.3572 15.2917 12.3572C15.1885 12.309 15.0921 12.2608 14.9958 12.2058C14.9132 12.1576 14.8099 12.1094 14.7411 12.0406C14.7342 12.0337 14.7342 12.0337 14.7273 12.0337C14.7067 12.0199 14.686 11.9993 14.6723 11.9855C14.631 11.9442 14.5897 11.9098 14.5484 11.8616C14.5346 11.8479 14.5208 11.8272 14.5071 11.8134C14.4864 11.779 14.4589 11.7446 14.4382 11.7033C14.4245 11.6827 14.4176 11.662 14.4038 11.6414C14.4038 11.6345 14.3969 11.6276 14.3969 11.6207C14.3832 11.5863 14.3832 11.5932 14.4038 11.6345C14.3763 11.6138 14.3625 11.5037 14.3556 11.4762C14.3556 11.4693 14.3556 11.4624 14.3488 11.4624C14.3419 11.4418 14.3488 11.4073 14.3419 11.3798C14.3419 11.3523 14.3419 11.3247 14.3419 11.2903C14.3419 11.2835 14.3488 11.2422 14.3488 11.2353C14.3556 11.1871 14.3694 11.1458 14.3832 11.0976C14.3901 11.0701 14.4038 11.0425 14.4107 11.015C14.4176 11.0013 14.4176 10.9944 14.4245 10.9806C14.4245 10.9737 14.4314 10.9668 14.4314 10.96C14.5484 10.7328 14.686 10.5332 14.8374 10.3336C14.9889 10.134 15.1472 9.9344 15.2711 9.71414C15.5258 9.2461 15.6152 8.72988 15.7667 8.22743C15.8011 8.11042 15.8424 7.99341 15.8906 7.88328C15.8974 7.86951 15.9043 7.84886 15.9112 7.84198C15.925 7.80757 15.9456 7.77315 15.9594 7.74562C15.9869 7.69056 16.0213 7.63549 16.0557 7.58043C16.0695 7.55978 16.0833 7.53225 16.1039 7.5116C16.1108 7.49783 16.1177 7.49095 16.1315 7.47718C16.1315 7.47718 16.1315 7.47718 16.1383 7.4703C16.1796 7.42212 16.2209 7.37394 16.2691 7.33264C16.2898 7.31199 16.3104 7.29823 16.3311 7.27758C16.3379 7.27758 16.3379 7.2707 16.3448 7.2707C16.3861 7.24316 16.4274 7.22252 16.4687 7.19498C16.4756 7.1881 16.51 7.18122 16.5238 7.17434C16.5307 7.17434 16.5444 7.16745 16.5513 7.16745C16.5995 7.1468 16.6546 7.13304 16.7027 7.12615C16.7234 7.11927 16.7509 7.11927 16.7716 7.11239C16.7785 7.11239 16.7785 7.11239 16.7785 7.11239C16.7853 7.11239 16.7922 7.11239 16.7922 7.11239C16.8473 7.10551 16.9024 7.10551 16.9574 7.10551C16.985 7.10551 17.0056 7.10551 17.0263 7.11239C17.0331 7.11239 17.0469 7.11239 17.0538 7.11239C17.1088 7.12615 17.1639 7.13304 17.219 7.15369C17.2259 7.15369 17.2396 7.16057 17.2534 7.16057C17.2534 7.16057 17.2603 7.16057 17.274 7.16745C17.2878 7.17434 17.3016 7.18122 17.3153 7.1881C17.336 7.20187 17.3566 7.20875 17.3773 7.22252C17.3842 7.2294 17.4186 7.25005 17.4323 7.25693C17.5081 7.34641 17.5838 7.43589 17.6526 7.52537C17.6664 7.54601 17.6801 7.56666 17.7008 7.58043L17.7077 7.58731C17.7352 7.62173 17.7627 7.66302 17.7971 7.70432C17.8247 7.74562 17.8522 7.78692 17.8797 7.82133C17.6595 7.94522 17.4461 8.076 17.2259 8.19989C17.1088 8.26872 17.0607 8.43391 17.1364 8.55092C17.2121 8.66793 17.3635 8.71611 17.4874 8.6404C17.7146 8.50963 17.9417 8.37885 18.1688 8.24119C18.2583 8.38573 18.3409 8.53028 18.4235 8.6817C17.9486 8.99143 17.4805 9.29428 17.0056 9.60401C16.8955 9.67973 16.8335 9.83803 16.9161 9.95504C16.9918 10.0652 17.1501 10.1271 17.2672 10.0445C17.7283 9.74167 18.1895 9.44571 18.6506 9.14286C18.6644 9.17039 18.6782 9.19792 18.6919 9.22545C18.6988 9.2461 18.7126 9.26675 18.7195 9.2874C18.7195 9.2874 18.7195 9.2874 18.7195 9.29428V9.30116C18.7401 9.34246 18.7608 9.39753 18.7745 9.44571C18.8021 9.52142 18.8296 9.59713 18.8571 9.67284C18.6438 9.82427 18.4235 9.97569 18.2101 10.1271C18.1551 10.1684 18.1069 10.2166 18.0931 10.2785C18.0794 10.3405 18.0862 10.4231 18.1207 10.4781C18.1895 10.5883 18.3547 10.6571 18.4717 10.5676C18.6575 10.4369 18.8365 10.3061 19.0223 10.1822C19.1049 10.4781 19.1738 10.781 19.215 11.0838C19.215 11.1045 19.2219 11.1251 19.2219 11.1527C19.2219 11.194 19.2357 11.2422 19.2357 11.2835C19.2495 11.3798 19.2563 11.4762 19.2632 11.5725C19.277 11.7584 19.2839 11.9442 19.2839 12.1301C19.3183 12.3228 19.3114 12.5086 19.2976 12.6945ZM16.2898 13.5686C16.2829 13.5617 16.276 13.5548 16.276 13.5548C16.276 13.5617 16.2829 13.5617 16.2898 13.5686ZM17.2947 7.1468C17.274 7.13992 17.2603 7.13304 17.2603 7.13304C17.274 7.13304 17.2878 7.13992 17.2947 7.1468ZM5.46966 8.73676C5.66238 8.35132 5.89641 7.97964 6.15108 7.62861C6.17861 7.58731 6.20614 7.5529 6.23367 7.51848C6.23367 7.51848 6.23367 7.51848 6.24056 7.5116C6.25432 7.49095 6.26809 7.47718 6.28185 7.45654C6.3438 7.38082 6.40575 7.29823 6.47458 7.22252C6.59847 7.07797 6.72925 6.94032 6.86691 6.80266C6.99769 6.67188 7.13535 6.5411 7.27989 6.41721C7.34872 6.36215 7.41755 6.3002 7.48638 6.24514C7.51392 6.22449 7.54145 6.19696 7.56898 6.17631C7.57586 6.16943 7.58275 6.16943 7.58963 6.16254C7.61028 6.14189 7.63781 6.12813 7.65846 6.10748C7.69287 6.08683 7.72041 6.0593 7.75482 6.03865C7.87871 6.14878 8.01638 6.23137 8.18157 6.3002C8.40183 6.38968 8.64961 6.43098 8.88364 6.46539C9.21402 6.51357 9.55129 6.53422 9.88856 6.56864C9.90921 6.56864 9.92986 6.57552 9.9505 6.57552C9.9505 6.57552 9.95739 6.57552 9.96427 6.57552C9.97804 6.57552 9.99869 6.5824 10.0056 6.5824C10.0193 6.5824 10.04 6.58929 10.0537 6.58929C10.1295 6.60305 10.2121 6.61682 10.2878 6.63747C10.3428 6.65123 10.3979 6.665 10.453 6.68565C10.4805 6.69253 10.508 6.70629 10.5356 6.71318C10.5493 6.72006 10.57 6.72694 10.5837 6.73383C10.6319 6.75448 10.5837 6.72694 10.57 6.72694C10.5975 6.71318 10.9072 6.89902 10.9004 6.91967C10.9004 6.91967 10.8522 6.87837 10.8797 6.9059C10.8866 6.91278 10.9004 6.91967 10.9072 6.93343C10.9348 6.95408 10.9554 6.98161 10.983 7.00226C11.0036 7.02291 11.0174 7.03668 11.0311 7.05732C11.038 7.06421 11.0449 7.07109 11.0449 7.07797C11.0449 7.07797 11.0518 7.08486 11.0518 7.09174C11.0862 7.13992 11.1137 7.19498 11.1413 7.24316C11.1413 7.25005 11.1481 7.25005 11.1481 7.25693C11.1481 7.26381 11.155 7.2707 11.155 7.27758C11.1688 7.30511 11.1757 7.33953 11.1826 7.37394C11.1894 7.39459 11.1963 7.42212 11.1963 7.44277C11.1963 7.44965 11.1963 7.44965 11.1963 7.45654C11.1963 7.46342 11.1963 7.4703 11.1963 7.47718C11.2032 7.53913 11.2032 7.60108 11.1963 7.66302C11.1963 7.66991 11.1963 7.67679 11.1963 7.68367C11.1963 7.68367 11.1963 7.68367 11.1963 7.67679V7.68367C11.1963 7.69056 11.1963 7.69056 11.1963 7.69744C11.1963 7.7112 11.1894 7.71809 11.1894 7.71809C11.1894 7.73185 11.1894 7.74562 11.1826 7.7525C11.1688 7.82133 11.1481 7.88328 11.1275 7.94522C11.1206 7.97276 11.1069 8.00029 11.0931 8.02782C11.0862 8.0347 11.0862 8.04159 11.0793 8.04847C11.0518 8.10353 11.0174 8.16548 10.9898 8.22054C10.9554 8.26872 10.921 8.32379 10.8866 8.37197C10.8866 8.37197 10.8866 8.37197 10.8866 8.37885C10.8797 8.38573 10.8728 8.39262 10.8728 8.39262C10.8522 8.42015 10.8315 8.44768 10.804 8.46833C10.7627 8.50963 10.7214 8.55781 10.6732 8.59222C10.6457 8.61287 10.625 8.63352 10.5975 8.66105C10.5837 8.66793 10.5769 8.6817 10.5631 8.68858C10.5631 8.68858 10.5562 8.68858 10.5562 8.69547C10.5562 8.69547 10.5562 8.69547 10.5493 8.69547C10.3153 8.85377 10.0813 8.99832 9.82661 9.12221C9.57194 9.2461 9.31727 9.36311 9.06259 9.487C8.51884 9.76232 7.98196 10.1615 7.89248 10.8085C7.85118 11.1389 7.94755 11.4349 8.15404 11.6895C8.31235 11.8823 8.54637 12.0268 8.77351 12.1301C9.33792 12.3847 9.94362 12.5361 10.5149 12.7495C10.5837 12.7771 10.6595 12.8046 10.7283 12.8321C10.7352 12.8321 10.7489 12.839 10.7627 12.8459C10.7696 12.8459 10.7765 12.8528 10.7765 12.8528C10.8178 12.8734 10.8591 12.8872 10.8935 12.9078C11.0174 12.9629 11.1413 13.0248 11.2652 13.0937C11.3753 13.1556 11.4854 13.2244 11.5955 13.3002C11.6437 13.3346 11.685 13.3621 11.7332 13.3965C11.7401 13.4034 11.7745 13.424 11.7814 13.4309C11.8158 13.4585 11.8433 13.486 11.8778 13.5135C11.9741 13.603 12.0705 13.6925 12.1531 13.7957C12.1737 13.8233 12.1944 13.8439 12.215 13.8714C12.1737 13.8233 12.2081 13.8646 12.2288 13.8921C12.2701 13.954 12.3114 14.0091 12.3527 14.0779C12.3871 14.133 12.4146 14.1881 12.4422 14.2431C12.449 14.2569 12.4628 14.2775 12.4697 14.2982C12.4697 14.3051 12.4697 14.3119 12.4766 14.3119C12.4835 14.3326 12.4903 14.3532 12.4972 14.3739C12.5179 14.4358 12.5385 14.4978 12.5523 14.5597C12.5592 14.5873 12.5661 14.6217 12.5729 14.6561C12.5798 14.6767 12.6005 14.7456 12.5936 14.7662C12.5936 14.7662 12.5867 14.6974 12.5936 14.7387C12.5936 14.7593 12.6005 14.7731 12.6005 14.7938C12.6005 14.8282 12.6074 14.8557 12.6074 14.8901C12.6074 14.9589 12.6074 15.0278 12.6074 15.0897C12.6074 15.1104 12.6073 15.1723 12.6005 15.1861C12.6005 15.1861 12.6142 15.1173 12.6005 15.1585C12.5936 15.1792 12.5936 15.193 12.5936 15.2136C12.5798 15.2824 12.5661 15.3444 12.5454 15.4063C12.5454 15.4132 12.5316 15.4476 12.5248 15.4683V15.4752C12.5179 15.4889 12.511 15.5096 12.5041 15.5233C12.4766 15.5784 12.449 15.6266 12.4146 15.6748C12.4009 15.6954 12.3871 15.7161 12.3733 15.7436C12.3664 15.7574 12.3114 15.8193 12.3458 15.778C12.3802 15.7436 12.3251 15.8055 12.3183 15.8124C12.2976 15.8331 12.277 15.8606 12.2563 15.8813C11.9535 16.2116 11.5749 16.4594 11.2652 16.7829C11.1 16.955 10.9485 17.1408 10.8522 17.3542C10.7971 17.4712 10.7558 17.5951 10.7214 17.719C10.7076 17.7672 10.6939 17.8222 10.6732 17.8704C10.6663 17.898 10.6595 17.9186 10.6457 17.9461C10.6457 17.9461 10.6457 17.953 10.6388 17.953C10.6457 17.9393 10.6457 17.9393 10.6388 17.9599C10.6388 17.9599 10.6388 17.9668 10.6319 17.9668C10.6319 17.9737 10.625 17.9806 10.625 17.9806V17.9737C10.6182 17.9874 10.6113 18.0081 10.5975 18.0219C10.5975 18.0287 10.5906 18.0287 10.5906 18.0356C10.5837 18.0425 10.5769 18.0494 10.57 18.0563C10.5631 18.0563 10.5562 18.0494 10.5493 18.0494C10.5356 18.0356 10.4805 18.0081 10.4874 18.0081C10.391 17.9324 10.3084 17.836 10.2258 17.7465C10.2052 17.7259 10.1845 17.6984 10.1639 17.6777C10.157 17.6708 10.157 17.6708 10.1501 17.6639C10.1501 17.6639 10.1501 17.6571 10.1432 17.6571C10.1019 17.602 10.0675 17.5469 10.0262 17.4919C9.88167 17.2785 9.76466 17.0445 9.65453 16.8105C9.65453 16.8036 9.65453 16.8036 9.64765 16.8036C9.64765 16.7967 9.64077 16.7898 9.64077 16.7829C9.627 16.7554 9.62012 16.721 9.60635 16.6934C9.57882 16.6246 9.55129 16.5558 9.53064 16.487C9.48934 16.3631 9.44804 16.2461 9.41363 16.1222C9.2622 15.6197 9.14519 15.0966 9.00065 14.5941C8.71156 13.5755 8.28481 12.5499 7.40379 11.9029C7.18353 11.7446 6.94263 11.6207 6.70172 11.4968C6.57782 11.4349 6.46081 11.3729 6.33692 11.3041C6.28185 11.2697 6.22679 11.2353 6.17173 11.2009C6.14419 11.1802 6.11666 11.1664 6.08913 11.1458C6.08225 11.1389 6.08225 11.1389 6.07536 11.132C6.09601 11.1458 6.0616 11.1183 6.04783 11.1114C6.0203 11.0907 5.99277 11.0632 5.97212 11.0425C6.20614 10.7948 6.44016 10.547 6.67419 10.2992C6.76367 10.2028 6.77743 10.0308 6.67419 9.9344C6.57094 9.84492 6.40575 9.83115 6.30939 9.9344C6.08913 10.1684 5.86887 10.4024 5.64862 10.6365C5.63485 10.6089 5.62108 10.5883 5.60732 10.5607C5.57979 10.5057 5.55225 10.4506 5.52472 10.3956C5.51096 10.368 5.48342 10.3061 5.51096 10.368C5.49719 10.3336 5.48342 10.2992 5.46966 10.2648C5.46277 10.2441 5.45589 10.2235 5.44901 10.2028C5.77939 9.92751 6.11666 9.64531 6.44705 9.36999C6.55029 9.28052 6.54341 9.09468 6.44705 9.0052C6.33692 8.90195 6.19238 8.91572 6.08225 9.0052C5.82069 9.22545 5.55914 9.43882 5.29758 9.65908C5.27005 9.51454 5.24252 9.36999 5.22187 9.21857C5.22875 9.2048 5.22875 9.19792 5.23564 9.18415V9.17727C5.23564 9.17727 5.23564 9.17039 5.24252 9.16351C5.25628 9.13597 5.26317 9.11533 5.27693 9.08779C5.36641 8.95013 5.41459 8.84001 5.46966 8.73676ZM11.217 7.42212V7.429C11.2239 7.429 11.2239 7.429 11.217 7.42212ZM11.1344 8.00029C11.1344 8.00717 11.1275 8.01405 11.1275 8.02094C11.1275 8.00717 11.1344 8.00029 11.1344 8.00029ZM8.96623 10.3543C8.95247 10.368 8.92493 10.3887 8.96623 10.3543ZM10.625 18.0287C10.6182 18.0356 10.6182 18.0356 10.625 18.0287ZM10.625 18.0356C10.6319 18.0356 10.6388 18.0356 10.6388 18.0356C10.6388 18.0425 10.6319 18.0425 10.625 18.0356ZM10.1845 17.6364C10.1776 17.6295 10.1708 17.6226 10.1639 17.6089C10.1639 17.6158 10.1776 17.6295 10.1845 17.6364ZM7.53456 17.7603C7.51392 17.7465 7.50015 17.7328 7.4795 17.719C7.4795 17.7052 7.36937 17.6364 7.36249 17.6226C7.08028 17.3955 6.81873 17.1546 6.57094 16.8931C6.44705 16.7623 6.32315 16.6177 6.20614 16.4801C6.17861 16.4457 6.15108 16.4112 6.12354 16.3768C6.10978 16.3562 6.09601 16.3424 6.08225 16.3218C6.02718 16.2461 5.97212 16.1703 5.91705 16.0877C5.70368 15.7849 5.51784 15.4614 5.35953 15.131C5.31823 15.0415 5.27693 14.9589 5.23564 14.8695C5.22875 14.8626 5.21499 14.8144 5.21499 14.8213C5.2081 14.8075 5.20122 14.7938 5.19434 14.7731C5.17369 14.7112 5.14616 14.6561 5.12551 14.5941C5.04291 14.3808 4.97408 14.1605 4.91902 13.9334C4.85707 13.7131 4.80889 13.486 4.77447 13.2589C4.76759 13.2038 4.75382 13.1487 4.74694 13.0937C4.74694 13.0937 4.74694 13.0799 4.74694 13.073C4.74006 13.0455 4.74006 13.018 4.74006 12.9904C4.72629 12.8734 4.71253 12.7495 4.70564 12.6325C4.67123 12.1714 4.67811 11.7102 4.72629 11.249C4.73317 11.194 4.74006 11.1389 4.74694 11.0838C4.74694 11.077 4.74694 11.077 4.74694 11.0701V11.0632C4.75382 11.0357 4.75382 11.0081 4.76071 10.9806C4.78136 10.8636 4.80201 10.7466 4.82265 10.6227C4.83642 10.5676 4.85019 10.5126 4.85707 10.4575C4.91213 10.5952 4.97408 10.7328 5.04291 10.8705C5.17369 11.1183 5.35265 11.3523 5.56602 11.5312C5.79316 11.7308 6.05472 11.8823 6.32315 12.0199C6.57094 12.1438 6.82561 12.2677 7.05275 12.426C7.0734 12.4398 7.10093 12.4604 7.12158 12.4742C7.12847 12.4811 7.14223 12.488 7.14912 12.4949C7.1973 12.5361 7.24548 12.5774 7.29366 12.6187C7.38314 12.7082 7.47262 12.7977 7.54833 12.9009C7.55521 12.9078 7.5621 12.9147 7.5621 12.9216C7.57586 12.9422 7.59651 12.9698 7.61716 12.9904C7.65846 13.0455 7.69287 13.1005 7.72729 13.1625C7.79612 13.2726 7.85807 13.3827 7.92001 13.4998C7.94755 13.5548 7.97508 13.6099 8.00261 13.665C8.01638 13.6925 8.03014 13.72 8.03702 13.7475C8.04391 13.7613 8.05079 13.7682 8.05079 13.782V13.7888C8.09897 13.9127 8.14715 14.0297 8.18845 14.1536C8.54637 15.1792 8.69091 16.2736 9.15896 17.2647C9.27597 17.5056 9.40675 17.7397 9.57194 17.953C9.7509 18.1939 9.95739 18.4486 10.2189 18.6C10.5149 18.7721 10.9004 18.7446 11.1275 18.4692C11.2996 18.2628 11.3546 18.0081 11.4372 17.7603C11.4441 17.7328 11.451 17.7121 11.4648 17.6846V17.6777C11.4923 17.6295 11.5129 17.5813 11.5405 17.5332C11.5474 17.5194 11.6231 17.3955 11.6368 17.3955C11.6368 17.3955 11.5955 17.4506 11.6162 17.423C11.6231 17.4093 11.6368 17.4024 11.6437 17.3886C11.6644 17.368 11.685 17.3404 11.6988 17.3198C11.8502 17.1546 12.0223 17.0032 12.1944 16.8586C12.5592 16.5489 12.9446 16.2254 13.1442 15.7849C13.4058 15.1998 13.3645 14.5597 13.1167 13.9747C12.8896 13.4378 12.4559 13.0111 11.981 12.6876C11.4717 12.3365 10.8866 12.1163 10.3015 11.9167C9.99869 11.8134 9.69583 11.7171 9.39298 11.6138C9.33103 11.5932 9.26909 11.5657 9.20714 11.545H9.20025C9.20025 11.545 9.19337 11.545 9.18649 11.5381C9.17961 11.5381 9.17961 11.5312 9.17272 11.5312C9.14519 11.5175 9.11766 11.5106 9.09701 11.4968C9.04195 11.4693 8.99376 11.4418 8.94558 11.4142C8.91805 11.4005 8.89052 11.3798 8.86299 11.3592C8.8561 11.3523 8.84234 11.3454 8.83546 11.3385C8.81481 11.3247 8.80792 11.3247 8.80792 11.3247C8.77351 11.2972 8.73909 11.2559 8.71844 11.2284C8.71156 11.2215 8.69779 11.2077 8.69091 11.2009C8.67715 11.1802 8.66338 11.1596 8.64961 11.132C8.64273 11.1251 8.64273 11.1114 8.63585 11.1045C8.62896 11.0838 8.62208 11.0563 8.6152 11.0357C8.6152 11.0219 8.60832 11.015 8.60832 11.0013C8.60832 10.9668 8.60832 10.9324 8.60832 10.898C8.60832 10.8911 8.60832 10.8842 8.60832 10.8774V10.8705C8.6152 10.8361 8.62208 10.8016 8.63585 10.7672C8.64273 10.7535 8.64273 10.7397 8.64273 10.7328C8.6565 10.6984 8.67715 10.664 8.69091 10.6365C8.70468 10.6089 8.72533 10.5814 8.73909 10.5539C8.73909 10.5539 8.73909 10.547 8.74598 10.547C8.74598 10.5539 8.73909 10.5539 8.73221 10.5607C8.73909 10.5539 8.73909 10.5539 8.74598 10.547C8.75286 10.5401 8.75974 10.5332 8.75974 10.5332C8.80792 10.4781 8.8561 10.43 8.91117 10.3818C8.92493 10.368 8.9387 10.3611 8.95247 10.3474C8.98 10.3267 9.00753 10.3061 9.03506 10.2923C9.09701 10.251 9.15896 10.2166 9.2209 10.1822C9.3448 10.1134 9.47558 10.0445 9.60635 9.98258C9.86103 9.85868 10.1226 9.74167 10.3773 9.6109C10.8935 9.34246 11.3822 8.97767 11.6575 8.45456C11.9328 7.94522 12.0085 7.29823 11.685 6.78889C11.3753 6.29332 10.804 6.02488 10.2396 5.92852C9.89544 5.87346 9.55129 5.85281 9.20714 5.8184C9.16584 5.81151 9.13143 5.81151 9.09013 5.80463C9.15207 5.81151 9.05571 5.79775 9.03506 5.79775C8.96623 5.78398 8.8974 5.7771 8.83546 5.76333C8.71844 5.74268 8.59455 5.71515 8.47754 5.68074C8.45001 5.67385 8.42936 5.66697 8.40182 5.65321C8.39494 5.65321 8.39494 5.6532 8.38806 5.64632C8.38118 5.63944 8.36741 5.63944 8.36053 5.63256C8.42936 5.59126 8.49819 5.55684 8.56702 5.51555C8.72533 5.43295 8.89052 5.35036 9.05571 5.27464C9.09701 5.25399 9.13831 5.24023 9.17272 5.21958C9.19337 5.2127 9.21402 5.20581 9.23467 5.19205C9.32415 5.15763 9.40675 5.12322 9.49623 5.09569C9.83349 4.97179 10.1776 4.87543 10.5287 4.8066C10.6113 4.79284 10.6939 4.77219 10.7833 4.75842C10.8246 4.75154 10.8659 4.74466 10.9072 4.73777C10.9279 4.73777 10.9485 4.73089 10.9692 4.73089C10.9761 4.73089 10.983 4.73089 10.983 4.73089C11.1619 4.71024 11.334 4.68959 11.513 4.68271C11.8709 4.66206 12.2288 4.66894 12.5798 4.69648C12.6624 4.70336 12.7519 4.71024 12.8345 4.72401C12.8551 4.72401 12.8758 4.73089 12.8896 4.73089C12.9377 4.73777 12.9859 4.74466 13.041 4.75154C13.2199 4.77907 13.392 4.81349 13.571 4.85478C13.922 4.93738 14.2662 5.04751 14.6034 5.17828C14.631 5.19205 14.6654 5.20581 14.6929 5.21958C14.6998 5.21958 14.7136 5.22646 14.7204 5.22646C14.7411 5.23335 14.7617 5.24711 14.7824 5.25399C14.8719 5.29529 14.9545 5.32971 15.0439 5.37789C15.2091 5.46048 15.3743 5.54996 15.5326 5.63944C15.6978 5.7358 15.8561 5.83216 16.0076 5.94229C16.0833 5.99735 16.159 6.04553 16.2278 6.1006C16.2485 6.11436 16.2622 6.12813 16.2829 6.14189C16.2829 6.14189 16.2898 6.14878 16.2966 6.14878C16.3379 6.17631 16.3792 6.21072 16.4137 6.24514C16.4756 6.29332 16.5376 6.34838 16.5926 6.39656C16.5444 6.40345 16.4963 6.41721 16.4412 6.42409C15.9525 6.54799 15.5808 6.89902 15.3468 7.34641C15.099 7.81445 15.0095 8.33067 14.8581 8.83312C14.8374 8.89507 14.8168 8.95702 14.7962 9.01896C14.7893 9.0465 14.7755 9.07403 14.7617 9.10156C14.7549 9.11532 14.748 9.12909 14.748 9.14286C14.6929 9.25987 14.631 9.37688 14.5621 9.487C14.4176 9.71414 14.2455 9.91375 14.0872 10.134C13.7637 10.5814 13.5228 11.1527 13.6949 11.7102C13.8394 12.1851 14.2249 12.5361 14.6516 12.7771C14.865 12.9009 15.099 12.9904 15.333 13.0799C15.4432 13.1212 15.5533 13.1625 15.6565 13.2107C15.6634 13.2107 15.6703 13.2176 15.6772 13.2176C15.7047 13.2313 15.7254 13.2382 15.7529 13.252C15.808 13.2795 15.863 13.307 15.9181 13.3346C16.0213 13.3827 16.1177 13.4447 16.2141 13.5066C16.2347 13.5204 16.2554 13.5342 16.276 13.5548C16.2829 13.5617 16.2829 13.5617 16.2898 13.5617C16.3379 13.603 16.3792 13.6443 16.4205 13.6856C16.4412 13.7062 16.455 13.7269 16.4756 13.7475C16.4825 13.7544 16.4894 13.7613 16.4963 13.7682C16.4963 13.7682 16.4963 13.7682 16.4963 13.7751C16.5307 13.8233 16.5582 13.8714 16.5926 13.9196C16.6202 13.9678 16.6477 14.016 16.6614 14.0642C16.6614 14.071 16.6683 14.0848 16.6752 14.0917C16.689 14.1192 16.6959 14.1536 16.7027 14.1812C16.7372 14.2913 16.7647 14.4083 16.7853 14.5253C16.7922 14.5597 16.7991 14.5873 16.7991 14.6217C16.7991 14.6286 16.7991 14.6423 16.806 14.6492C16.8198 14.7043 16.8198 14.7662 16.8266 14.8213C16.8473 15.0622 16.8542 15.3031 16.8748 15.544C16.9161 16.0396 16.9918 16.5558 17.2603 16.9894C17.274 17.0101 17.2878 17.0376 17.3085 17.0582L17.3016 17.0651C17.1639 17.2097 17.0194 17.3473 16.8679 17.4781C16.7922 17.54 16.7234 17.6089 16.6477 17.6708C16.6064 17.7052 16.572 17.7328 16.5307 17.7603C16.51 17.7741 16.4963 17.7878 16.4756 17.8016C16.4618 17.8085 16.455 17.8154 16.4412 17.8222C16.1177 18.0632 15.7735 18.2834 15.4225 18.4761C15.2504 18.5656 15.0715 18.6551 14.8925 18.7308C14.8925 18.7308 14.8856 18.7308 14.8856 18.7377C14.865 18.7446 14.8443 18.7514 14.8237 18.7583C14.7824 18.779 14.7411 18.7927 14.6929 18.8065C14.5965 18.8409 14.5071 18.8753 14.4107 18.9098C14.0528 19.0336 13.6811 19.1231 13.3094 19.192C13.2337 19.2057 13.1511 19.2126 13.0685 19.2264C13.0616 19.2264 13.0547 19.2264 13.0479 19.2333H13.041C13.041 19.2333 13.041 19.2333 13.0479 19.2333C13.0272 19.2333 13.0066 19.2401 12.979 19.2401C12.924 19.247 12.8758 19.2539 12.8207 19.2539C12.6349 19.2745 12.449 19.2814 12.2632 19.2883C11.8915 19.2952 11.5267 19.2745 11.155 19.2333C11.155 19.2333 11.155 19.2333 11.1481 19.2333H11.155C11.1344 19.2264 11.1137 19.2264 11.0862 19.2264C11.0449 19.2195 10.9967 19.2126 10.9554 19.2057C10.8591 19.192 10.7696 19.1713 10.6732 19.1575C10.4943 19.1231 10.3153 19.0818 10.1363 19.0336C9.95739 18.9855 9.78531 18.9304 9.61324 18.8685C9.53064 18.8409 9.44804 18.8065 9.36545 18.779C9.32415 18.7652 9.28285 18.7446 9.24155 18.7308C9.2209 18.7239 9.20026 18.717 9.17961 18.7033C9.17272 18.7033 9.16584 18.6964 9.15896 18.6964C8.82169 18.5518 8.49819 18.3866 8.18157 18.2008C8.02326 18.1044 7.87183 18.0081 7.72041 17.9048C7.67911 17.8635 7.61028 17.8154 7.53456 17.7603Z" fill="#707472"/>
</svg>
