<svg width="199" height="113" viewBox="0 0 199 113" fill="none" xmlns="http://www.w3.org/2000/svg">
<path d="M15.8421 112.258C15.8421 112.258 -7.65558 83.9118 3.82828 54.7295C11.3137 35.7078 39.3927 25.2849 55.2391 35.7078C61.9884 40.1471 83.6414 35.8576 95.203 17.4786C117.67 -18.2361 196.08 3.454 181.805 58.2884C174.897 84.8243 202.829 85.7889 188.596 112.314L15.8421 112.258Z" fill="#F0F8F1"/>
<path d="M81.007 112.052L81.0551 112.051C81.4484 112.044 81.7522 111.722 81.7152 111.352L79.0913 85.1094L76.8018 85.314L80.5694 111.698C80.5988 111.904 80.7871 112.056 81.007 112.052Z" fill="#2290AC"/>
<path d="M55.7425 112.052L55.6943 112.051C55.3011 112.044 54.9973 111.722 55.0343 111.352L57.6582 85.1094L59.9478 85.314L56.1801 111.698C56.1507 111.904 55.9625 112.056 55.7425 112.052Z" fill="#2290AC"/>
<path d="M99.5178 112.052L99.5659 112.051C99.9592 112.044 100.263 111.722 100.226 111.352L97.6021 85.1094L95.3125 85.314L99.0802 111.698C99.1096 111.904 99.2979 112.056 99.5178 112.052Z" fill="#2290AC"/>
<path d="M56.5233 81.2957L51.8658 58.2622C51.2679 55.1437 53.8483 52.292 57.1989 52.3687L66.1812 52.5741C69.2799 52.645 71.9741 54.7219 72.8353 57.7036L79.6495 81.2957H56.5233Z" fill="#2290AC"/>
<path d="M59.3416 81.2957L54.6841 58.2622C54.0863 55.1437 56.6667 52.292 60.0173 52.3687L68.9996 52.5741C72.0983 52.645 74.7924 54.7219 75.6537 57.7036L82.4678 81.2957H59.3416Z" fill="#2290AC"/>
<path d="M57.8215 85.4978H93.3594C94.0734 85.4978 94.6576 84.9128 94.6576 84.1978V82.5969C94.6576 81.8819 94.0734 81.2969 93.3594 81.2969H56.5234V84.1978C56.5234 84.9128 57.1076 85.4978 57.8215 85.4978Z" fill="#2290AC"/>
<path d="M74.4989 85.4978H97.1535C97.7286 85.4978 98.1992 85.0266 98.1992 84.4506V82.3441C98.1992 81.7682 97.7287 81.2969 97.1535 81.2969H74.4989C73.9237 81.2969 73.4531 81.7681 73.4531 82.3441V84.4506C73.4531 85.0266 73.9237 85.4978 74.4989 85.4978Z" fill="#2290AC"/>
<path d="M87.4837 76.4787C85.5611 79.8297 83.143 81.1232 83.143 81.1232H73.083C73.083 81.1232 88.9504 73.9223 87.4837 76.4787Z" fill="#233862"/>
<path d="M99.8909 109.773C99.7821 110.83 101.25 111.103 102.953 111.206C104.656 111.309 104.137 111.653 106.467 112.102C108.797 112.55 109.739 111.921 109.912 111.606C110.065 111.328 108.985 110.878 107.833 110.37C107.688 110.307 107.543 110.241 107.398 110.176C106.102 109.589 105.384 108.412 104.381 107.317C103.431 106.28 102.553 102.982 102.553 102.982L99.3877 102.27C99.3877 102.27 100.247 105.238 100.543 106.505C100.716 107.25 100.439 108.077 100.194 108.707C100.062 109.05 99.9287 109.4 99.8909 109.773Z" fill="#FFB27D"/>
<path d="M102.953 111.202C104.656 111.305 104.137 111.649 106.468 112.098C108.798 112.546 109.74 111.917 109.912 111.602C110.066 111.324 108.985 110.874 107.834 110.366L107.815 110.386C107.815 110.386 106.168 110.926 104.279 110.39C102.739 109.953 101.256 109.013 100.195 108.703C100.063 109.046 99.9293 109.396 99.8914 109.769C99.7826 110.826 101.251 111.099 102.953 111.202Z" fill="#262524"/>
<path d="M95.0957 73.0452C93.3925 71.8475 82.126 69.7123 76.3765 69.0948L70.0216 63.5703C70.0216 63.5703 64.6125 71.5937 64.5696 77.7317C64.5496 80.5937 65.8659 80.878 65.8662 80.8786C65.8662 80.8786 86.2381 81.0299 87.1311 81.1221C88.5927 81.2731 90.5208 84.9196 91.0027 88.241C91.4845 91.5624 99.9795 105.071 99.9795 105.071C99.9795 105.071 101.751 105.639 102.57 105.591C103.451 105.54 103.859 105.244 103.859 105.244C103.859 105.244 98.9367 75.7462 95.0957 73.0452Z" fill="#233862"/>
<path d="M94.6224 109.773C94.5136 110.83 95.9817 111.103 97.6843 111.206C99.387 111.309 98.8684 111.653 101.198 112.102C103.528 112.55 104.471 111.921 104.643 111.606C104.797 111.328 103.716 110.878 102.565 110.37C102.42 110.307 102.275 110.241 102.13 110.176C100.834 109.589 100.116 108.412 99.1125 107.317C98.162 106.28 97.2844 102.982 97.2844 102.982L94.1191 102.27C94.1191 102.27 94.9783 105.238 95.274 106.505C95.4479 107.25 95.1707 108.077 94.9257 108.707C94.7936 109.05 94.6603 109.4 94.6224 109.773Z" fill="#FFB27D"/>
<path d="M97.6838 111.202C99.3865 111.305 98.8679 111.649 101.198 112.098C103.528 112.546 104.47 111.917 104.643 111.602C104.796 111.324 103.716 110.874 102.564 110.366L102.546 110.386C102.546 110.386 100.898 110.926 99.0092 110.39C97.4693 109.953 95.986 109.013 94.9252 108.703C94.7931 109.046 94.6598 109.396 94.6219 109.769C94.5131 110.826 95.9812 111.099 97.6838 111.202Z" fill="#233862"/>
<path d="M89.7802 73.0452C88.3005 72.0047 83.8503 71.198 78.9377 70.5993C77.5795 70.4338 76.4643 69.4448 76.1326 68.1154L64.7062 63.5703C64.7062 63.5703 59.297 71.5937 59.2541 77.7317C59.2341 80.5937 60.5505 80.878 60.5508 80.8786C60.5508 80.8786 80.9226 81.0299 81.8157 81.1221C83.2773 81.2731 85.2054 84.9196 85.6873 88.241C86.1691 91.5624 94.6641 105.071 94.6641 105.071C94.6641 105.071 96.4357 105.639 97.255 105.591C98.1361 105.54 98.5439 105.244 98.5439 105.244C98.5439 105.244 93.6212 75.7462 89.7802 73.0452Z" fill="#2B478B"/>
<path d="M74.4898 30.2374C72.9196 29.4116 70.5304 29.3 70.1423 29.2477C65.4975 28.6225 62.702 35.3816 62.5375 37.4297C62.2345 41.2047 60.2404 41.7802 57.4335 44.1444C51.8055 48.8848 53.4559 54.3932 56.5334 56.4398C58.3798 57.6679 61.6343 56.4396 61.6343 56.4396C61.6804 56.4719 70.5351 51.4825 74.9 49.0757C81.4435 48.1442 78.4911 32.3416 74.4898 30.2374Z" fill="#233862"/>
<path d="M73.5212 46.7511C73.5415 46.7615 71.4573 47.7108 69.9528 47.213C68.5374 46.7459 67.2907 44.612 67.3108 44.6088C67.9251 44.5196 68.5496 43.9128 68.7239 40.3164L68.996 40.385L73.5699 41.5427C73.5699 41.5427 73.389 42.9938 73.3144 44.3659C73.2513 45.5179 73.2641 46.6143 73.5212 46.7511Z" fill="#FFB27D"/>
<path d="M73.5701 41.5423C73.5701 41.5423 73.5701 41.841 73.3991 43.191C70.8123 42.5375 69.6716 41.6785 68.8672 40.6953L73.5701 41.5423Z" fill="#ED975D"/>
<path d="M74.5454 41.7227C74.5454 41.7227 68.4969 42.7089 67.9416 38.9273C67.3863 35.1456 66.2317 32.7261 70.07 31.9365C73.9084 31.147 74.8723 32.4792 75.3642 33.6963C75.8561 34.9134 76.1045 41.3687 74.5454 41.7227Z" fill="#FFB27D"/>
<path d="M74.551 31.782C74.551 31.782 71.8042 36.1242 69.3521 37.1526C66.9 38.1809 65.6953 37.6588 65.6953 37.6588C65.6953 37.6588 66.8109 35.9649 67.1015 33.6905C67.1872 33.0201 67.6233 32.4453 68.2499 32.194C70.0095 31.4882 73.4133 30.3753 74.551 31.782Z" fill="#233862"/>
<path d="M72.1387 32.1965C72.1387 32.1965 73.7487 33.0231 74.4117 33.7978C75.0515 34.5454 75.7905 36.5739 75.7377 37.4848C75.7377 37.4848 76.5319 33.1191 74.8777 31.6184C73.1237 30.0271 72.1387 32.1965 72.1387 32.1965Z" fill="#233862"/>
<path d="M78.3603 55.9902C78.1767 68.3027 78.3099 65.7298 76.965 66.8981C76.6409 67.1794 75.7299 67.347 74.5309 67.4263C70.761 67.677 64.1339 67.055 63.8818 66.3572C63.0122 63.943 63.6261 63.193 62.9006 59.4969C62.8249 59.1039 62.7314 58.6784 62.6215 58.2151C62.0166 55.6764 61.4279 54.8128 63.574 50.7345C65.5201 47.0403 67.8088 44.0392 67.9906 44.1474C73.1253 47.1997 73.301 44.6411 73.301 44.6411C73.301 44.6411 78.4503 49.9845 78.3603 55.9902Z" fill="white"/>
<path d="M73.3008 44.6406C73.3008 44.6406 78.5558 45.5327 79.1762 47.8108C79.7966 50.0889 83.4476 63.4812 83.4476 63.4812C83.4476 63.4812 80.7617 63.9644 79.5209 62.7218C78.2801 61.4791 75.2034 51.1934 75.2034 51.1934L73.3008 44.6406Z" fill="white"/>
<path d="M74.5307 67.4281C70.7608 67.6787 64.1337 67.0567 63.8816 66.359C63.012 63.9448 63.6259 63.1948 62.9004 59.4987L64.7187 54.3711C64.7187 54.3711 64.4181 60.081 66.0996 61.5829C67.7793 63.0848 72.9842 64.4821 73.8016 65.7369C74.1958 66.3391 74.4551 66.9431 74.5307 67.4281Z" fill="#EBF3FF"/>
<path d="M70.2109 65.026C70.2109 65.026 73.9302 64.1966 74.5304 64.5272C75.1305 64.8578 76.5972 66.0616 76.7808 66.4804C76.9645 66.8993 75.4448 66.1624 74.9505 66.0297C74.6304 65.9437 73.7877 66.237 73.3706 66.3762C71.6152 66.9622 70.5397 66.6607 70.5397 66.6607L70.2109 65.026Z" fill="#FFB27D"/>
<path d="M67.9901 44.1484C67.9901 44.1484 62.7261 44.4565 60.9973 46.8713C58.5636 50.2704 53.736 64.757 56.5027 66.689C59.6186 68.8648 70.6837 67.2582 70.6837 67.2582C70.6837 67.2582 71.052 65.5346 70.5396 64.7009C70.0272 63.8671 61.7017 62.5202 61.3174 62.1355C60.9331 61.7506 66.1206 54.6317 66.1206 53.4772C66.1207 52.3227 67.9901 44.1484 67.9901 44.1484Z" fill="white"/>
<path d="M74.7109 65.5625C74.7109 65.5625 75.4902 66.5692 75.7457 66.6893C76.0012 66.8094 76.1662 66.7794 76.1662 66.7794L75.6411 65.8329L74.7109 65.5625Z" fill="#FFB27D"/>
<path d="M74.5303 64.5236L76.796 65.6254C76.796 65.6254 76.6997 65.7834 76.4206 65.7706C76.1417 65.7578 75.438 65.5002 75.438 65.5002L74.5303 64.5236Z" fill="#FFB27D"/>
<path d="M82.8765 67.1331H72.3535C72.3535 66.6691 72.7291 66.293 73.1923 66.293H82.8765V67.1331Z" fill="#1A1C1E" fill-opacity="0.6"/>
<path d="M82.8468 55.6562H99.1161L95.2137 67.1334H78.8389L82.8468 55.6562Z" fill="#68C184"/>
<path d="M99.3554 55.6562L95.4531 67.1336H79.0781L83.0862 55.6562H99.3554Z" fill="#1A1C1E" fill-opacity="0.6"/>
<path d="M90.5842 61.2901C90.4832 61.7286 90.0462 62.0841 89.6084 62.0841C89.1705 62.0841 88.8975 61.7286 88.9986 61.2901C89.0997 60.8516 89.5366 60.4961 89.9745 60.4961C90.4123 60.4961 90.6853 60.8516 90.5842 61.2901Z" fill="white"/>
<path d="M68.7158 69.711H140.013C140.313 69.711 140.556 69.4676 140.556 69.1673V67.6726C140.556 67.3723 140.313 67.1289 140.013 67.1289H68.7158C68.4159 67.1289 68.1729 67.3723 68.1729 67.6726V69.1673C68.1729 69.4676 68.4159 69.711 68.7158 69.711Z" fill="#182D4F"/>
<path d="M141.759 112.243L141.789 112.24C142.154 112.194 142.413 111.868 142.367 111.511L136.013 68.4414L133.688 68.5082L141.163 111.81C141.211 112.088 141.473 112.279 141.759 112.243Z" fill="#182D4F"/>
<path d="M66.3285 112.243L66.2979 112.24C65.9327 112.194 65.674 111.868 65.7202 111.511L72.0736 68.4414L74.3996 68.5082L66.9242 111.81C66.8764 112.088 66.6136 112.279 66.3285 112.243Z" fill="#182D4F"/>
<path d="M81.0365 112.243L81.0059 112.24C80.6407 112.194 80.382 111.868 80.4282 111.511L86.7817 68.4414L89.1076 68.5082L81.6323 111.81C81.5844 112.088 81.3216 112.279 81.0365 112.243Z" fill="#182D4F"/>
<path d="M198.397 112.601H0.936954C0.788489 112.601 0.666992 112.48 0.666992 112.331V112.11C0.666992 111.961 0.788489 111.84 0.936954 111.84H198.397C198.545 111.84 198.667 111.961 198.667 112.11V112.331C198.667 112.48 198.545 112.601 198.397 112.601Z" fill="#2E3552"/>
<path d="M118.521 112.21H131.128C131.735 111.469 131.511 108.735 131.419 107.842C131.4 107.662 131.387 107.557 131.387 107.557C131.387 107.557 127.082 104.109 126.491 106.749C126.473 106.832 126.451 106.913 126.427 106.993C125.682 109.463 122.34 110.585 120.41 110.898C119.156 111.102 118.692 111.755 118.521 112.21Z" fill="#233862"/>
<path d="M152.922 71.1836C152.467 71.1836 131.326 75.1587 127.829 79.4936C126.082 81.6592 125.822 106.669 125.822 106.669C125.822 106.669 127.984 109.353 132.651 107.795C132.651 107.795 136.073 90.6832 135.821 85.4932C135.751 84.058 150.265 85.2854 152.922 84.5969C155.579 83.9083 162.069 78.121 160.639 75.3015C159.209 72.482 152.922 71.1836 152.922 71.1836Z" fill="#233862"/>
<path d="M127.919 65.0586C127.919 65.0586 123.655 65.1162 122.646 65.5491C121.638 65.982 119.592 66.9755 120.139 67.128C120.687 67.2805 123.299 67.0652 123.864 67.1517C124.428 67.2383 125.124 67.1279 125.47 67.1279C125.816 67.128 127.429 67.1279 127.429 67.1279L127.919 65.0586Z" fill="#FFB27D"/>
<path d="M122.933 54.8123C122.933 54.8123 121.479 53.7718 120.067 53.5698C119.262 53.4546 118.479 53.3109 118.006 53.144C116.703 52.6842 114.097 50.3371 114.294 50.0617C114.926 49.1794 117.969 51.0467 118.5 50.8462C119.031 50.6458 117.479 49.5406 118.019 49.1518C118.301 48.9489 118.961 49.9664 119.5 50.0685C120.229 50.2068 120.8 51.2384 121.019 51.2922C121.447 51.397 123.319 52.7914 123.319 52.7914L122.933 54.8123Z" fill="#FFB27D"/>
<path d="M150.816 42.6641C150.816 42.6641 147.57 43.6716 144.371 52.4917C141.173 61.3118 139.959 61.7879 138.796 62.1342C137.633 62.4804 127.429 64.5148 127.429 64.5148V67.1324H143.152C143.152 67.1324 149.048 61.5158 150.816 57.7347C152.584 53.9536 150.816 42.6641 150.816 42.6641Z" fill="#CED3D6"/>
<path d="M112.948 112.21H125.556C126.162 111.469 125.939 108.735 125.847 107.842C125.828 107.662 125.815 107.557 125.815 107.557C125.815 107.557 121.51 104.109 120.918 106.749C120.901 106.832 120.879 106.913 120.855 106.993C120.11 109.463 116.768 110.585 114.838 110.898C113.583 111.102 113.12 111.755 112.948 112.21Z" fill="#262524"/>
<path d="M146.692 71.1836C146.236 71.1836 125.095 75.1587 121.598 79.4936C119.851 81.6592 119.592 106.669 119.592 106.669C119.592 106.669 121.753 109.353 126.421 107.795C126.421 107.795 129.843 90.6832 129.59 85.4932C129.52 84.058 144.035 85.2854 146.692 84.5969C149.348 83.9083 155.839 78.121 154.409 75.3015C152.979 72.482 146.692 71.1836 146.692 71.1836Z" fill="#2B478B"/>
<path d="M148.015 45.4565C149.536 45.3308 151.131 44.9249 152.509 44.477C154.232 43.9172 155.62 43.099 154.726 41.5221C153.901 40.0688 152.566 36.8223 152.656 34.1328L149.451 36.72L147.273 38.4771C147.273 38.4771 147.282 39.5131 147.52 41.3286C147.564 41.6596 147.614 42.0168 147.674 42.3986C147.723 42.7071 147.581 43.0151 147.316 43.1797C147.3 43.1899 147.284 43.2001 147.267 43.2104C146.185 43.8913 146.742 45.5618 148.015 45.4565Z" fill="#FFB27D"/>
<path d="M147.272 38.05C147.272 38.05 147.161 38.4262 147.353 39.8152C149.294 39.498 151.109 37.9473 151.109 37.9473C150.12 37.6756 149.761 36.6061 149.025 36.7058L147.272 38.05Z" fill="#ED975D"/>
<path d="M145.477 38.3643C145.477 38.3643 152.944 39.6067 153.645 34.9376C154.346 30.2685 155.782 27.2844 151.044 26.2937C146.306 25.3031 145.11 26.9449 144.497 28.4464C143.885 29.9478 143.552 37.9208 145.477 38.3643Z" fill="#FFB27D"/>
<path d="M143.399 26.3813C143.078 27.5056 143.937 28.8751 145.377 29.3259C147.516 29.9951 147.043 32.622 148.005 32.5863C148.968 32.5507 149.356 31.0764 150.215 32.2543C150.949 33.2589 149.605 34.4501 149.698 35.001C149.856 35.9469 151.336 37.8821 152.669 37.7851C154.002 37.688 156.497 31.3425 155.998 29.3794C155.499 27.4163 153.503 25.3461 151.614 25.0606C149.725 24.775 147.102 25.5918 146.496 25.5918C145.89 25.5918 143.572 25.7739 143.399 26.3813Z" fill="#2B478B"/>
<path d="M160.738 49.1381C159.659 44.7876 156.676 40.2227 154.658 40.2266C151.221 40.2331 146.28 41.1414 144.285 46.0699C142.816 49.6997 140.856 70.5798 143.071 72.0648C148.134 75.4596 159.871 82.3893 161.956 75.3224C163.867 68.8472 162.611 56.6888 160.738 49.1381Z" fill="#CED3D6"/>
<path d="M152.39 44.8129C151.41 42.2586 148.247 41.3755 146.09 43.0559C144.924 43.9648 143.495 45.259 141.77 47.0992C135.355 53.9396 134.052 53.8971 132.847 53.7558C131.642 53.6146 121.464 51.4512 121.464 51.4512C121.464 51.4512 120.943 51.8362 120.636 52.4586C120.227 53.2899 120.433 53.8564 120.433 53.8564C120.034 53.5984 124.041 56.3641 126.035 57.467C128.669 58.9233 132.637 60.2886 134.218 60.8071C134.666 60.9541 135.149 60.9467 135.592 60.7866C137.938 59.9397 145.817 56.854 152.23 51.4995C153.92 50.0886 153.299 47.1813 152.39 44.8129Z" fill="#CED3D6"/>
<path d="M155.004 40.2712L154.226 38.5156C154.226 38.5156 147.261 39.0845 146.09 43.0547C146.09 43.0547 151.489 40.3564 155.004 40.2712Z" fill="white"/>
<path d="M171.916 112.056L171.964 112.055C172.358 112.048 172.661 111.726 172.624 111.355L170.001 85.113L167.711 85.3176L171.479 111.701C171.508 111.907 171.696 112.06 171.916 112.056Z" fill="#2290AC"/>
<path d="M158.411 112.056L158.459 112.055C158.853 112.048 159.157 111.726 159.119 111.355L156.496 85.113L154.206 85.3176L157.974 111.701C158.003 111.907 158.191 112.06 158.411 112.056Z" fill="#2290AC"/>
<path d="M133.057 112.056L133.009 112.055C132.616 112.048 132.312 111.726 132.349 111.355L134.973 85.113L137.262 85.3176L133.495 111.701C133.465 111.907 133.277 112.06 133.057 112.056Z" fill="#2290AC"/>
<path d="M171.175 81.3963L173.666 59.4783C173.992 56.3197 172.937 53.227 168.385 52.9876L160.378 52.4992C155.633 52.3031 153.49 56.2586 152.889 59.3037L148.136 83.3971L171.175 81.3963Z" fill="#2290AC"/>
<path d="M169.837 85.4978H134.299C133.585 85.4978 133.001 84.9128 133.001 84.1978V82.5969C133.001 81.8819 133.585 81.2969 134.299 81.2969H171.135V84.1978C171.135 84.9128 170.551 85.4978 169.837 85.4978Z" fill="#2290AC"/>
<path d="M170.126 85.4979H149.143C148.588 85.4979 148.135 85.0435 148.135 84.4882V82.3065C148.135 81.7512 148.588 81.2969 149.143 81.2969H171.135V84.4881C171.135 85.0435 170.681 85.4979 170.126 85.4979Z" fill="#2290AC"/>
</svg>
