<svg width="146" height="112" viewBox="0 0 146 112" fill="none" xmlns="http://www.w3.org/2000/svg">
<path d="M145.658 55.1795C146.41 41.151 139.683 27.1263 128.512 17.2425C117.342 7.36244 102.019 1.55532 86.3662 0.282057C70.7136 -0.991202 54.7947 2.11449 40.6388 8.22009C29.2905 13.1167 18.8681 20.0308 11.3843 29.0872C3.89622 38.1436 -0.492597 49.4442 0.399542 60.6768C1.88362 79.3035 15.8111 95.9503 34.453 104.387C53.0949 112.824 75.1912 113.613 95.6597 109.847C103.892 108.331 112.044 106.083 119.265 102.241C136.444 93.1053 144.698 73.0203 145.658 55.1758V55.1795Z" fill="#F0F8F1"/>
<path d="M126.973 104.294C126.973 102.431 114.854 102.431 99.9054 102.431C84.9572 102.431 72.8379 102.431 72.8379 104.294C72.8379 106.158 84.9572 106.158 99.9054 106.158C114.854 106.158 126.973 106.158 126.973 104.294Z" fill="#EDF1F3"/>
<path d="M88.1678 94.2234C87.9681 97.293 86.2887 100.235 83.7466 101.965C82.8173 102.598 81.6064 103.171 81.5449 104.295L112.624 104.131C113.438 100.672 114.434 97.0165 115.248 93.5603C106.152 93.6269 97.2637 94.1594 88.1678 94.2234Z" fill="#060305"/>
<path d="M101.457 94.8206C101.25 97.67 99.8469 100.412 97.6581 102.247C96.9643 102.829 96.0273 103.266 95.6484 104.088" stroke="white" stroke-linecap="round" stroke-linejoin="round"/>
<path d="M96.2451 103.677C101.829 103.449 107.412 103.224 112.996 102.996" stroke="white" stroke-linecap="round" stroke-linejoin="round"/>
<path d="M81.8799 103.637C86.5648 103.591 91.2471 103.545 95.9321 103.499" stroke="white" stroke-linecap="round" stroke-linejoin="round"/>
<path d="M132.966 64.6913C124.144 62.4281 114.616 62.3129 105.927 65.0369C105.95 65.7589 105.648 66.4015 105.671 67.1234C103.538 67.3129 101.38 67.2053 99.2478 67.3948C97.0973 67.3154 95.1722 68.9257 93.9741 70.7127C92.7759 72.4997 92.2204 74.6272 91.6854 76.7111C90.1442 82.7044 88.6056 88.6976 87.0645 94.6909L115.632 94.9751C116.661 90.2388 118.103 85.4744 119.132 80.7356C121.251 80.4617 123.387 80.1826 125.414 79.5093C127.442 78.8334 129.38 77.7275 130.711 76.0557C133.169 72.9631 133.128 68.6364 132.966 64.6887V64.6913Z" fill="url(#paint0_linear_4525_44305)"/>
<path d="M119.964 77.3978C119.69 78.578 119.418 79.7583 119.145 80.9385C119.472 80.5212 119.797 80.1039 120.125 79.6891" stroke="#060305" stroke-linecap="round" stroke-linejoin="round"/>
<path d="M101.068 94.6449C102.702 87.4765 104.332 80.3056 105.966 73.1372C106.557 70.5438 108.544 68.3191 111.158 67.825" stroke="#060305" stroke-linecap="round" stroke-linejoin="round"/>
<path d="M109.544 70.1719C110.668 69.3143 112.306 69.1965 113.543 69.8801" stroke="#060305" stroke-linecap="round" stroke-linejoin="round"/>
<path d="M96.501 69.5486C97.0411 68.9495 97.8322 68.5834 98.6386 68.5578C99.445 68.5322 100.257 68.8471 100.835 69.4104" stroke="#060305" stroke-linecap="round" stroke-linejoin="round"/>
<path d="M87.7119 92.6515C87.7119 92.6515 112.719 92.8077 115.683 92.8461" stroke="#060305" stroke-linecap="round" stroke-linejoin="round"/>
<path d="M128.514 40.8056C126.262 40.2091 124.262 39.8814 121.973 39.4282C121.799 40.1118 121.144 40.6417 120.44 40.6699C119.736 40.7006 119.083 40.25 118.85 39.5844C117.094 40.1041 115.34 40.6264 113.584 41.1461C110.904 41.9423 108.548 43.7702 106.639 45.8132C105.085 47.4722 103.464 49.021 101.897 50.6672C103.853 56.3046 105.546 59.9221 108.108 65.3086L132.721 62.9891C134.059 58.3834 135.539 55.8617 136.878 51.256C137.505 50.7235 138.307 50.1859 138.934 49.6534C137.07 45.3933 134.354 42.3493 128.512 40.803L128.514 40.8056Z" fill="white"/>
<path d="M116.648 40.264C116.874 41.4084 117.836 42.3275 118.952 42.6654C120.069 43.0033 121.3 42.8088 122.35 42.3044C123.399 41.8001 124.288 41.0064 125.061 40.1334" stroke="#060305" stroke-linecap="round" stroke-linejoin="round"/>
<path d="M109.99 42.9805C109.601 45.4254 109.214 47.8729 108.825 50.3178" stroke="#060305" stroke-linecap="round" stroke-linejoin="round"/>
<path d="M131.023 41.7072C130.028 41.7507 129.068 42.2755 128.489 43.0896C127.913 43.9012 127.841 44.9585 128.023 45.9365C128.515 48.5913 128.965 50.6394 129.677 52.9512" stroke="#060305" stroke-linecap="round" stroke-linejoin="round"/>
<path d="M129.434 51.8757C132.506 50.89 135.578 49.9018 138.65 48.9161" stroke="#060305" stroke-linecap="round" stroke-linejoin="round"/>
<path d="M140.305 55.2281C139.934 53.3592 139.182 51.5876 138.434 49.8339L130.252 52.8599C130.513 53.9736 130.774 55.0898 131.035 56.2035C128.893 56.8205 126.66 57.3018 124.52 57.9188C122.119 58.61 119.746 59.3806 117.526 60.5326C116.745 62.166 115.987 63.7533 115.207 65.3867C115.079 65.6529 115.14 66.083 115.363 66.2776C115.583 66.4722 115.906 66.5464 116.19 66.4645C117.7 66.0369 119.003 64.8465 120.357 64.0503C119.369 65.0999 118.419 66.1854 117.516 67.3093C117.872 67.6344 118.417 67.6191 118.814 67.3426C120.03 66.4901 121.307 65.8244 122.541 65.0026C122.088 65.6862 121.635 66.3672 121.182 67.0507C121.213 67.2274 121.379 67.3093 121.558 67.2991C121.735 67.2863 121.896 67.189 122.047 67.0968C122.664 66.7102 123.284 66.3262 123.901 65.9396C125.076 66.1035 126.432 65.8475 127.582 65.5479C130.385 64.8183 133.46 65.4558 136.135 64.3447C137.804 63.6509 139.133 62.4937 139.87 60.8424C140.648 59.1015 140.679 57.0995 140.305 55.2306V55.2281Z" fill="#FFB27D"/>
<path d="M130.836 56.2097C131.466 56.1021 132.093 55.9946 132.723 55.8871" stroke="#060305" stroke-linecap="round" stroke-linejoin="round"/>
<path d="M115.498 65.9664C116.681 64.6301 117.864 63.2962 119.049 61.9598" stroke="#060305" stroke-linecap="round" stroke-linejoin="round"/>
<path d="M120.803 63.6445C120.519 63.9466 120.234 64.2487 119.95 64.5483" stroke="#060305" stroke-linecap="round" stroke-linejoin="round"/>
<path d="M110.888 51.0796L115.954 66.2228H125.757C126.253 66.2228 126.571 66.7834 126.289 67.1956C125.972 67.659 125.45 67.9355 124.892 67.9355H90.4664C89.7624 67.9355 89.1377 67.4849 88.9124 66.8142L83.6464 51.0796C83.4621 50.5292 83.8691 49.9583 84.4477 49.9583H109.329C110.033 49.9583 110.658 50.4088 110.883 51.0796H110.888Z" fill="#060305"/>
<path d="M97.7373 59.2087C97.7373 58.607 98.2237 58.1206 98.8202 58.1206C99.4167 58.1206 99.9031 58.607 99.9031 59.2087C99.9031 59.8103 99.4167 60.2967 98.8202 60.2967C98.2237 60.2967 97.7373 59.8103 97.7373 59.2087Z" fill="url(#paint1_linear_4525_44305)"/>
<path d="M109.334 49.9518L115.386 67.9316" stroke="white" stroke-linecap="round" stroke-linejoin="round"/>
<path d="M84.1738 50.6113H96.4339" stroke="white" stroke-linecap="round" stroke-linejoin="round"/>
<path d="M117.16 67.0761C117.16 66.8406 116.968 66.6486 116.732 66.6486C116.497 66.6486 116.305 66.8406 116.305 67.0761C116.305 67.3116 116.497 67.5036 116.732 67.5036C116.968 67.5036 117.16 67.3116 117.16 67.0761Z" stroke="white" stroke-linecap="round" stroke-linejoin="round"/>
<path d="M118.284 67.0796H119.449" stroke="white" stroke-linecap="round" stroke-linejoin="round"/>
<path d="M124.272 34.9514C124.29 35.6785 124.603 36.3979 125.143 36.9586C125.435 37.2607 125.793 37.5192 126.049 37.8444C126.305 38.1695 126.454 38.5996 126.264 38.958" stroke="#060305" stroke-linecap="round" stroke-linejoin="round"/>
<path d="M122.934 32.7556C123.028 32.6813 123.12 32.6096 123.215 32.5354" stroke="#060305" stroke-linecap="round" stroke-linejoin="round"/>
<path d="M125.588 37.9512C125.389 37.6543 125.102 37.4187 124.91 37.1166C124.539 36.5278 124.575 35.7802 124.447 35.0941C124.152 33.5196 122.846 32.1833 121.28 31.853C119.713 31.5227 117.98 32.2165 117.074 33.535C116.574 34.2621 116.326 35.1248 116.011 35.9492C115.696 36.771 115.279 37.6031 114.56 38.1125L125.678 38.9599C125.885 38.6681 125.785 38.2508 125.583 37.9538L125.588 37.9512Z" fill="#060305"/>
<path d="M123.781 40.0121C123.343 39.9481 122.803 39.9123 122.362 39.8483C122.332 39.3363 122.303 38.8294 122.275 38.3173C122.823 38.3097 123.345 37.9231 123.512 37.3983C123.678 36.876 123.471 36.2564 123.028 35.9364C122.582 35.6164 121.932 35.6164 121.487 35.939C121.395 35.5729 121.244 35.1377 121.151 34.7716C120.772 34.8842 120.286 34.5616 120.217 34.1725C120.14 34.3491 119.823 34.4131 119.633 34.3875C119.444 34.3619 119.275 34.2519 119.126 34.1315C118.978 34.0112 118.837 33.8755 118.668 33.7834C118.41 33.6425 118.09 33.6221 117.816 33.7245C117.542 33.8269 117.314 34.0547 117.211 34.3287C116.861 35.258 116.41 36.1848 116.41 37.1781C116.41 37.7848 116.635 38.3301 117.042 38.7782C117.45 39.2262 118.033 39.5104 118.637 39.5513C118.64 39.751 118.65 39.8637 118.653 40.0634C118.317 40.1274 117.844 40.1862 117.508 40.2502C117.764 41.0772 118.376 41.6455 119.216 41.8631C120.056 42.0807 120.959 41.9271 121.745 41.5585C122.531 41.1898 123.184 40.6368 123.781 40.0096V40.0121Z" fill="#FFB27D"/>
<path d="M121.92 36.7905C122.127 36.7291 122.335 36.6702 122.542 36.6088" stroke="#060305" stroke-linecap="round" stroke-linejoin="round"/>
<path d="M121.802 38.3326C121.966 38.3531 122.129 38.3762 122.296 38.3966" stroke="#060305" stroke-linecap="round" stroke-linejoin="round"/>
<path d="M118.489 39.604C119.05 39.7448 119.657 39.686 120.181 39.4427" stroke="#060305" stroke-linecap="round" stroke-linejoin="round"/>
<path d="M117.841 33.7C118.007 33.6155 118.217 33.6744 118.361 33.7948C118.504 33.9151 118.591 34.0866 118.675 34.253" stroke="#060305" stroke-linecap="round" stroke-linejoin="round"/>
<path d="M119.827 36.4735C119.969 36.4735 120.083 36.3588 120.083 36.2174C120.083 36.076 119.969 35.9614 119.827 35.9614C119.686 35.9614 119.571 36.076 119.571 36.2174C119.571 36.3588 119.686 36.4735 119.827 36.4735Z" fill="#060305"/>
<path d="M117.319 36.0229C117.46 36.0229 117.575 35.9083 117.575 35.7669C117.575 35.6255 117.46 35.5109 117.319 35.5109C117.177 35.5109 117.062 35.6255 117.062 35.7669C117.062 35.9083 117.177 36.0229 117.319 36.0229Z" fill="#060305"/>
<path d="M118.438 35.8243C118.333 36.0829 118.228 36.3415 118.12 36.6001C118.21 36.6205 118.287 36.6743 118.376 36.6948" stroke="#060305" stroke-linecap="round" stroke-linejoin="round"/>
<path d="M118.763 37.1855C118.806 37.3059 118.947 37.3852 119.072 37.3596C119.198 37.334 119.298 37.2086 119.293 37.078" stroke="#060305" stroke-linecap="round" stroke-linejoin="round"/>
<path d="M117.067 34.7475C117.221 34.6041 117.451 34.5478 117.654 34.6067C117.856 34.6656 118.022 34.8345 118.076 35.0368" stroke="#060305" stroke-linecap="round" stroke-linejoin="round"/>
<path d="M119.331 35.1648C119.587 35.1853 119.841 35.2058 120.097 35.2262" stroke="#060305" stroke-linecap="round" stroke-linejoin="round"/>
<defs>
<linearGradient id="paint0_linear_4525_44305" x1="87.0645" y1="62.9929" x2="117.052" y2="106.092" gradientUnits="userSpaceOnUse">
<stop stop-color="#2290AC"/>
<stop offset="1" stop-color="#68C184"/>
</linearGradient>
<linearGradient id="paint1_linear_4525_44305" x1="97.7373" y1="58.1206" x2="99.9134" y2="60.2864" gradientUnits="userSpaceOnUse">
<stop stop-color="#2290AC"/>
<stop offset="1" stop-color="#68C184"/>
</linearGradient>
</defs>
</svg>
