<svg width="400" height="400" viewBox="0 0 400 400" fill="none" xmlns="http://www.w3.org/2000/svg">
<path opacity="0.1" d="M368.526 207.611C357.15 238.082 333.905 271.06 301.195 280.823C251.773 295.581 245.868 335.419 157.346 331.724C143.545 331.15 130.788 329.209 119.068 326.111C112.768 324.446 106.766 322.438 101.071 320.124C49.3576 299.179 22.3808 253.078 20.1408 204.842C17.1848 141.401 61.4496 111.162 90.2176 93.4562C118.986 75.7506 153.658 7.14344 240.71 10.0922C253.982 10.5474 267.224 12.361 280.055 15.8402C309.346 23.7674 339.122 41.3018 356.425 66.9346C357.724 68.8602 358.963 70.8314 360.15 72.8394C383.306 112.125 384.037 166.071 368.526 207.611Z" fill="white"/>
<path d="M359.722 346.651C359.722 346.766 288.206 346.859 200.008 346.859C111.779 346.859 40.2792 346.766 40.2792 346.651C40.2792 346.537 111.779 346.443 200.008 346.443C288.206 346.443 359.722 346.536 359.722 346.651Z" fill="#263238"/>
<path d="M72.7611 114.748C70.7721 117.777 69.4345 121.105 68.7218 124.537L63.2562 125.052L63.2554 135.637L68.7218 136.152C69.4337 139.583 70.7721 142.91 72.7611 145.94L69.2701 150.156L76.755 157.641L80.9716 154.15C84.0013 156.139 87.3279 157.477 90.7598 158.189L91.2741 163.655L101.859 163.655L102.374 158.189C105.806 157.476 109.133 156.139 112.162 154.15L116.379 157.641L123.865 150.156L120.374 145.939C122.362 142.909 123.7 139.583 124.412 136.151L129.878 135.636L129.878 125.051L124.413 124.536C123.7 121.105 122.362 117.778 120.373 114.748L123.864 110.531L116.379 103.046L112.162 106.537C109.133 104.548 105.805 103.21 102.374 102.497L101.859 97.0308L91.2733 97.0315L90.759 102.497C87.3279 103.21 84.0005 104.547 80.9716 106.536L76.7542 103.045L69.2694 110.531L72.7611 114.748ZM106.7 120.211C112.295 125.807 112.296 134.881 106.7 140.477C101.103 146.073 92.03 146.072 86.4341 140.477C80.8383 134.881 80.8383 125.808 86.4341 120.212C92.0307 114.615 101.103 114.615 106.7 120.211Z" fill="#E0E0E0"/>
<path d="M138.181 63.6473C137.097 65.297 136.369 67.1087 135.981 68.9781L133.004 69.2583V75.0231L135.982 75.3033C136.37 77.1719 137.098 78.9836 138.181 80.6341L136.28 82.9306L140.357 87.007L142.653 85.1059C144.303 86.189 146.115 86.9176 147.984 87.3054L148.264 90.2829H154.029L154.309 87.3062C156.178 86.9176 157.99 86.1898 159.64 85.1066L161.936 87.0078L166.013 82.9313L164.112 80.6348C165.195 78.9851 165.923 77.1726 166.311 75.3041L169.288 75.0238L169.289 69.2591L166.312 68.9788C165.924 67.1103 165.195 65.2985 164.112 63.6488L166.013 61.3523L161.936 57.2759L159.64 59.177C157.989 58.0939 156.178 57.3645 154.309 56.9767L154.029 54H148.264L147.984 56.9767C146.115 57.3645 144.304 58.0931 142.653 59.1762L140.357 57.2751L136.28 61.3516L138.181 63.6473ZM156.664 66.6225C159.711 69.6703 159.712 74.6118 156.664 77.6589C153.616 80.7068 148.675 80.7068 145.627 77.6589C142.579 74.611 142.579 69.6696 145.627 66.6217C148.675 63.5754 153.616 63.5754 156.664 66.6225Z" fill="#F0F0F0"/>
<path d="M243.934 172.94C243.172 174.099 242.66 175.373 242.387 176.687L240.294 176.884V180.936L242.387 181.133C242.66 182.446 243.172 183.72 243.934 184.88L242.598 186.494L245.463 189.359L247.077 188.023C248.237 188.784 249.511 189.297 250.824 189.569L251.021 191.662H255.073L255.27 189.57C256.583 189.297 257.857 188.785 259.017 188.023L260.631 189.359L263.496 186.494L262.16 184.88C262.921 183.72 263.434 182.446 263.706 181.133L265.798 180.936V176.884L263.706 176.687C263.434 175.373 262.921 174.099 262.16 172.941L263.496 171.326L260.63 168.461L259.016 169.797C257.857 169.036 256.583 168.523 255.269 168.251L255.072 166.158H251.02L250.823 168.25C249.51 168.522 248.236 169.035 247.076 169.796L245.462 168.46L242.597 171.325L243.934 172.94ZM256.925 175.031C259.067 177.173 259.067 180.647 256.925 182.789C254.783 184.931 251.309 184.931 249.167 182.789C247.025 180.647 247.025 177.173 249.167 175.031C251.31 172.889 254.783 172.889 256.925 175.031Z" fill="#E0E0E0"/>
<path d="M232.785 206.677C231.702 208.327 230.973 210.138 230.585 212.008L227.608 212.288V218.053L230.586 218.333C230.973 220.202 231.702 222.013 232.785 223.664L230.884 225.96L234.96 230.037L237.257 228.136C238.907 229.219 240.718 229.947 242.588 230.335L242.868 233.313H248.633L248.913 230.336C250.781 229.948 252.594 229.219 254.244 228.136L256.54 230.037L260.617 225.96L258.715 223.664C259.799 222.014 260.527 220.202 260.915 218.333L263.892 218.053L263.892 212.288L260.916 212.007C260.528 210.138 259.799 208.327 258.715 206.677L260.617 204.38L256.54 200.304L254.244 202.205C252.593 201.122 250.781 200.393 248.913 200.005L248.633 197.028H242.868L242.588 200.005C240.719 200.393 238.907 201.121 237.257 202.204L234.96 200.303L230.884 204.38L232.785 206.677ZM251.268 209.652C254.316 212.7 254.316 217.641 251.268 220.689C248.221 223.737 243.279 223.737 240.231 220.689C237.183 217.641 237.183 212.701 240.231 209.652C243.279 206.604 248.221 206.604 251.268 209.652Z" fill="#E0E0E0"/>
<path d="M275.62 195.369C274.09 197.698 273.061 200.259 272.513 202.898L268.308 203.294V211.437L272.513 211.834C273.06 214.473 274.09 217.032 275.62 219.364L272.935 222.608L278.693 228.366L281.937 225.68C284.268 227.21 286.827 228.239 289.467 228.787L289.863 232.992H298.005L298.401 228.788C301.042 228.239 303.601 227.21 305.932 225.68L309.176 228.366L314.935 222.608L312.249 219.364C313.779 217.033 314.808 214.474 315.356 211.834L319.56 211.438L319.561 203.295L315.356 202.899C314.808 200.259 313.779 197.7 312.249 195.369L314.935 192.125L309.177 186.367L305.933 189.053C303.602 187.523 301.042 186.493 298.403 185.946L298.007 181.74L289.864 181.741L289.468 185.946C286.828 186.495 284.269 187.523 281.938 189.053L278.694 186.367L272.935 192.126L275.62 195.369ZM301.729 199.572C306.033 203.877 306.033 210.856 301.729 215.162C297.424 219.467 290.443 219.467 286.139 215.162C281.834 210.856 281.834 203.877 286.139 199.572C290.444 195.266 297.424 195.266 301.729 199.572Z" fill="#F0F0F0"/>
<path d="M234.585 70.9481C233.317 72.8796 232.464 75.0011 232.009 77.1893L228.524 77.5173V84.2667L232.009 84.5954C232.463 86.7836 233.317 88.9051 234.585 90.8366L232.359 93.5254L237.132 98.2979L239.821 96.0719C241.752 97.3398 243.874 98.1934 246.062 98.6471L246.39 102.133L253.139 102.132L253.468 98.6471C255.656 98.1927 257.778 97.3398 259.71 96.0711L262.399 98.2972L267.172 93.5247L264.946 90.8358C266.214 88.9044 267.068 86.7828 267.521 84.5946L271.006 84.2659L271.007 77.5165L267.522 77.1878C267.068 75.0003 266.214 72.8788 264.946 70.9466L267.172 68.2578L262.4 63.4852L259.711 65.7113C257.779 64.4434 255.657 63.5898 253.47 63.1353L253.142 59.6496H246.391L246.063 63.1353C243.875 63.5898 241.754 64.4426 239.822 65.7113L237.133 63.4852L232.361 68.2585L234.585 70.9481ZM256.227 74.4315C259.795 77.9997 259.795 83.7857 256.227 87.3539C252.658 90.9221 246.872 90.9221 243.304 87.3539C239.736 83.7857 239.736 77.9997 243.304 74.4315C246.872 70.8633 252.658 70.8633 256.227 74.4315Z" fill="#F0F0F0"/>
<path d="M62.1898 216.501C60.9923 218.324 60.1871 220.326 59.7584 222.392L56.4689 222.702V229.072L59.7592 229.382C60.1879 231.448 60.993 233.45 62.1905 235.273L60.0894 237.812L64.5946 242.317L67.1327 240.216C68.9558 241.412 70.9584 242.218 73.0239 242.646L73.3337 245.937L79.7044 245.936L80.0142 242.646C82.0797 242.218 84.0823 241.412 85.9054 240.215L88.4436 242.316L92.9487 237.811L90.8476 235.273C92.0444 233.45 92.8495 231.447 93.2782 229.381L96.5677 229.072L96.5685 222.701L93.279 222.391C92.8503 220.326 92.0444 218.324 90.8476 216.501L92.9487 213.963L88.4436 209.457L85.9054 211.559C84.0816 210.362 82.0797 209.556 80.0142 209.127L79.7044 205.837H73.3337L73.0239 209.126C70.9584 209.555 68.9566 210.36 67.1335 211.558L64.5953 209.457L60.0902 213.962L62.1898 216.501ZM82.6167 219.789C85.9842 223.157 85.985 228.618 82.6167 231.986C79.2485 235.354 73.7874 235.354 70.4192 231.986C67.0509 228.617 67.0509 223.157 70.4192 219.788C73.7874 216.42 79.2485 216.42 82.6167 219.789Z" fill="#F0F0F0"/>
<path d="M90.1599 319.96H62.7033V320.15H90.1599V319.96Z" fill="#E0E0E0"/>
<path d="M341.473 310.773H336.679V310.962H341.473V310.773Z" fill="#E0E0E0"/>
<path d="M263.022 297.085V261.842C263.022 260.238 264.872 259.34 266.133 260.331L288.532 277.953C289.511 278.722 289.511 280.205 288.532 280.974L266.133 298.596C264.872 299.588 263.022 298.69 263.022 297.085Z" fill="white"/>
<path d="M266.656 268.988H160.984V289.941H266.656V268.988Z" fill="white"/>
<path d="M179.507 289.975H80.4058L91.7194 279.304L80.4058 268.499H179.507C222.051 268.499 256.664 233.887 256.664 191.342C256.664 148.798 222.052 114.186 179.507 114.186V92.7097C233.893 92.7097 278.14 136.956 278.14 191.342C278.14 245.729 233.893 289.975 179.507 289.975Z" fill="white"/>
<g opacity="0.4">
<path d="M179.507 289.975H80.4058L91.7194 279.304L80.4058 268.499H179.507C222.051 268.499 256.664 233.887 256.664 191.342C256.664 148.798 222.052 114.186 179.507 114.186V92.7097C233.893 92.7097 278.14 136.956 278.14 191.342C278.14 245.729 233.893 289.975 179.507 289.975Z" fill="white"/>
</g>
<path d="M105.982 260.262C89.3351 241.799 80.1672 217.93 80.1672 193.052C80.1672 147.471 110.918 107.543 154.947 95.9537L147.548 105.242L160.512 117.094C126.077 126.158 102.028 157.393 102.028 193.052C102.028 212.514 109.198 231.183 122.217 245.623L105.982 260.262Z" fill="white"/>
<path d="M108.14 261.513C108.952 261.31 135.712 261.513 135.712 261.513L122.218 245.623L105.982 260.262L108.14 261.513Z" fill="white"/>
<path d="M179.926 84.8832L181.91 120.07C182 121.672 180.204 122.673 178.889 121.754L155.533 105.422C154.513 104.708 154.43 103.228 155.363 102.405L176.735 83.5502C177.938 82.4883 179.835 83.2813 179.926 84.8832Z" fill="white"/>
<path opacity="0.4" d="M179.926 84.8832L181.91 120.07C182 121.672 180.204 122.673 178.889 121.754L155.533 105.422C154.513 104.708 154.43 103.228 155.363 102.405L176.735 83.5502C177.938 82.4883 179.835 83.2813 179.926 84.8832Z" fill="white"/>
<path d="M168.899 160.002C173.025 162.757 174.204 166.717 174.151 169.584C173.639 173.455 172.296 176.195 171.251 179.958L160.985 157.301C163.383 157.776 164.462 157.284 168.899 160.002Z" fill="#263238"/>
<path d="M163.751 158C159.73 156.13 155.784 158.337 153.484 159.87C150.966 162.006 149.482 165.117 149.406 168.418C149.406 171.504 149.406 175.245 151.276 176.853C152.325 177.784 153.716 178.232 155.111 178.087L170.372 164.004C168.712 161.473 166.432 159.406 163.751 158Z" fill="#263238"/>
<path d="M164.012 199.719C162.838 200.929 161.767 200.525 160.201 199.884C150.882 196.533 153.64 192.033 153.64 192.033C155.407 189.958 155.485 187.477 154.841 183.695C154.828 183.585 154.823 183.474 154.826 183.363C154.833 182.857 154.995 182.367 155.291 181.958C156.069 180.819 157.624 180.528 158.764 181.306L158.767 181.309L162.938 182.501C162.95 182.558 162.961 182.615 162.974 182.68C162.985 184.748 162.926 186.355 162.941 187.618C162.971 187.769 162.944 187.93 162.951 188.078C162.981 188.228 162.97 188.394 162.97 188.543C163.069 190.274 165.998 192.815 167.191 193.419C167.914 193.833 167.994 195.637 164.012 199.719Z" fill="#CCCCCC"/>
<path opacity="0.2" d="M162.935 182.486C162.938 182.55 162.951 182.613 162.973 182.673C162.984 184.741 162.925 186.348 162.939 187.611C162.931 187.764 162.935 187.918 162.949 188.071C162.958 188.232 162.977 188.392 163.008 188.551C159.838 187.689 157.008 185.876 154.899 183.356C154.903 182.858 155.052 182.374 155.328 181.959C156.096 180.813 157.646 180.503 158.795 181.266L162.935 182.486Z" fill="black"/>
<path d="M151.691 169.321C151.851 176.456 151.76 179.468 155.15 183.342C160.254 189.161 168.802 187.608 170.769 180.606C172.488 174.303 171.973 163.715 165.247 160.442C158.521 157.168 151.537 162.178 151.691 169.321Z" fill="#CCCCCC"/>
<path d="M148.532 175.432C149.253 176.972 150.549 178.01 151.783 178.433C153.638 179.068 154.875 176.104 154.389 174.149C153.951 172.391 152.184 171.102 150.308 171.318C148.46 171.532 147.707 173.671 148.532 175.432Z" fill="#CCCCCC"/>
<path opacity="0.2" d="M152.57 175.389C152.582 174.707 152.314 174.024 151.841 173.533C151.368 173.041 150.696 172.747 150.015 172.733" stroke="black" stroke-width="0.5" stroke-miterlimit="10" stroke-linecap="round" stroke-linejoin="round"/>
<path d="M160.986 172.392C160.957 173.153 161.315 173.809 161.785 173.859C162.255 173.909 162.659 173.333 162.689 172.572C162.717 171.811 162.36 171.155 161.889 171.105C161.419 171.055 161.015 171.632 160.986 172.392Z" fill="#263238"/>
<path d="M168.05 172.968C168.023 173.705 168.382 174.343 168.85 174.393C169.319 174.442 169.72 173.884 169.747 173.147C169.773 172.41 169.414 171.773 168.946 171.723C168.478 171.673 168.076 172.231 168.05 172.968Z" fill="#263238"/>
<path d="M159.715 169.627C159.805 169.645 159.9 169.626 159.976 169.567C161.166 168.639 162.378 169.103 162.392 169.108C162.571 169.177 162.767 169.089 162.824 168.904C162.882 168.72 162.782 168.513 162.6 168.441C162.536 168.416 161.016 167.832 159.54 168.985C159.393 169.1 159.371 169.324 159.491 169.484C159.55 169.562 159.631 169.61 159.715 169.627Z" fill="#263238"/>
<path d="M170.729 169.575C170.803 169.557 170.867 169.509 170.906 169.433C170.985 169.276 170.922 169.063 170.767 168.958C169.208 167.899 167.936 168.496 167.882 168.523C167.731 168.597 167.679 168.797 167.766 168.971C167.853 169.145 168.047 169.226 168.197 169.153C168.246 169.129 169.241 168.683 170.481 169.525C170.561 169.579 170.651 169.595 170.729 169.575Z" fill="#263238"/>
<path d="M166.158 172.457C166.158 172.457 167.052 175.232 168.175 177.009C168.371 177.32 168.198 177.735 167.844 177.832C166.932 178.083 165.922 177.701 165.922 177.701L166.158 172.457Z" fill="#CCCCCC"/>
<path d="M161.618 171.114L163.294 170.864C163.294 170.864 162.291 172.013 161.618 171.114Z" fill="#263238"/>
<path d="M168.776 171.726L170.452 171.476C170.452 171.476 169.45 172.625 168.776 171.726Z" fill="#263238"/>
<path d="M165.456 179.66C164.865 180.323 164.07 181.663 164.07 181.663C163.935 181.613 163.801 181.563 163.669 181.506C161.864 180.781 161.266 179.848 161.151 179.033C161.09 178.588 161.178 178.174 161.293 177.854C161.421 177.482 161.597 177.247 161.597 177.247C162.324 178.202 163.955 179.008 164.844 179.402C165.215 179.572 165.456 179.66 165.456 179.66Z" fill="#263238"/>
<path d="M164.844 179.403L164.42 179.983C162.721 179.296 161.618 178.584 161.293 177.855C161.421 177.483 161.597 177.247 161.597 177.247C162.324 178.203 163.955 179.009 164.844 179.403Z" fill="white"/>
<path d="M163.669 181.506C161.864 180.781 161.266 179.848 161.151 179.034C161.756 179.304 162.457 179.699 162.996 180.237C163.41 180.646 163.593 181.095 163.669 181.506Z" fill="#DE5753"/>
<path d="M154.161 171.06C154.161 171.06 158.238 166.403 158.364 162.419C158.364 162.419 172.948 159.183 171.603 171.77C171.603 171.77 174.756 160.885 162.841 159.108C150.926 157.332 148.467 172.893 153.868 178.316C153.888 178.261 151.64 173.977 154.161 171.06Z" fill="#263238"/>
<path d="M141.45 161.581C141.729 164.827 144.586 167.233 147.832 166.955C151.079 166.677 153.485 163.82 153.207 160.573C152.946 157.522 150.393 155.177 147.329 155.177C143.944 155.336 141.319 158.194 141.45 161.581Z" fill="#263238"/>
<path d="M168.258 160.667C169.826 162.172 170.874 164.138 171.25 166.278C171.25 167.83 169.137 168.953 169.137 168.953L166.556 165.568V168.541C162.33 168.078 159.885 165.834 158.439 162.594L160.795 158.386C160.795 158.386 166.855 159.452 168.258 160.667Z" fill="#263238"/>
<path d="M148.116 164.982C147.752 166.666 146.756 168.204 145.369 169.225C146.115 169.288 146.88 169.103 147.517 168.707C147.486 169.316 147.351 169.918 147.119 170.481C148.829 169.057 149.84 166.829 149.781 164.604L148.116 164.982Z" fill="#263238"/>
<path d="M231.596 318.545L224.525 318.747C224.525 318.747 211.902 294.446 205.84 280.817C198.678 264.714 200.255 259.528 198.107 259.434C194.141 259.26 153.671 277.868 143.533 267.548C133.394 257.228 148.06 232.357 148.06 232.357C148.06 232.357 170.651 228.869 172.493 234.38C172.945 236.008 173.929 237.691 174.166 239.364C174.438 241.017 174.988 243.459 174.988 243.459C175.524 243.325 191.006 241.827 200.615 242.046C206.404 242.179 211.561 245.695 213.864 251.008C222.55 271.038 231.596 318.545 231.596 318.545Z" fill="#263238"/>
<path d="M160.359 270.034C160.359 270.034 162.011 270.034 187.625 268.877C187.625 268.877 184.108 277.183 183.13 294.287C182.727 301.323 183.85 324.114 182.969 334.2C183.415 334.829 188.123 336.914 190.993 334.807C190.993 334.807 207.612 274.835 207.447 266.696C207.282 258.557 197.846 256.161 197.846 256.161C197.846 256.161 179.668 266.696 160.359 270.034Z" fill="#263238"/>
<path opacity="0.2" d="M184.184 263.325C187.69 261.911 191.134 260.352 194.509 258.651C200.363 255.699 207.561 259.497 208.111 266.03C208.129 266.248 208.142 266.47 208.147 266.696C208.229 270.001 205.279 282.395 201.057 295.872C201.166 295.074 201.318 294.282 201.511 293.501C205.7 276.67 207.799 267.928 205.7 263.854C204.289 261.324 202.047 259.357 199.355 258.285L176.467 269.439C163.858 269.993 161.974 270.018 161.751 270.018C169.44 268.572 176.959 266.329 184.184 263.325Z" fill="black"/>
<path d="M192.192 331.404C192.22 331.04 191.908 330.739 191.543 330.739H189.389C188.845 330.726 188.254 331.696 187.922 332.127C186.491 333.986 185.467 333.246 184.002 331.43C183.047 331.295 182.762 332.389 182.676 332.682L180.722 339.173C180.553 339.716 180.855 340.292 181.397 340.461C181.493 340.491 181.594 340.507 181.695 340.508C184.613 340.578 185.994 340.612 189.626 340.699L200.733 340.968C203.761 341.04 204.463 338.004 203.222 337.692C197.643 336.317 193.711 334.57 192.017 332.897C191.78 332.675 192.14 332.07 192.192 331.404Z" fill="#34444C"/>
<path d="M193.148 333.59C192.318 333.683 191.538 334.159 191.076 334.855" stroke="white" stroke-width="0.5" stroke-miterlimit="10" stroke-linecap="round" stroke-linejoin="round"/>
<path d="M194.708 334.559C193.877 334.652 193.098 335.128 192.636 335.825" stroke="white" stroke-width="0.5" stroke-miterlimit="10" stroke-linecap="round" stroke-linejoin="round"/>
<path d="M196.636 335.549C195.805 335.642 195.025 336.118 194.563 336.814" stroke="white" stroke-width="0.5" stroke-miterlimit="10" stroke-linecap="round" stroke-linejoin="round"/>
<path d="M231.253 313.807L228.991 314.622C228.48 314.806 228.1 315.236 227.946 315.757C227.284 318.008 226.061 317.688 224.039 316.525C223.1 316.745 223.23 317.868 223.257 318.172L223.782 324.931C223.821 325.497 224.311 325.925 224.878 325.887C224.978 325.88 225.078 325.859 225.172 325.823C227.919 324.833 229.218 324.365 232.636 323.132L243.089 319.365C245.939 318.338 245.494 315.254 244.224 315.41C238.526 316.147 234.229 315.941 232.044 314.993C231.644 314.835 231.881 314.521 231.253 313.807Z" fill="#34444C"/>
<path d="M233.452 315.289C232.711 315.676 232.156 316.402 231.977 317.218" stroke="white" stroke-width="0.5" stroke-miterlimit="10" stroke-linecap="round" stroke-linejoin="round"/>
<path d="M235.238 315.538C234.498 315.925 233.943 316.65 233.764 317.467" stroke="white" stroke-width="0.5" stroke-miterlimit="10" stroke-linecap="round" stroke-linejoin="round"/>
<path d="M237.308 315.797C236.567 316.184 236.012 316.909 235.833 317.726" stroke="white" stroke-width="0.5" stroke-miterlimit="10" stroke-linecap="round" stroke-linejoin="round"/>
<path d="M179.041 243.044L175.79 243.357C175.79 243.357 175.522 241.122 175.25 239.469C175.013 237.796 173.174 232.17 172.724 230.542C163.422 231.465 147.643 230.906 147.643 230.906C147.643 230.906 133.403 257.244 143.524 267.54C149.606 273.712 167.519 270.099 180.782 264.676L179.041 243.044Z" fill="#263238"/>
<path opacity="0.3" d="M175.79 242.462L161.528 245.436C161.528 245.436 169.333 241.203 175.25 239.484C175.522 241.17 175.79 242.462 175.79 242.462Z" fill="black"/>
<path d="M196.707 208.938C196.785 207.682 193.069 214.866 193.069 214.866L186.794 210.436L191.79 205.411C191.79 205.411 196.862 208.723 196.785 208.83" fill="#CCCCCC"/>
<path d="M171.518 192.675C174.879 194.322 177.429 197.253 178.616 200.804C180.744 207.172 181.668 214.821 181.668 214.821L189.596 207.76L195.502 212.147C195.502 212.147 187.745 223.902 182.525 228.486C178.19 232.292 173.277 224.909 173.277 224.909L171.142 192.49L171.518 192.675Z" fill="white"/>
<path opacity="0.2" d="M156.194 234.765L154.489 261.493L139.202 259.671V256.924L156.194 234.765Z" fill="black"/>
<path d="M148.799 235.433C148.201 228.652 145.793 216.226 141.647 203.176C140.298 198.932 145.118 194.241 145.118 194.241C145.118 194.241 148.229 193.995 148.799 193.932C149.424 193.858 150.066 193.795 150.709 193.74C155.552 193.339 159.517 193.046 163.835 193.293C164.921 193.357 166.035 193.449 167.13 193.539C167.483 193.576 169.775 193.611 170.119 193.647C170.119 193.647 176.327 200.912 176.662 206.041C176.843 208.906 178.228 210.139 178.074 216.993C178.047 221.647 174.669 228.428 174.361 234.971L148.799 235.433Z" fill="white"/>
<path d="M157.262 212.648C156.937 202.007 155.68 195.25 155.109 192.667C154.959 191.988 154.319 191.539 153.629 191.624L149.518 192.49C145.491 193.563 143.332 192.983 141.091 195.976C140.657 196.556 140.293 201.012 140.326 201.623C140.38 202.719 141.141 206.077 142.154 210.129C142.851 212.939 143.675 216.097 144.463 219.072C145.473 222.865 146.316 223.852 146.642 225.068L136.215 255.826C135.921 256.649 136.476 257.529 137.344 257.619L152.309 259.183C153.041 259.26 153.699 258.738 153.787 258.007C154.533 251.761 157.637 224.879 157.262 212.648Z" fill="white"/>
<path d="M176.927 233.496C176.927 233.496 180.068 214.036 179.233 209.166C178.397 204.296 171.141 192.49 171.141 192.49L167.828 192.262L163.908 190.672C163.908 190.672 172.958 201.592 175.18 209.47C176.642 214.651 173.727 231.027 174.064 234.977L175.748 243.154L179.911 242.968L176.927 233.496Z" fill="white"/>
<path d="M154.55 189.946C154.55 189.946 158.62 197.98 157.081 218.197L150.318 203.664L152.765 199.693L149.517 193.202C149.517 193.202 152.992 190.966 154.452 189.785L154.55 189.946Z" fill="white"/>
<g opacity="0.2">
<path d="M154.55 189.946C154.55 189.946 158.62 197.98 157.081 218.197L150.318 203.664L152.765 199.693L149.517 193.202C149.517 193.202 152.992 190.966 154.452 189.785L154.55 189.946Z" fill="#CCCCCC"/>
</g>
<path d="M175.391 218.315C175.391 218.315 176.905 213.857 176.628 209.742C176.352 205.627 176.287 202.557 176.287 202.557L171.619 199.107L172.233 194.901C172.233 194.901 169.982 193.519 167.891 192.103C166.461 191.135 163.658 189.671 163.29 189.784C163.29 189.784 175.212 204.871 175.272 211.044C175.33 216.999 175.391 218.315 175.391 218.315Z" fill="white"/>
<path opacity="0.3" d="M175.391 218.315C175.391 218.315 176.905 213.857 176.628 209.742C176.352 205.627 176.287 202.557 176.287 202.557L171.619 199.107L172.233 194.901C172.233 194.901 169.982 193.519 167.891 192.103C166.461 191.135 163.658 189.671 163.29 189.784C163.29 189.784 175.212 204.871 175.272 211.044C175.33 216.999 175.391 218.315 175.391 218.315Z" fill="#F5F5F5"/>
<path opacity="0.3" d="M177.683 228.66L179.309 213.651L179.911 229.147C179.911 229.147 178.35 229.069 177.683 228.66Z" fill="black"/>
<path d="M166.299 193.808L163.094 189.404L161.568 192.025L155.239 188.213L154.453 189.785L156.701 196.38C156.701 196.38 162.32 198.679 162.617 198.679C162.915 198.679 166.299 193.808 166.299 193.808Z" fill="white"/>
<path opacity="0.3" d="M166.447 194.014L165.135 197.259L161.874 194.014L159.654 197.825L156.339 196.201L159.872 198.999L161.917 194.824L165.657 198.347L166.447 194.014Z" fill="black"/>
<path opacity="0.3" d="M148.977 224.656L147.698 210.322L146.714 225.932L161.528 231.955L148.977 224.656Z" fill="black"/>
<path d="M143.114 194.014C143.114 194.014 138.41 195.169 137.506 200.306C136.601 205.444 135.403 231.127 136.426 232.753C137.448 234.379 166.072 243.584 166.072 243.584L169.136 235.635L147.514 225.175C147.514 225.175 147.69 217.836 147.866 212.118C147.96 209.094 148.053 206.524 148.12 205.731C148.315 203.438 143.114 194.014 143.114 194.014Z" fill="white"/>
<path d="M169.029 236.131C169.029 236.131 178.026 238.291 180.113 240.088C181.039 240.885 181.013 242.19 181.013 242.19L166.442 242.839L169.029 236.131Z" fill="#CCCCCC"/>
<path opacity="0.3" d="M143.032 235.717C143.32 235.825 155.697 240.231 155.697 240.231V241.784L142.399 237.583L143.032 235.717Z" fill="black"/>
<path opacity="0.2" d="M161.917 194.824C168.659 206.582 168.286 221.872 168.659 234.856" stroke="black" stroke-width="0.5" stroke-miterlimit="10" stroke-linecap="round" stroke-linejoin="round"/>
<path d="M192.12 206.147C192.12 206.147 190.898 204.202 191.343 202.356C191.787 200.509 191.65 198.917 192.076 197.567C192.501 196.218 193.258 197.971 193.471 198.986C193.685 200 193.937 201.149 194.673 200.865C195.409 200.581 199.686 195.316 200.752 195.038C201.817 194.761 201.391 195.829 201.391 195.829C201.391 195.829 202.465 194.578 203.076 194.869C203.235 194.944 203.482 195.377 203.082 196.024C202.182 197.479 200.138 200.435 200.138 200.435C200.251 200.263 203.036 196.794 203.521 196.329C204.155 195.722 204.763 195.758 205.104 196.137C205.589 196.676 202.283 201.094 202.274 201.378C202.274 201.378 204.092 198.771 205.022 198.872C205.952 198.972 204.897 200.677 203.681 202.002C202.567 203.217 200.699 205.893 199.446 207.018C197.903 208.405 196.555 208.989 194.772 208.209C192.989 207.428 192.12 206.147 192.12 206.147Z" fill="#CCCCCC"/>
<path opacity="0.3" d="M201.219 195.965C200.384 196.989 199.596 198.051 198.857 199.147" stroke="black" stroke-width="0.5" stroke-miterlimit="10" stroke-linecap="round" stroke-linejoin="round"/>
<path opacity="0.3" d="M201.603 202.414C200.61 201.026 199.199 199.94 197.604 199.335" stroke="black" stroke-width="0.5" stroke-miterlimit="10" stroke-linecap="round" stroke-linejoin="round"/>
<path opacity="0.3" d="M194.888 201.688C195.356 202.203 195.637 202.883 195.669 203.578C195.701 204.273 195.483 204.977 195.064 205.532" stroke="black" stroke-width="0.5" stroke-miterlimit="10" stroke-linecap="round" stroke-linejoin="round"/>
<path d="M205.456 242.437H182.116C181.713 242.434 181.389 242.171 181.392 241.847C181.393 241.787 181.405 241.726 181.429 241.669L191.813 217.864C192.075 217.183 192.857 216.719 193.744 216.716H217.099C217.493 216.716 217.814 216.974 217.814 217.29C217.814 217.357 217.799 217.423 217.771 217.485L207.388 241.29C207.121 241.967 206.342 242.431 205.456 242.437Z" fill="#263238"/>
<path opacity="0.7" d="M217.099 216.715H193.744C192.857 216.718 192.075 217.183 191.813 217.863L181.429 241.668C181.406 241.726 181.393 241.787 181.392 241.847C181.389 242.171 181.713 242.435 182.116 242.437H205.456C206.342 242.43 207.121 241.967 207.387 241.29L217.771 217.485C217.799 217.423 217.813 217.356 217.813 217.29C217.814 216.973 217.493 216.715 217.099 216.715Z" fill="white"/>
<path d="M202.634 230.106C202.129 231.249 201.107 232.033 200.345 231.873C199.583 231.714 199.379 230.673 199.869 229.527C200.358 228.382 201.393 227.615 202.155 227.774C202.917 227.935 203.144 228.934 202.634 230.106Z" fill="white"/>
<path opacity="0.3" d="M193.882 216.715H193.744C192.857 216.718 192.075 217.183 191.813 217.863L181.429 241.668C181.406 241.726 181.393 241.787 181.392 241.847C181.389 242.171 181.713 242.435 182.116 242.437H182.863L193.882 216.715Z" fill="black"/>
<path d="M163.182 242.646V244.573L181.777 242.677L182.056 240.231L163.182 242.646Z" fill="#263238"/>
<path opacity="0.7" d="M163.182 242.646V244.573L181.777 242.677L182.056 240.231L163.182 242.646Z" fill="white"/>
<path opacity="0.3" d="M112.513 119.22H126.173C127.875 119.22 129.254 117.84 129.254 116.138V106.72C129.254 106.72 117.594 114.185 112.513 119.22Z" fill="black"/>
<path opacity="0.2" d="M268.366 160.409C268.366 160.409 266.599 161.318 266.603 163.364C266.609 165.41 269.176 168.907 269.041 170.064C268.906 171.221 268.771 174.703 269.987 176.206C271.204 177.709 277.364 178.953 277.358 178.909C277.353 178.865 276.67 174.602 275.827 170.063C274.986 165.525 268.366 160.409 268.366 160.409Z" fill="black"/>
<path d="M192.146 141.843C194.778 138.713 204.768 136.618 210.284 141.563C210.284 141.563 208.383 138.627 210.284 136.118C210.284 136.118 207.775 137.748 205.533 136.118C203.291 134.489 202.754 126.347 202.754 126.347C202.754 126.347 202.227 134.617 198.54 135.373C194.854 136.128 192.493 130.884 192.493 130.884C192.493 130.884 194.498 136.636 193.495 137.535C192.493 138.432 190.488 137.535 190.488 137.535L192.146 141.843Z" fill="#BA8132"/>
<path d="M184.898 149.819C184.898 149.819 181.268 156.864 184.898 163.164C183.376 162.191 181.488 161.984 179.791 162.603C179.791 162.603 181.217 161.097 181.012 159.501C180.808 157.905 174.248 155.649 174.248 155.649C174.248 155.649 179.416 156.123 180.542 154.333C181.667 152.542 177.692 149.074 177.692 149.074C177.692 149.074 182.038 151.421 182.979 150.67C183.92 149.919 182.979 147.568 182.979 147.568L184.898 149.819Z" fill="#BA8132"/>
<path d="M217.368 164.008C217.368 164.008 221.035 158.925 218.118 151.205L220.636 149.695C220.636 149.695 219.686 151.305 220.26 152.327C220.835 153.348 226.18 152.641 226.18 152.641C226.18 152.641 221.952 153.491 221.767 155.724C221.581 157.956 227.026 161.22 227.026 161.22C227.026 161.22 222.047 159.976 221.016 161.22C219.985 162.465 222.189 164.878 222.189 164.878C222.189 164.878 219.72 163.105 217.368 164.008Z" fill="#BA8132"/>
<path d="M207.409 180.849C207.409 182.772 204.735 184.314 201.483 184.263C198.231 184.21 195.621 182.639 195.643 180.716C195.667 178.793 198.318 177.251 201.563 177.309C204.81 177.365 207.432 178.931 207.409 180.849Z" fill="#263238"/>
<path d="M209.95 174.507C210.269 174.204 210.461 173.791 210.487 173.352C210.487 171.469 206.519 169.887 201.575 169.84C196.632 169.794 192.605 171.267 192.583 173.15C192.602 173.586 192.785 173.998 193.097 174.305C193.004 174.483 192.95 174.68 192.941 174.883C192.953 175.323 193.143 175.739 193.466 176.038C193.361 176.225 193.304 176.435 193.299 176.65C193.312 177.094 193.509 177.512 193.842 177.805C193.725 177.992 193.661 178.208 193.657 178.429C193.685 178.867 193.894 179.273 194.234 179.549C194.113 179.737 194.044 179.954 194.038 180.179C194.038 181.744 197.336 183.067 201.449 183.101C205.561 183.136 208.906 181.946 208.923 180.347C208.922 180.122 208.858 179.901 208.738 179.711C209.077 179.439 209.287 179.036 209.316 178.602C209.313 178.383 209.256 178.169 209.148 177.978C209.483 177.697 209.69 177.293 209.726 176.858C209.725 176.642 209.671 176.431 209.57 176.24C209.904 175.956 210.112 175.551 210.147 175.114C210.128 174.899 210.062 174.691 209.95 174.507Z" fill="#263238"/>
<path d="M209.95 174.507C210.269 174.204 210.461 173.791 210.487 173.352C210.487 171.469 206.519 169.887 201.575 169.84C196.632 169.794 192.605 171.267 192.583 173.15C192.602 173.586 192.785 173.998 193.097 174.305C193.004 174.483 192.95 174.68 192.941 174.883C192.953 175.323 193.143 175.739 193.466 176.038C193.361 176.225 193.304 176.435 193.299 176.65C193.312 177.094 193.509 177.512 193.842 177.805C193.725 177.992 193.661 178.208 193.657 178.429C193.685 178.867 193.894 179.273 194.234 179.549C194.113 179.737 194.044 179.954 194.038 180.179C194.038 181.744 197.336 183.067 201.449 183.101C205.561 183.136 208.906 181.946 208.923 180.347C208.922 180.122 208.858 179.901 208.738 179.711C209.077 179.439 209.287 179.036 209.316 178.602C209.313 178.383 209.256 178.169 209.148 177.978C209.483 177.697 209.69 177.293 209.726 176.858C209.725 176.642 209.671 176.431 209.57 176.24C209.904 175.956 210.112 175.551 210.147 175.114C210.128 174.899 210.062 174.691 209.95 174.507Z" fill="#455A64"/>
<path d="M217.367 157.872C217.47 149.123 210.461 141.947 201.711 141.845C192.962 141.742 185.785 148.751 185.682 157.5C185.626 162.249 187.703 166.771 191.34 169.823C192.01 170.375 192.361 171.223 192.276 172.087C192.273 172.129 192.273 172.172 192.276 172.214C192.276 174.126 196.319 175.726 201.332 175.784C206.346 175.841 210.441 174.334 210.464 172.416C210.464 172.376 210.464 172.335 210.464 172.295C210.386 171.414 210.757 170.552 211.451 170.003C215.138 167.046 217.308 162.596 217.367 157.872Z" fill="#FFAD3A"/>
<path opacity="0.2" d="M209.587 148.671C209.587 151.755 205.977 154.263 201.5 154.263C197.024 154.263 193.414 151.755 193.414 148.671C193.414 145.587 197.024 143.075 201.5 143.075C205.977 143.075 209.587 145.582 209.587 148.671Z" fill="white"/>
<path d="M189.453 163.708C188.074 161.344 187.526 158.506 187.926 155.799C188.326 153.092 189.67 150.534 191.673 148.668" stroke="white" stroke-width="0.5" stroke-miterlimit="10" stroke-linecap="round" stroke-linejoin="round"/>
<path d="M194.208 179.586C198.798 181.474 204.047 181.537 208.682 179.762C204.148 181.771 198.691 181.704 194.208 179.586Z" fill="#263238"/>
<path d="M194.1 177.886C198.69 179.774 203.939 179.837 208.574 178.062C204.041 180.071 198.584 180.004 194.1 177.886Z" fill="#263238"/>
<path d="M193.993 176.185C198.583 178.074 203.832 178.136 208.466 176.361C203.933 178.371 198.476 178.303 193.993 176.185Z" fill="#263238"/>
<path d="M198.098 172.426C199.313 168.289 199.527 163.776 198.709 159.514C198.577 158.826 198.266 157.996 197.648 157.981C197.095 157.967 196.732 158.646 196.613 159.262C196.191 161.44 197.319 163.652 198.764 165.155C199.546 165.969 200.493 166.679 201.551 166.731C202.613 166.783 203.626 166.155 204.395 165.318C205.865 163.717 206.598 161.209 206.065 158.971C205.84 158.025 205.169 157.008 204.324 157.188C203.815 157.297 203.443 157.835 203.311 158.406C203.18 158.977 203.245 159.581 203.319 160.165C203.857 164.377 204.885 168.507 206.368 172.413" stroke="#263238" stroke-width="0.5" stroke-miterlimit="10" stroke-linecap="round" stroke-linejoin="round"/>
<path d="M86.8446 239.131C75.9589 251.865 72.7793 270.713 78.8864 286.313C85.6714 280.258 90.4492 271.027 90.7514 262.953C91.0536 254.879 88.9404 246.933 86.8446 239.131Z" fill="white"/>
<path d="M84.9458 287.784C81.2518 293.444 79.484 300.336 79.9968 307.075C85.882 305.026 91.0696 298.379 94.1795 292.979C97.2895 287.58 99.0286 281.515 100.612 275.488C94.2363 277.732 88.639 282.125 84.9458 287.784Z" fill="white"/>
<path d="M83.5302 261.352C79.156 277.085 76.9247 293.398 76.9406 309.729C76.9451 314.361 77.1337 318.991 77.495 323.608C77.523 323.97 78.0919 323.973 78.0631 323.608C76.7898 307.317 77.7366 290.873 80.9042 274.841C81.7904 270.356 82.8538 265.908 84.0778 261.504C84.1755 261.15 83.6279 260.999 83.5302 261.352Z" fill="#263238"/>
<path d="M77.7351 312.415C82.2039 301.784 88.0747 291.828 94.8597 282.517C95.0756 282.221 94.5825 281.937 94.3689 282.23C87.5521 291.584 81.6767 301.584 77.1875 312.263C77.0459 312.6 77.595 312.747 77.7351 312.415Z" fill="#263238"/>
<path d="M71.3409 296.603C74.4206 301.322 75.8953 307.069 75.4674 312.688C70.56 310.98 66.2344 305.437 63.641 300.934C61.0475 296.432 59.5971 291.375 58.2776 286.35C63.594 288.22 68.2605 291.884 71.3409 296.603Z" fill="white"/>
<path d="M77.6018 316.396C73.9313 307.672 69.0906 299.588 63.5236 291.948C63.31 291.656 62.8169 291.939 63.0327 292.235C68.568 299.831 73.4042 307.872 77.0534 316.547C77.1935 316.879 77.7442 316.733 77.6018 316.396Z" fill="#263238"/>
<path d="M77.7586 319.35C84.6837 312.226 91.7535 305.246 98.6786 298.121C98.9339 297.859 98.5324 297.457 98.2772 297.72C91.3521 304.844 84.2823 311.825 77.3572 318.949C77.1019 319.211 77.5033 319.613 77.7586 319.35Z" fill="#263238"/>
<path d="M98.896 294.806C92.8881 300.6 87.4142 306.948 82.5667 313.742H83.6657C88.2383 313.527 92.6776 311.272 95.5459 307.704C98.4143 304.137 99.6678 299.318 98.896 294.806Z" fill="white"/>
<path d="M70.4055 281.019C72.9853 285.238 75.4159 289.545 77.6927 293.934C77.8608 294.259 78.3517 293.972 78.1835 293.647C75.9067 289.258 73.4761 284.951 70.8963 280.732C70.7055 280.42 70.2139 280.705 70.4055 281.019Z" fill="#263238"/>
<path d="M64.2363 259.689C63.2524 264.114 62.2768 269.868 62.267 274.476C62.2571 279.084 63.6629 283.58 66.2813 286.668C68.8998 289.755 74.1851 291.108 76.3165 289.341L64.2363 259.689Z" fill="white"/>
<path d="M90.3462 321.365H64.1015V326.229H90.3462V321.365Z" fill="#263238"/>
<path d="M86.0955 343.556H69.7988L66.8373 325.114H88.4352L86.0955 343.556Z" fill="#263238"/>
<path opacity="0.2" d="M67.0312 326.32H88.2822L88.0179 328.407H67.366L67.0312 326.32Z" fill="black"/>
<path d="M304.768 145.309C302.226 145.819 301.218 147.861 298.668 153.188C295.454 159.903 290.769 172.008 289.708 172.11C288.216 172.252 269.142 164.819 269.142 164.819L266.175 168.171C266.175 168.171 276.165 181.53 291.979 185.771C294.82 186.533 298.406 183.315 301.826 178.915C302.496 178.06 303.15 177.156 303.803 176.225C307.322 171.009 310.478 165.557 313.249 159.908L304.768 145.309Z" fill="white"/>
<path opacity="0.2" d="M303.966 153.828C303.229 157.086 301.502 161.977 300.14 165.448C299.699 166.571 299.505 167.789 299.71 168.978C300.298 172.404 301.105 175.286 302.089 178.016C302.64 179.616 305.112 179.501 305.189 181.191C305.859 180.336 306.513 179.431 307.166 178.501L308.624 172.735L303.966 153.828Z" fill="black"/>
<path d="M292.875 174.724C293.766 174.471 294.283 173.545 294.031 172.654L287.654 145.837C287.275 144.566 286.13 143.677 284.804 143.624L264.364 143.197C264.142 143.17 263.917 143.187 263.702 143.248C262.811 143.5 262.294 144.427 262.546 145.317L268.923 172.135C269.301 173.407 270.446 174.299 271.773 174.355L292.213 174.774C292.434 174.802 292.66 174.785 292.875 174.724Z" fill="#263238"/>
<path opacity="0.2" d="M292.875 174.724C293.766 174.471 294.283 173.545 294.031 172.654L287.654 145.837C287.275 144.566 286.13 143.677 284.804 143.624L264.364 143.197C264.142 143.17 263.917 143.187 263.702 143.248C262.811 143.5 262.294 144.427 262.546 145.317L268.923 172.135C269.301 173.407 270.446 174.299 271.773 174.355L292.213 174.774C292.434 174.802 292.66 174.785 292.875 174.724Z" fill="white"/>
<path d="M290.779 174.681C291.669 174.43 292.188 173.503 291.936 172.613L285.559 145.795C285.179 144.527 284.04 143.637 282.718 143.574L262.269 143.156C262.047 143.128 261.822 143.146 261.607 143.206C260.716 143.459 260.199 144.385 260.451 145.276L266.837 172.093C267.216 173.362 268.355 174.252 269.678 174.314L290.126 174.733C290.345 174.758 290.567 174.741 290.779 174.681Z" fill="#263238"/>
<path opacity="0.3" d="M290.779 174.681C291.669 174.43 292.188 173.503 291.936 172.613L285.559 145.795C285.179 144.527 284.04 143.637 282.718 143.574L262.269 143.156C262.047 143.128 261.822 143.146 261.607 143.206C260.716 143.459 260.199 144.385 260.451 145.276L266.837 172.093C267.216 173.362 268.355 174.252 269.678 174.314L290.126 174.733C290.345 174.758 290.567 174.741 290.779 174.681Z" fill="white"/>
<path opacity="0.2" d="M273.544 156.994C273.625 156.148 274.376 155.527 275.222 155.608C276.42 155.674 277.444 156.497 277.763 157.653C277.82 157.845 277.839 158.045 277.819 158.244C277.734 159.083 276.985 159.695 276.146 159.609C274.948 159.545 273.923 158.724 273.599 157.569C273.544 157.383 273.526 157.188 273.544 156.994Z" fill="white"/>
<path d="M265.42 160.151C265.822 160.117 267.532 160.963 268.336 160.402C269.141 159.841 268.386 159.38 268.386 159.38C266.912 159.019 265.294 157.176 264.397 157.703C263.5 158.231 262.017 158.893 262.234 159.732C262.481 160.507 262.778 161.266 263.123 162.003C262.889 162.377 262.858 162.843 263.039 163.244C263.223 163.708 263.63 164.045 264.12 164.141C263.839 164.425 263.693 164.815 263.718 165.213C263.784 165.85 265.46 166.688 265.46 166.688C265.46 166.688 265.133 167.685 265.519 168.071C266.173 168.61 267.043 168.808 267.865 168.607C268.846 168.373 269.516 168.038 269.449 167.049C269.382 166.059 267.614 166.059 267.614 166.059C267.614 166.059 270.933 165.053 270.228 164.425C269.525 163.796 266.876 163.872 266.876 163.872C266.876 163.872 271.368 162.983 270.656 162.062C269.943 161.14 265.468 161.391 265.468 161.391C265.468 161.391 265.018 160.184 265.42 160.151Z" fill="#CCCCCC"/>
<path d="M303.611 319.246L305.522 335.519L299.684 336.326L293.545 321.034L303.611 319.246Z" fill="#CCCCCC"/>
<path d="M295.049 332.343C294.957 331.35 295.028 330.521 296.19 330.461L297.835 330.376C298.457 330.376 298.901 330.757 299.4 331.075C303.171 333.482 304.718 330.375 306.182 330.376C308.062 330.375 306.852 335.889 306.941 336.178L308.996 342.577C309.175 343.112 308.814 344.265 308.19 344.418C308.078 344.445 307.963 344.458 307.848 344.456C304.51 344.456 302.93 344.456 298.776 344.456H286.068C282.605 344.456 282.565 340.565 283.992 340.289C290.408 339.075 292.939 337.149 295.053 335.741C295.053 335.741 295.19 333.87 295.049 332.343Z" fill="#34444C"/>
<path opacity="0.4" d="M286.068 344.457H298.776C302.931 344.457 304.51 344.457 307.848 344.457C307.963 344.458 308.079 344.446 308.19 344.418C308.614 344.315 308.911 343.75 309.005 343.231L308.996 342.744H283.287C283.629 343.649 284.491 344.457 286.068 344.457Z" fill="white"/>
<path d="M291.651 338.098C291.916 338.323 292.161 338.569 292.381 338.838C292.408 338.869 292.434 338.902 292.459 338.935C292.44 338.911 292.455 338.929 292.465 338.942C292.478 338.96 292.492 338.978 292.506 338.997C292.557 339.067 292.607 339.138 292.656 339.21C292.752 339.353 292.84 339.502 292.922 339.653C292.993 339.784 293.185 339.837 293.311 339.756C293.444 339.67 293.488 339.507 293.412 339.367C293.07 338.732 292.603 338.163 292.051 337.698C291.938 337.602 291.76 337.578 291.65 337.698C291.554 337.802 291.529 337.996 291.651 338.098Z" fill="#263238"/>
<path d="M293.653 336.983C293.896 337.196 294.124 337.427 294.332 337.675C294.357 337.705 294.382 337.735 294.406 337.766C294.417 337.779 294.428 337.793 294.439 337.807C294.451 337.822 294.474 337.853 294.45 337.821C294.497 337.883 294.543 337.945 294.588 338.009C294.682 338.142 294.77 338.279 294.854 338.42C294.929 338.548 295.113 338.606 295.242 338.522C295.371 338.438 295.425 338.27 295.345 338.133C295.001 337.552 294.563 337.027 294.055 336.582C293.943 336.484 293.762 336.464 293.654 336.582C293.555 336.69 293.534 336.879 293.653 336.983Z" fill="#263238"/>
<path d="M295.133 336.059C295.25 336.117 295.362 336.184 295.469 336.258C295.495 336.276 295.521 336.296 295.547 336.315C295.575 336.337 295.498 336.277 295.538 336.309C295.551 336.32 295.565 336.33 295.579 336.342C295.628 336.383 295.675 336.426 295.722 336.47C295.767 336.514 295.811 336.56 295.853 336.608C295.872 336.629 295.891 336.651 295.91 336.674C295.92 336.686 295.931 336.702 295.942 336.714C295.935 336.704 295.927 336.693 295.919 336.683C295.925 336.693 295.932 336.702 295.939 336.711C296.014 336.811 296.08 336.917 296.138 337.029C296.206 337.161 296.402 337.211 296.526 337.13C296.661 337.044 296.702 336.883 296.628 336.742C296.365 336.237 295.927 335.822 295.42 335.568C295.288 335.501 295.107 335.528 295.032 335.669C294.963 335.799 294.991 335.987 295.133 336.059Z" fill="#263238"/>
<path d="M295.278 334.064C295.426 334.066 295.575 334.073 295.722 334.088C295.844 334.101 295.944 334.115 296.086 334.142C296.366 334.196 296.639 334.275 296.905 334.376C297.044 334.429 297.222 334.318 297.254 334.178C297.291 334.016 297.205 333.886 297.056 333.829C296.489 333.613 295.883 333.504 295.277 333.497C295.129 333.495 294.986 333.629 294.993 333.781C295.001 333.936 295.118 334.063 295.278 334.064Z" fill="#263238"/>
<g opacity="0.3">
<path d="M301.411 334.27C301.444 334.841 301.664 335.469 302.217 335.734C302.56 335.898 302.966 335.891 303.352 335.881C304.508 335.851 305.664 335.82 306.819 335.789L306.834 335.759C307.016 334.253 307.506 330.578 306.073 330.579C304.946 330.578 303.762 332.688 301.404 332.072C301.423 332.869 301.388 333.885 301.411 334.27Z" fill="black"/>
</g>
<path d="M285.58 268.704C286.619 259.293 299.733 209.346 299.733 209.346L316.405 208.941L342.056 208.216C342.056 208.216 343.538 221.603 343.557 239.136C343.557 239.136 342.315 313.993 341.3 331.809L327.212 332.353C325.611 318.354 323.491 274.676 323.491 274.676C322.525 266.763 321.654 243.404 320.962 236.734C320.674 235.258 320.392 233.77 320.117 232.288C317.381 239.523 304.824 270.473 303.855 274.911L309.007 333.779L293.855 333.2C293.854 333.202 284.541 278.115 285.58 268.704Z" fill="#263238"/>
<path d="M308.549 211.287C307.005 216.091 302.876 219.95 297.783 221.353C297.509 221.429 297.626 221.836 297.902 221.76C303.145 220.315 307.39 216.344 308.979 211.399C309.063 211.139 308.633 211.028 308.549 211.287Z" fill="black"/>
<path d="M321.327 211.99C321.026 216.193 320.733 220.403 320.432 224.606C320.418 224.877 319.974 224.877 319.988 224.606C320.146 222.45 320.296 220.288 320.446 218.125C319.35 218.924 318.069 217.955 317.71 216.884C317.123 215.149 317.345 213.088 317.804 211.352C317.876 211.088 318.305 211.203 318.233 211.461C317.91 212.681 317.775 213.928 317.868 215.183C317.911 215.82 317.976 216.552 318.291 217.135C318.641 217.786 319.53 218.335 320.239 217.746C320.318 217.685 320.403 217.678 320.475 217.712C320.611 215.807 320.747 213.895 320.883 211.99C320.897 211.719 321.341 211.719 321.327 211.99Z" fill="black"/>
<path d="M331.777 211.216C331.714 216.788 336.245 221.454 342.105 221.892C342.386 221.913 342.384 221.498 342.105 221.478C336.482 221.057 332.155 216.548 332.214 211.216C332.218 210.95 331.78 210.949 331.777 211.216Z" fill="black"/>
<path d="M329.651 320.035L332.133 336.736L338.066 337.011L339.987 320.91L329.651 320.035Z" fill="#263238"/>
<path d="M343.118 344.49H329.847C329.847 344.49 329.557 343.979 329.888 342.617C329.939 342.405 330.005 342.172 330.091 341.918C330.095 341.905 330.098 341.893 330.103 341.88C330.227 341.504 330.369 341.04 330.521 340.539C331.129 338.501 331.543 333.812 331.543 333.812C331.543 333.812 334.052 331.501 336.635 332.584C338.902 333.534 338.549 334.738 338.549 334.738C338.549 334.738 338.586 337.848 340.304 339.256C341.367 340.125 342.424 340.799 342.932 341.88C343.027 342.082 343.102 342.297 343.155 342.531C343.161 342.559 343.168 342.588 343.172 342.618C343.277 343.139 343.271 343.75 343.118 344.49Z" fill="#34444C"/>
<path opacity="0.4" d="M329.888 342.618C329.557 343.979 329.846 344.491 329.846 344.491H343.117C343.27 343.751 343.277 343.14 343.171 342.618H329.888Z" fill="#34444C"/>
<path d="M337.829 336.936C337.083 336.402 336.104 336.471 335.432 337.072C335.252 337.233 334.974 336.98 335.155 336.818C335.992 336.068 337.189 336.026 338.106 336.681C338.305 336.824 338.025 337.076 337.829 336.936Z" fill="#263238"/>
<path d="M338.203 338.073C337.457 337.539 336.477 337.608 335.806 338.209C335.626 338.37 335.349 338.117 335.529 337.955C336.367 337.205 337.563 337.164 338.48 337.819C338.679 337.96 338.4 338.213 338.203 338.073Z" fill="#263238"/>
<path d="M338.58 339.118C337.833 338.584 336.854 338.654 336.183 339.254C336.002 339.416 335.725 339.162 335.905 339C336.743 338.251 337.94 338.209 338.856 338.864C339.055 339.006 338.777 339.258 338.58 339.118Z" fill="#263238"/>
<path d="M299.844 205.451C297.48 209.332 297.48 212.45 299.733 213.245C299.733 213.245 320.205 216.716 341.147 214.337C346.189 214.615 343.721 209.941 343.721 209.941L343.833 145.309C327.92 141.931 308.666 145.053 304.768 145.309L299.844 205.451Z" fill="white"/>
<path opacity="0.2" d="M343.767 182.89V161.513C343.767 161.513 346.901 183.423 345.323 188.858L343.767 182.89Z" fill="black"/>
<path d="M314.847 116.715C314.847 116.715 307.116 112.361 311.705 107.691C315.325 104.007 318.527 104.544 323.37 105.426C335.237 107.587 334.547 112.532 334.547 112.532L314.847 116.715Z" fill="#263238"/>
<path d="M329.96 141.615C329.96 141.615 329.325 137.063 331.99 129.173C331.99 129.164 331.577 128.959 331.577 128.951C331.946 127.847 332.33 126.829 332.69 125.948C332.698 125.922 332.698 125.914 332.698 125.914L321.473 132.193C321.619 134.76 320.486 139.659 319.849 141.719C319.849 141.719 318.304 145.436 323.321 145.82C326.986 146.1 329.96 141.615 329.96 141.615Z" fill="#CCCCCC"/>
<path opacity="0.2" d="M321.129 135.777L327.482 134.633C326.826 136.564 324.994 138.809 320.607 138.807C320.607 138.807 321.139 136.636 321.129 135.777Z" fill="black"/>
<path d="M333.013 120.606C331.975 127.504 331.528 131.416 327.706 134.634C321.958 139.474 313.857 135.636 312.811 128.546C311.871 122.164 313.727 111.955 320.768 109.862C327.705 107.798 334.052 113.708 333.013 120.606Z" fill="#CCCCCC"/>
<path d="M334.63 112.344C326.161 104.188 317.546 108.763 314.248 113.235L329.023 113.41C329.669 113.399 330.035 114.071 329.895 115.301C329.895 115.301 324.773 124.487 331.834 129.643C334.36 128.676 334.874 124.474 335.859 122.032C337.326 118.392 339.18 113.037 334.63 112.344Z" fill="#263238"/>
<path d="M335.242 126.63C334.53 128.367 333.079 129.605 331.643 130.167C329.482 131.012 328.911 128.68 329.299 126.513C329.649 124.562 330.435 122.217 332.705 122.298C334.942 122.378 336.056 124.644 335.242 126.63Z" fill="#CCCCCC"/>
<path d="M322.296 121.914C322.233 122.623 321.806 123.162 321.342 123.116C320.877 123.071 320.552 122.458 320.614 121.749C320.677 121.039 321.105 120.5 321.568 120.546C322.032 120.591 322.358 121.204 322.296 121.914Z" fill="#263238"/>
<path d="M315.671 121.58C315.608 122.289 315.181 122.828 314.717 122.782C314.253 122.737 313.927 122.124 313.99 121.415C314.053 120.705 314.48 120.166 314.944 120.212C315.408 120.258 315.734 120.87 315.671 121.58Z" fill="#263238"/>
<path d="M318.235 121.062C318.235 121.062 315.677 124.39 314.83 125.762C315.739 126.741 317.477 126.481 317.477 126.481L318.235 121.062Z" fill="#CCCCCC"/>
<path d="M324.939 118.539C324.828 118.573 324.702 118.549 324.61 118.463C323.518 117.444 322.32 117.717 322.308 117.72C322.129 117.763 321.948 117.652 321.903 117.474C321.858 117.296 321.968 117.116 322.146 117.073C322.209 117.058 323.71 116.715 325.065 117.98C325.201 118.106 325.208 118.316 325.083 118.449C325.042 118.494 324.992 118.523 324.939 118.539Z" fill="#263238"/>
<path d="M319.603 128.948C320.754 129.058 321.698 128.563 322.665 127.784" stroke="#263238" stroke-width="0.75" stroke-miterlimit="10" stroke-linecap="round" stroke-linejoin="round"/>
<path opacity="0.2" d="M333.827 124.572C333.584 124.134 333.028 123.931 332.532 124.007C332.036 124.084 331.603 124.395 331.271 124.771C330.874 125.222 330.597 125.78 330.476 126.37" stroke="black" stroke-width="0.5" stroke-miterlimit="10" stroke-linecap="round" stroke-linejoin="round"/>
<path d="M313.129 117.988C313.068 117.969 313.012 117.933 312.969 117.88C312.852 117.736 312.872 117.525 313.013 117.408C314.432 116.237 315.893 116.702 315.962 116.714C316.137 116.771 316.234 116.959 316.18 117.134C316.125 117.309 315.94 117.406 315.766 117.352C315.706 117.33 314.576 116.987 313.437 117.927C313.349 118.002 313.232 118.02 313.129 117.988Z" fill="#263238"/>
<g opacity="0.2">
<path d="M323.221 126.18C323.833 126.842 324.159 127.759 324.104 128.658C324.104 128.658 324.515 127.946 324.333 127.193C324.151 126.439 323.221 126.18 323.221 126.18Z" fill="black"/>
</g>
<path d="M320.102 139.777L315.731 143.711L323.029 152.561L333.572 143.671L330.447 139.077L323.857 144.581L320.102 139.777Z" fill="white"/>
<path opacity="0.8" d="M320.102 139.777L315.731 143.711L323.029 152.561L333.572 143.671L330.447 139.077L323.857 144.581L320.102 139.777Z" fill="white"/>
<path opacity="0.2" d="M343.557 192.004V199.602C343.557 199.602 326.747 194.695 316.844 185.84C309.793 179.535 310.896 176.88 310.896 176.88L318.882 177.651L343.557 192.004Z" fill="black"/>
<path opacity="0.2" d="M338.282 163.364L339.356 181.224C342.339 183.122 344.313 180.492 344.767 177.774V172.632L338.282 163.364Z" fill="black"/>
<path d="M338.263 164.512C338.263 164.512 343.664 178.605 342.315 179.459C340.966 180.313 319 176.154 319 176.154L315.606 181.022C316.335 184.224 353.493 204.392 356.526 187.522C358.106 178.74 351.987 158.003 349.675 151.558C349.028 149.754 345.772 145.901 343.937 145.345C343.249 145.136 342.588 145.071 342.043 145.173C335.021 146.488 338.263 164.512 338.263 164.512Z" fill="white"/>
<path d="M315.283 181.496C312.737 181.698 312.648 177.863 311.323 177.712C310.553 177.638 309.798 177.446 309.086 177.143C309.086 177.143 309.924 179.448 309.086 179.263C308.248 179.079 305.558 178.944 304.896 176.749C304.234 174.553 306.63 169.86 307.175 169.206C307.72 168.553 310.586 168.754 310.586 168.754C310.586 168.754 307.502 167.957 305.809 167.723C304.116 167.488 303.795 165.553 306.157 165.981C307.127 166.157 314.785 166.214 315.614 167.002C316.443 167.79 319.519 175.532 319.519 175.532C320.66 176.185 317.764 182.678 315.283 181.496Z" fill="#CCCCCC"/>
<g opacity="0.3">
<path d="M310.615 168.511C311.4 168.457 312.19 168.507 312.961 168.662C313.077 168.694 313.146 168.813 313.114 168.929C313.087 169.031 312.991 169.098 312.886 169.089C312.155 168.943 311.409 168.892 310.665 168.938C310.389 168.938 310.338 168.528 310.615 168.511Z" fill="black"/>
<path d="M306.668 170.833C306.425 170.958 306.173 170.606 306.417 170.48C307.85 169.718 309.358 170.145 310.808 170.631C311.068 170.715 310.884 171.109 310.624 171.025C309.35 170.598 307.942 170.187 306.668 170.833Z" fill="black"/>
<path d="M305.545 172.726C306.781 171.988 308.306 171.922 309.601 172.55C309.702 172.615 309.733 172.749 309.669 172.851C309.617 172.933 309.518 172.971 309.425 172.944C308.266 172.379 306.902 172.43 305.788 173.078C305.553 173.221 305.302 172.869 305.545 172.726Z" fill="black"/>
<path d="M307.603 175.941C307.493 175.716 307.403 175.48 307.343 175.232C307.284 174.964 307.687 174.814 307.753 175.082C307.932 175.907 308.445 176.619 309.17 177.051C309.413 177.185 309.229 177.579 308.994 177.445H309.019C308.564 177.188 308.185 176.83 307.89 176.412C307.861 176.413 307.836 176.427 307.803 176.414C307.353 176.256 306.851 176.389 306.538 176.75C306.354 176.959 306.026 176.682 306.211 176.473C306.563 176.067 307.086 175.883 307.603 175.941Z" fill="black"/>
</g>
</svg>
