<svg width="400" height="400" viewBox="0 0 400 400" fill="none" xmlns="http://www.w3.org/2000/svg">
<path opacity="0.1" d="M368.526 197.611C357.15 228.082 333.905 261.06 301.195 270.823C251.773 285.581 245.868 325.419 157.346 321.724C143.545 321.15 130.788 319.209 119.068 316.111C112.768 314.446 106.766 312.438 101.071 310.124C49.3576 289.179 22.3808 243.078 20.1408 194.842C17.1848 131.401 61.4496 101.162 90.2176 83.4562C118.986 65.7506 153.658 -2.85656 240.71 0.09224C253.982 0.54744 267.224 2.36104 280.055 5.84024C309.346 13.7674 339.122 31.3018 356.425 56.9346C357.724 58.8602 358.963 60.8314 360.15 62.8394C383.306 102.125 384.037 156.071 368.526 197.611Z" fill="#2290AC"/>
<path opacity="0.1" d="M368.526 197.611C357.15 228.082 333.905 261.06 301.195 270.823C251.773 285.581 245.868 325.419 157.346 321.724C143.545 321.15 130.788 319.209 119.068 316.111C112.768 314.446 106.766 312.438 101.071 310.124C49.3576 289.179 22.3808 243.078 20.1408 194.842C17.1848 131.401 61.4496 101.162 90.2176 83.4562C118.986 65.7506 153.658 -2.85656 240.71 0.09224C253.982 0.54744 267.224 2.36104 280.055 5.84024C309.346 13.7674 339.122 31.3018 356.425 56.9346C357.724 58.8602 358.963 60.8314 360.15 62.8394C383.306 102.125 384.037 156.071 368.526 197.611Z" fill="white"/>
<path d="M52.7832 370.874C51.736 369.976 49.4 367.13 51.2016 363.82C51.8624 362.606 53.2648 362.006 54.5344 361.472C55.804 360.938 57.1384 360.473 58.1888 359.579C60.1704 357.894 60.7168 355.093 62.032 352.844C63.5416 350.262 66.36 348.329 69.3376 348.464C72.7472 348.619 75.5912 351.404 76.88 354.579C78.1688 357.754 78.2144 361.28 78.2408 364.709C78.256 366.605 78.1712 368.742 76.7792 370.022C75.496 371.203 73.5632 371.218 71.824 371.164C65.6128 370.973 59.4016 370.782 53.1904 370.592" fill="#EDF1F3"/>
<path d="M88.4216 319.635H39.4192L48.2464 372.269C48.632 374.568 50.2952 376.339 52.4304 376.954C52.4864 376.972 52.5448 376.985 52.6024 377.002C52.748 377.039 52.8888 377.088 53.0384 377.114C53.3616 377.181 53.6952 377.215 54.0352 377.229C54.0376 377.245 54.0408 377.262 54.0432 377.279L54.2824 377.242H54.284H76.1232C76.5344 377.242 76.9352 377.199 77.3232 377.122C79.9024 376.723 81.9664 374.654 82.2808 371.978L86.536 335.712L86.728 334.27H86.7056L88.3904 319.908L88.4216 319.635ZM79.1768 353.21H74.148L74.6552 337.934H80.4816L79.1768 353.21ZM80.9704 337.934H85.7848L83.992 353.209H79.6648L80.9704 337.934ZM66.604 370.143L66.2984 356.873H73.54L73.0992 370.143H66.604ZM58.7744 356.873H65.8112L66.1168 370.143H59.8056L58.7744 356.873ZM59.3184 370.143H53.4184C52.8576 366.56 52.128 361.904 51.3384 356.873H58.2864L59.3184 370.143ZM58.4896 353.21L57.3024 337.934H65.3744L65.7264 353.21H58.4896ZM66.2136 353.21L65.8616 337.934H74.1688L73.6616 353.21H66.2136ZM65.7776 334.27L65.452 320.124H74.7608L74.2912 334.27H65.7776ZM65.2904 334.27H57.0176L55.9184 320.124H64.9648L65.2904 334.27ZM56.5304 334.27H47.7776C47.468 332.317 47.1736 330.467 46.908 328.803C45.9952 323.084 45.6512 320.933 45.4616 320.124H55.4304L56.5304 334.27ZM56.8152 337.934L58.0024 353.209H50.764C50.5208 351.658 50.2744 350.091 50.0272 348.522C49.46 344.916 48.892 341.311 48.3576 337.933H56.8152V337.934ZM50.2712 353.21H45.5424L42.98 337.934H47.864C48.6112 342.654 49.4384 347.909 50.2712 353.21ZM50.8464 356.873C51.5672 361.465 52.2768 365.993 52.9264 370.143H48.3832L46.1576 356.873H50.8464ZM73.5856 370.143L74.0264 356.873H78.864L77.7304 370.143H73.5856ZM74.7776 334.27L75.2472 320.124H82.004L80.7952 334.27H74.7776ZM44.9984 320.124C45.1928 321.146 46.0872 326.713 47.2848 334.27H42.3664L39.9936 320.124H44.9984ZM82.0056 370.143H78.2184L79.352 356.873H83.5624L82.0056 370.143ZM86.2144 334.27H81.2832L82.492 320.124H87.8744L86.2144 334.27Z" fill="#EDF1F3"/>
<path d="M287.675 312.875C287.722 304.724 293.055 299.513 293.055 299.513C294.682 306.218 287.675 312.875 287.675 312.875Z" fill="#EDF1F3"/>
<path d="M295.486 309.094C302.979 305.885 309.884 308.695 309.884 308.695C304.386 312.861 295.486 309.094 295.486 309.094Z" fill="#EDF1F3"/>
<path d="M296.375 304.748C295.072 298.448 298.333 293.557 298.333 293.557C300.69 298.468 296.375 304.748 296.375 304.748Z" fill="#EDF1F3"/>
<path d="M266.175 289.074C277.591 292.113 283.715 302.038 283.715 302.038C273.957 302.045 266.175 289.074 266.175 289.074Z" fill="#EDF1F3"/>
<path d="M284.408 293.752C283.815 281.447 295.841 267.521 295.841 267.521C294.025 282.799 284.408 293.752 284.408 293.752Z" fill="#EDF1F3"/>
<path d="M284.349 258.708C284.859 268.688 280.025 276.334 280.025 276.334C278.327 268.418 284.349 258.708 284.349 258.708Z" fill="#EDF1F3"/>
<path d="M279.712 283.707C270.716 282.742 265.822 273.791 265.822 273.791C276.701 276.84 279.712 283.707 279.712 283.707Z" fill="#EDF1F3"/>
<path d="M260.307 321.327C267.182 316.946 274.451 318.603 274.451 318.603C269.701 323.603 260.307 321.327 260.307 321.327Z" fill="#EDF1F3"/>
<path d="M283.62 325.366C281.915 330.069 277.575 332.176 277.575 332.176C277.959 328.024 283.62 325.366 283.62 325.366Z" fill="#EDF1F3"/>
<path d="M282.463 324.041C277.346 327.19 271.703 325.961 271.703 325.961C275.167 322.351 282.463 324.041 282.463 324.041Z" fill="#EDF1F3"/>
<path d="M287.063 340.605C287.055 340.605 287.05 340.542 287.045 340.422C287.042 340.277 287.038 340.1 287.034 339.885C287.033 339.379 287.031 338.691 287.03 337.822C287.039 336.927 287.039 335.832 287.011 334.561C286.991 333.29 286.988 331.842 286.92 330.243C286.843 327.044 286.615 323.24 286.289 319.023C285.923 314.81 285.411 310.186 284.707 305.356C283.284 295.692 281.343 287.055 279.781 280.85C278.995 277.747 278.331 275.243 277.847 273.52C277.62 272.682 277.441 272.017 277.309 271.53C277.257 271.321 277.215 271.15 277.179 271.009C277.152 270.891 277.142 270.83 277.148 270.827C277.155 270.826 277.179 270.882 277.219 270.997C277.264 271.134 277.319 271.302 277.387 271.506C277.537 271.99 277.741 272.647 277.998 273.477C278.528 275.188 279.235 277.682 280.057 280.779C281.691 286.973 283.681 295.615 285.106 305.298C285.812 310.137 286.313 314.77 286.659 318.994C286.967 323.22 287.164 327.032 287.205 330.237C287.255 331.838 287.238 333.288 287.237 334.561C287.243 335.834 287.219 336.93 287.187 337.825C287.156 338.694 287.132 339.382 287.115 339.886C287.104 340.102 287.095 340.278 287.087 340.422C287.078 340.543 287.07 340.605 287.063 340.605Z" fill="#EDF1F3"/>
<path d="M270.551 314.558C270.614 314.466 274.25 316.85 278.671 319.88C283.095 322.912 286.628 325.443 286.565 325.535C286.502 325.627 282.867 323.245 278.443 320.213C274.022 317.183 270.488 314.65 270.551 314.558Z" fill="#EDF1F3"/>
<path d="M286.566 315.87C286.547 315.849 286.747 315.633 287.124 315.258C287.571 314.828 288.111 314.308 288.743 313.699C290.2 312.333 292.076 310.573 294.151 308.627C296.226 306.682 298.102 304.923 299.559 303.558C300.199 302.957 300.745 302.445 301.197 302.021C301.587 301.661 301.813 301.471 301.833 301.49C301.853 301.51 301.666 301.737 301.309 302.131C300.955 302.528 300.422 303.082 299.759 303.762C298.427 305.117 296.544 306.945 294.427 308.922C292.311 310.9 290.363 312.658 288.936 313.91C288.223 314.536 287.639 315.036 287.23 315.374C286.82 315.714 286.584 315.89 286.566 315.87Z" fill="#EDF1F3"/>
<path d="M259 308.727C259 308.727 268.298 308.55 272.23 315.869C272.23 315.869 264.299 316.13 259 308.727Z" fill="#EDF1F3"/>
<path d="M271.698 304.996C271.698 304.996 279.268 310.396 278.063 318.616C278.063 318.616 271.541 314.098 271.698 304.996Z" fill="#EDF1F3"/>
<path d="M311.572 291.69C311.572 291.69 308.585 302.098 299.094 303.968C299.094 303.968 301.519 295.052 311.572 291.69Z" fill="#EDF1F3"/>
<path d="M267.569 253C267.569 253 279.431 260.737 278.117 273.322C278.117 273.322 267.905 266.86 267.569 253Z" fill="#EDF1F3"/>
<path d="M307.047 321.822C307.063 321.846 306.787 322.065 306.277 322.44C305.764 322.81 305.034 323.364 304.149 324.066C302.377 325.468 300.031 327.539 297.726 330.101C295.425 332.669 293.617 335.223 292.413 337.134C291.809 338.09 291.337 338.874 291.023 339.424C290.705 339.971 290.517 340.269 290.491 340.256C290.467 340.243 290.607 339.922 290.885 339.35C291.157 338.775 291.593 337.965 292.169 336.985C293.317 335.024 295.104 332.42 297.425 329.83C299.75 327.247 302.147 325.191 303.975 323.839C304.887 323.162 305.646 322.641 306.188 322.309C306.727 321.974 307.031 321.799 307.047 321.822Z" fill="#EDF1F3"/>
<path d="M296.725 329.55C295.212 321.541 299.448 315.406 299.448 315.406C300.724 324.226 296.725 329.55 296.725 329.55Z" fill="#EDF1F3"/>
<path d="M304.707 325.198C309.821 322.198 315.061 323.594 315.061 323.594C309.334 326.631 304.707 325.198 304.707 325.198Z" fill="#EDF1F3"/>
<path d="M269.767 341.573L274.218 370.818H300.073L306.074 341.996L269.767 341.573Z" fill="#EDF1F3"/>
<path d="M302.459 360.316C302.459 360.4 295.834 360.468 287.663 360.468C279.489 360.468 272.866 360.4 272.866 360.316C272.866 360.232 279.49 360.164 287.663 360.164C295.834 360.165 302.459 360.233 302.459 360.316Z" fill="#EDF1F3"/>
<path d="M302.559 358.878C302.559 358.962 295.89 359.03 287.663 359.03C279.435 359.03 272.766 358.962 272.766 358.878C272.766 358.794 279.435 358.726 287.663 358.726C295.889 358.726 302.559 358.794 302.559 358.878Z" fill="#EDF1F3"/>
<path d="M302.508 357.254C302.508 357.338 295.838 357.406 287.612 357.406C279.383 357.406 272.715 357.338 272.715 357.254C272.715 357.17 279.383 357.102 287.612 357.102C295.838 357.102 302.508 357.17 302.508 357.254Z" fill="#EDF1F3"/>
<path d="M277.188 369.15C277.106 369.165 276.751 367.516 276.395 365.468C276.04 363.419 275.819 361.748 275.901 361.734C275.983 361.719 276.339 363.368 276.694 365.416C277.049 367.464 277.271 369.136 277.188 369.15Z" fill="#EDF1F3"/>
<path d="M278.947 368.839C278.861 368.841 278.762 367.23 278.626 365.246C278.492 363.262 278.372 361.653 278.457 361.643C278.538 361.634 278.794 363.234 278.928 365.226C279.066 367.218 279.028 368.838 278.947 368.839Z" fill="#EDF1F3"/>
<path d="M282.152 368.838C282.072 368.853 281.719 367.21 281.479 365.154C281.237 363.098 281.201 361.419 281.283 361.414C281.368 361.409 281.539 363.072 281.781 365.119C282.019 367.166 282.237 368.824 282.152 368.838Z" fill="#EDF1F3"/>
<path d="M284.403 368.993C284.321 369 284.111 367.326 284.044 365.25C283.975 363.172 284.077 361.489 284.159 361.491C284.244 361.493 284.279 363.171 284.347 365.24C284.414 367.307 284.488 368.986 284.403 368.993Z" fill="#EDF1F3"/>
<path d="M288.387 368.839C288.303 368.842 288.181 367.251 288.115 365.287C288.048 363.322 288.062 361.727 288.146 361.724C288.23 361.722 288.351 363.311 288.418 365.277C288.484 367.242 288.47 368.837 288.387 368.839Z" fill="#EDF1F3"/>
<path d="M291.296 368.994C291.212 368.993 291.158 367.347 291.175 365.318C291.191 363.289 291.272 361.645 291.356 361.646C291.44 361.646 291.495 363.291 291.478 365.321C291.461 367.35 291.38 368.994 291.296 368.994Z" fill="#EDF1F3"/>
<path d="M294.024 368.603C293.941 368.595 294.039 366.875 294.245 364.762C294.451 362.649 294.684 360.942 294.767 360.95C294.851 360.958 294.752 362.678 294.547 364.791C294.342 366.904 294.107 368.611 294.024 368.603Z" fill="#EDF1F3"/>
<path d="M297.542 368.22C297.462 368.21 297.587 366.734 297.977 364.954C298.363 363.171 298.861 361.778 298.939 361.802C299.022 361.826 298.656 363.25 298.274 365.018C297.887 366.785 297.628 368.231 297.542 368.22Z" fill="#EDF1F3"/>
<path d="M266.801 335.782V341.254C266.801 342.443 267.766 343.408 268.955 343.408H306.396C307.586 343.408 308.551 342.443 308.551 341.254V335.782H266.801Z" fill="#EDF1F3"/>
<path d="M270.047 343.409L270.358 345.15L304.905 347.613L305.78 343.409H270.047Z" fill="#EDF1F3"/>
<path d="M359.722 376.651C359.722 376.766 288.206 376.859 200.008 376.859C111.779 376.859 40.2792 376.766 40.2792 376.651C40.2792 376.537 111.779 376.443 200.008 376.443C288.206 376.443 359.722 376.536 359.722 376.651Z" fill="#263238"/>
<path d="M27.4896 139.79C27.4896 139.79 35.6904 173.376 72.3952 165.682C72.3952 165.682 61.7576 131.67 27.4896 139.79Z" fill="white"/>
<path d="M45.224 190.654C45.224 190.654 62.0744 215.777 89.9128 198.403C89.9128 198.403 70.9312 173.664 45.224 190.654Z" fill="white"/>
<path d="M72.072 228.981C72.072 228.981 96.6568 249.889 120.201 223.979C120.201 223.979 93.5392 204.084 72.072 228.981Z" fill="white"/>
<path d="M97.48 148.348C97.48 148.348 70.2136 161.45 83.4464 191.478C85.3888 190.387 110.363 175.634 97.48 148.348Z" fill="white"/>
<path d="M103.398 184.55C103.398 184.55 89.8008 202.91 110.064 218.682C111.33 216.715 123.201 199.18 103.398 184.55Z" fill="white"/>
<path d="M40.3328 101.14C40.3328 101.14 37.2056 128.363 66.6088 132.724C66.6088 132.724 68.0408 104.514 40.3328 101.14Z" fill="white"/>
<path d="M82.5032 73.596C82.5032 73.596 58.7192 83.5288 69.0496 111.402C69.0496 111.402 92.8816 99.508 82.5032 73.596Z" fill="white"/>
<path d="M96.8576 113.371C96.8576 113.371 65.3664 116.964 68.14 151.234C68.14 151.234 100.299 145.473 96.8576 113.371Z" fill="white"/>
<path d="M141.668 232.998C141.668 232.998 141.534 232.952 141.269 232.88C140.99 232.806 140.599 232.702 140.09 232.567C139.053 232.294 137.514 231.932 135.579 231.298C131.694 230.106 126.13 228.085 119.727 224.625C113.322 221.191 106.157 216.196 99.188 209.568C95.704 206.256 92.288 202.526 89.04 198.425C88.2592 197.376 87.472 196.318 86.6784 195.251C86.2824 194.718 85.8848 194.182 85.4848 193.643C85.0992 193.095 84.7464 192.522 84.3736 191.959C83.6368 190.828 82.8944 189.688 82.1472 188.541C81.4672 187.352 80.784 186.156 80.0952 184.952C79.7528 184.349 79.412 183.747 79.072 183.148C78.7664 182.53 78.4624 181.914 78.1592 181.3C77.5568 180.07 76.94 178.857 76.3608 177.637C75.8336 176.393 75.3096 175.158 74.7904 173.934C74.5344 173.321 74.2632 172.716 74.0232 172.102C73.8008 171.481 73.5792 170.862 73.3592 170.246C72.9184 169.015 72.4808 167.795 72.048 166.586C71.684 165.354 71.3232 164.135 70.9672 162.928C70.7888 162.325 70.6112 161.725 70.4352 161.127C70.2552 160.531 70.1408 159.922 69.9912 159.325C69.7088 158.126 69.4304 156.942 69.1552 155.772C67.0912 146.37 66.6352 137.654 66.8136 130.393C66.9808 123.109 68.0384 117.292 68.7272 113.287C69.1552 111.298 69.536 109.764 69.7656 108.717C69.8808 108.202 69.9688 107.808 70.0312 107.526C70.0888 107.258 70.1096 107.118 70.1096 107.118C70.1096 107.118 70.0648 107.251 69.9952 107.517C69.924 107.796 69.8248 108.189 69.6944 108.699C69.4416 109.741 69.0384 111.272 68.5896 113.259C67.8576 117.261 66.7592 123.085 66.5592 130.385C66.348 137.662 66.7792 146.406 68.8312 155.841C69.1056 157.015 69.3832 158.204 69.664 159.406C69.8128 160.006 69.9272 160.618 70.1064 161.215C70.2824 161.814 70.46 162.417 70.6376 163.022C70.9936 164.234 71.3544 165.458 71.7176 166.693C72.1512 167.906 72.588 169.131 73.0296 170.366C73.2504 170.984 73.472 171.605 73.6944 172.228C73.9344 172.845 74.2064 173.451 74.4624 174.067C74.9832 175.296 75.5072 176.535 76.036 177.783C76.6168 179.007 77.2352 180.226 77.8392 181.46C78.1432 182.076 78.4488 182.694 78.7552 183.314C79.096 183.916 79.4384 184.52 79.7816 185.125C80.472 186.333 81.1592 187.534 81.8408 188.726C82.5912 189.877 83.3368 191.02 84.0768 192.156C84.4512 192.721 84.8056 193.296 85.1928 193.846C85.5936 194.386 85.9936 194.923 86.3912 195.459C87.1888 196.529 87.98 197.59 88.764 198.642C92.0256 202.753 95.4584 206.49 98.9592 209.806C105.963 216.442 113.167 221.432 119.606 224.847C126.042 228.288 131.634 230.278 135.537 231.43C137.482 232.045 139.028 232.385 140.071 232.636C140.584 232.756 140.978 232.849 141.259 232.914C141.529 232.976 141.668 232.998 141.668 232.998Z" fill="white"/>
<path d="M106.343 199.352C106.318 199.355 106.329 199.629 106.368 200.122C106.406 200.614 106.481 201.326 106.588 202.202C106.802 203.956 107.165 206.372 107.681 209.019C108.199 211.667 108.772 214.042 109.234 215.747C109.466 216.6 109.664 217.286 109.814 217.758C109.962 218.229 110.056 218.486 110.08 218.48C110.104 218.474 110.056 218.204 109.948 217.722C109.82 217.166 109.664 216.486 109.479 215.686C109.081 213.968 108.548 211.591 108.031 208.95C107.516 206.31 107.115 203.909 106.838 202.167C106.707 201.357 106.596 200.668 106.506 200.104C106.425 199.617 106.367 199.349 106.343 199.352Z" fill="white"/>
<path d="M99.6456 226.618C99.6504 226.642 99.9256 226.615 100.42 226.547C100.99 226.464 101.687 226.362 102.509 226.242C104.271 225.979 106.708 225.633 109.407 225.316C112.107 225 114.558 224.774 116.334 224.622C117.161 224.55 117.863 224.487 118.437 224.437C118.934 224.389 119.208 224.351 119.206 224.326C119.206 224.302 118.929 224.293 118.43 224.298C117.93 224.302 117.208 224.326 116.317 224.37C114.534 224.458 112.073 224.644 109.366 224.961C106.66 225.278 104.222 225.666 102.467 225.992C101.59 226.155 100.882 226.298 100.394 226.41C99.908 226.521 99.6408 226.594 99.6456 226.618Z" fill="white"/>
<path d="M66.508 193.294C66.504 193.318 66.828 193.395 67.416 193.513C68.0728 193.642 68.9088 193.807 69.9072 194.004C72.0104 194.419 74.908 195.025 78.0856 195.794C81.264 196.565 84.1176 197.354 86.1776 197.946C87.156 198.228 87.9744 198.464 88.6176 198.65C89.1944 198.814 89.5176 198.894 89.5248 198.87C89.5328 198.847 89.224 198.722 88.66 198.518C88.096 198.311 87.2736 198.032 86.2512 197.704C84.2072 197.048 81.356 196.218 78.1704 195.445C74.9848 194.674 72.0712 194.106 69.9528 193.754C68.8936 193.578 68.0344 193.449 67.4384 193.374C66.8432 193.299 66.512 193.269 66.508 193.294Z" fill="white"/>
<path d="M90.5752 167.55C90.5536 167.538 90.356 167.835 90.0152 168.384C89.6696 168.93 89.2096 169.746 88.6776 170.772C87.6112 172.822 86.3344 175.77 85.3536 179.166C84.38 182.565 83.8968 185.74 83.7112 188.044C83.616 189.196 83.5736 190.131 83.576 190.778C83.5728 191.424 83.5832 191.781 83.608 191.782C83.6328 191.782 83.6696 191.426 83.7152 190.784C83.7552 190.142 83.8368 189.212 83.9632 188.069C84.2128 185.782 84.7312 182.639 85.6984 179.264C86.672 175.893 87.9016 172.954 88.9048 170.884C89.4048 169.848 89.8296 169.018 90.1368 168.452C90.4384 167.884 90.596 167.563 90.5752 167.55Z" fill="white"/>
<path d="M54.0528 151.886C54.04 151.907 54.2992 152.088 54.7776 152.397C55.3144 152.747 55.9904 153.188 56.7944 153.714C58.4888 154.837 60.7856 156.454 63.196 158.405C65.604 160.358 67.6632 162.27 69.1136 163.695C69.7944 164.374 70.3656 164.943 70.82 165.396C71.2208 165.8 71.452 166.016 71.4704 165.999C71.4888 165.982 71.2928 165.735 70.9224 165.302C70.5544 164.866 69.9992 164.255 69.2944 163.518C67.8856 162.042 65.8432 160.091 63.4224 158.127C61.0008 156.167 58.668 154.574 56.9328 153.502C56.0656 152.965 55.3528 152.548 54.8496 152.278C54.348 152.004 54.0648 151.864 54.0528 151.886Z" fill="white"/>
<path d="M88.4368 127.026C88.428 127.018 88.3392 127.086 88.1784 127.224C87.9888 127.394 87.76 127.598 87.4848 127.842C86.8856 128.383 86.0392 129.187 85.0104 130.199C82.952 132.222 80.196 135.108 77.3376 138.46C74.4808 141.815 72.068 144.994 70.3976 147.348C69.5616 148.524 68.9024 149.488 68.4632 150.165C68.2648 150.475 68.0992 150.734 67.9624 150.948C67.8512 151.129 67.7976 151.228 67.808 151.234C67.8184 151.242 67.8912 151.157 68.0216 150.989C68.1736 150.785 68.3568 150.54 68.5768 150.245C69.0888 149.55 69.772 148.622 70.6016 147.498C72.3216 145.186 74.76 142.04 77.6096 138.693C80.4608 135.35 83.1808 132.443 85.1896 130.378C86.1688 129.382 86.976 128.559 87.5808 127.943C87.8368 127.679 88.0504 127.459 88.2272 127.277C88.3728 127.122 88.4448 127.035 88.4368 127.026Z" fill="white"/>
<path d="M50.5104 109.989C50.492 110.006 50.7344 110.307 51.1872 110.839C51.6792 111.421 52.3216 112.18 53.096 113.095C54.6968 115.008 56.8488 117.702 59.064 120.795C61.276 123.893 63.128 126.8 64.4208 128.934C65.0368 129.962 65.5472 130.816 65.9384 131.47C66.2944 132.07 66.5016 132.397 66.524 132.385C66.5456 132.373 66.38 132.024 66.0608 131.402C65.744 130.778 65.26 129.89 64.6392 128.805C63.4 126.634 61.5752 123.694 59.3552 120.586C57.1336 117.482 54.9424 114.805 53.2888 112.93C52.4624 111.991 51.7784 111.246 51.2912 110.745C50.8056 110.242 50.528 109.971 50.5104 109.989Z" fill="white"/>
<path d="M78.9816 84.1432C78.9592 84.1336 78.784 84.4888 78.4864 85.1408C78.188 85.792 77.7736 86.7416 77.2744 87.9208C76.2752 90.2784 74.9552 93.5616 73.5976 97.2256C72.2416 100.892 71.1064 104.244 70.3296 106.684C69.9408 107.904 69.6376 108.894 69.44 109.583C69.2416 110.271 69.1432 110.655 69.1664 110.662C69.1896 110.67 69.3336 110.3 69.5728 109.626C69.8288 108.89 70.1648 107.927 70.5704 106.764C71.408 104.346 72.5792 101.012 73.9336 97.3504C75.2888 93.6904 76.5704 90.3976 77.5088 88.0168C77.9584 86.8704 78.3312 85.92 78.6152 85.1952C78.8728 84.5272 79.0048 84.1528 78.9816 84.1432Z" fill="white"/>
<path d="M373.392 135.019C373.392 135.019 365.192 168.605 328.486 160.911C328.486 160.911 339.124 126.899 373.392 135.019Z" fill="white"/>
<path d="M355.658 185.882C355.658 185.882 338.807 211.006 310.969 193.632C310.969 193.632 329.95 168.893 355.658 185.882Z" fill="white"/>
<path d="M328.81 224.21C328.81 224.21 304.225 245.118 280.681 219.208C280.681 219.208 307.342 199.313 328.81 224.21Z" fill="white"/>
<path d="M303.402 143.577C303.402 143.577 330.668 156.678 317.435 186.706C315.493 185.616 290.518 170.862 303.402 143.577Z" fill="white"/>
<path d="M297.483 179.779C297.483 179.779 311.081 198.138 290.818 213.911C289.552 211.944 277.681 194.409 297.483 179.779Z" fill="white"/>
<path d="M360.549 96.3688C360.549 96.3688 363.676 123.592 334.273 127.953C334.273 127.953 332.841 99.7432 360.549 96.3688Z" fill="white"/>
<path d="M318.378 68.8248C318.378 68.8248 342.162 78.7576 331.832 106.63C331.832 106.63 308 94.7368 318.378 68.8248Z" fill="white"/>
<path d="M304.024 108.599C304.024 108.599 335.515 112.192 332.742 146.462C332.742 146.462 300.582 140.702 304.024 108.599Z" fill="white"/>
<path d="M259.214 228.227C259.214 228.227 259.347 228.181 259.613 228.109C259.891 228.035 260.282 227.931 260.792 227.796C261.829 227.522 263.368 227.161 265.302 226.526C269.187 225.335 274.751 223.314 281.154 219.854C287.56 216.42 294.725 211.425 301.694 204.797C305.178 201.485 308.594 197.754 311.842 193.654C312.622 192.605 313.41 191.546 314.203 190.48C314.599 189.946 314.997 189.41 315.396 188.872C315.782 188.324 316.134 187.75 316.507 187.188C317.244 186.057 317.986 184.917 318.734 183.77C319.413 182.581 320.097 181.385 320.786 180.181C321.128 179.578 321.469 178.976 321.809 178.377C322.114 177.759 322.418 177.142 322.722 176.529C323.324 175.298 323.941 174.086 324.52 172.866C325.047 171.622 325.571 170.387 326.09 169.163C326.346 168.55 326.618 167.945 326.858 167.33C327.08 166.71 327.302 166.091 327.522 165.475C327.963 164.244 328.401 163.023 328.834 161.814C329.198 160.583 329.558 159.364 329.914 158.157C330.093 157.554 330.27 156.954 330.447 156.357C330.627 155.761 330.742 155.151 330.891 154.554C331.174 153.356 331.452 152.172 331.727 151.002C333.791 141.6 334.247 132.883 334.069 125.622C333.902 118.338 332.844 112.522 332.155 108.517C331.727 106.528 331.346 104.994 331.117 103.947C331.002 103.433 330.914 103.038 330.851 102.757C330.794 102.488 330.773 102.348 330.773 102.348C330.773 102.348 330.818 102.482 330.887 102.747C330.958 103.026 331.058 103.418 331.188 103.93C331.441 104.971 331.844 106.502 332.293 108.49C333.025 112.491 334.123 118.315 334.323 125.615C334.534 132.893 334.103 141.637 332.051 151.071C331.777 152.246 331.499 153.434 331.218 154.637C331.07 155.236 330.955 155.848 330.776 156.446C330.6 157.045 330.422 157.647 330.245 158.253C329.889 159.464 329.528 160.688 329.165 161.923C328.731 163.136 328.294 164.362 327.853 165.597C327.632 166.214 327.41 166.835 327.188 167.458C326.948 168.075 326.676 168.682 326.419 169.298C325.898 170.526 325.374 171.766 324.846 173.014C324.265 174.238 323.646 175.456 323.042 176.69C322.738 177.306 322.433 177.925 322.126 178.545C321.785 179.146 321.443 179.75 321.1 180.355C320.41 181.563 319.722 182.764 319.041 183.956C318.29 185.107 317.545 186.25 316.805 187.386C316.43 187.95 316.076 188.526 315.689 189.075C315.288 189.615 314.889 190.153 314.49 190.689C313.693 191.758 312.902 192.82 312.118 193.872C308.856 197.982 305.423 201.72 301.922 205.036C294.919 211.672 287.715 216.662 281.276 220.077C274.839 223.518 269.248 225.508 265.345 226.659C263.401 227.274 261.854 227.614 260.81 227.866C260.298 227.986 259.903 228.078 259.622 228.144C259.353 228.205 259.214 228.227 259.214 228.227Z" fill="white"/>
<path d="M294.538 194.581C294.563 194.584 294.553 194.858 294.514 195.35C294.475 195.843 294.401 196.554 294.294 197.431C294.08 199.186 293.717 201.601 293.201 204.248C292.682 206.896 292.11 209.27 291.647 210.976C291.417 211.829 291.218 212.516 291.068 212.986C290.919 213.458 290.826 213.715 290.802 213.709C290.778 213.702 290.826 213.433 290.934 212.95C291.062 212.394 291.218 211.714 291.402 210.914C291.8 209.197 292.333 206.82 292.85 204.179C293.365 201.54 293.766 199.138 294.043 197.396C294.174 196.586 294.285 195.897 294.375 195.333C294.458 194.846 294.514 194.578 294.538 194.581Z" fill="white"/>
<path d="M301.236 221.846C301.231 221.87 300.956 221.844 300.462 221.776C299.892 221.693 299.194 221.59 298.373 221.47C296.61 221.208 294.174 220.862 291.474 220.545C288.774 220.229 286.323 220.003 284.548 219.851C283.721 219.778 283.018 219.716 282.445 219.666C281.948 219.618 281.674 219.58 281.675 219.555C281.676 219.53 281.953 219.522 282.452 219.526C282.951 219.53 283.674 219.554 284.565 219.598C286.348 219.686 288.809 219.873 291.516 220.189C294.222 220.506 296.659 220.894 298.414 221.22C299.292 221.383 300 221.526 300.487 221.638C300.974 221.75 301.241 221.822 301.236 221.846Z" fill="white"/>
<path d="M334.374 188.522C334.378 188.546 334.054 188.623 333.466 188.741C332.809 188.87 331.973 189.035 330.974 189.232C328.871 189.647 325.974 190.253 322.796 191.022C319.618 191.793 316.764 192.582 314.704 193.174C313.726 193.457 312.908 193.693 312.264 193.878C311.687 194.042 311.364 194.122 311.356 194.099C311.348 194.076 311.657 193.951 312.221 193.746C312.785 193.54 313.607 193.261 314.63 192.934C316.674 192.277 319.525 191.448 322.71 190.674C325.896 189.903 328.81 189.336 330.928 188.984C331.987 188.807 332.846 188.678 333.442 188.604C334.038 188.528 334.37 188.498 334.374 188.522Z" fill="white"/>
<path d="M310.306 162.779C310.328 162.766 310.526 163.064 310.866 163.613C311.212 164.159 311.673 164.974 312.204 166.001C313.27 168.052 314.547 170.998 315.528 174.394C316.502 177.794 316.985 180.97 317.17 183.273C317.266 184.425 317.308 185.36 317.306 186.006C317.309 186.653 317.298 187.01 317.274 187.01C317.249 187.011 317.212 186.655 317.166 186.013C317.126 185.37 317.044 184.441 316.918 183.298C316.668 181.012 316.15 177.868 315.183 174.494C314.21 171.122 312.98 168.183 311.977 166.114C311.477 165.078 311.052 164.248 310.745 163.682C310.443 163.113 310.286 162.792 310.306 162.779Z" fill="white"/>
<path d="M346.829 147.114C346.842 147.136 346.582 147.317 346.104 147.626C345.567 147.976 344.891 148.417 344.086 148.942C342.392 150.065 340.095 151.683 337.686 153.634C335.278 155.587 333.218 157.499 331.768 158.924C331.087 159.602 330.516 160.172 330.062 160.624C329.661 161.028 329.43 161.244 329.411 161.227C329.393 161.21 329.589 160.963 329.959 160.53C330.327 160.094 330.882 159.483 331.587 158.746C332.996 157.27 335.038 155.318 337.459 153.355C339.881 151.395 342.214 149.802 343.949 148.73C344.816 148.193 345.529 147.776 346.031 147.506C346.534 147.233 346.817 147.093 346.829 147.114Z" fill="white"/>
<path d="M312.445 122.255C312.454 122.246 312.542 122.314 312.703 122.453C312.893 122.622 313.122 122.826 313.397 123.071C313.996 123.612 314.842 124.416 315.871 125.428C317.93 127.45 320.686 130.338 323.544 133.689C326.401 137.044 328.814 140.223 330.484 142.577C331.32 143.753 331.979 144.717 332.418 145.394C332.617 145.704 332.782 145.962 332.919 146.176C333.03 146.358 333.084 146.456 333.074 146.462C333.063 146.47 332.99 146.385 332.86 146.217C332.708 146.013 332.525 145.768 332.304 145.473C331.792 144.778 331.109 143.85 330.28 142.726C328.56 140.414 326.122 137.268 323.272 133.921C320.421 130.578 317.701 127.67 315.692 125.606C314.713 124.61 313.906 123.787 313.301 123.171C313.045 122.907 312.831 122.687 312.654 122.505C312.509 122.35 312.437 122.265 312.445 122.255Z" fill="white"/>
<path d="M350.371 105.217C350.39 105.234 350.147 105.535 349.694 106.067C349.202 106.649 348.56 107.408 347.786 108.323C346.185 110.237 344.033 112.93 341.818 116.023C339.606 119.121 337.754 122.028 336.462 124.162C335.846 125.191 335.335 126.045 334.944 126.698C334.588 127.298 334.381 127.626 334.358 127.614C334.337 127.602 334.502 127.253 334.822 126.63C335.138 126.007 335.622 125.118 336.243 124.034C337.482 121.862 339.307 118.923 341.527 115.815C343.749 112.711 345.94 110.034 347.594 108.158C348.42 107.22 349.104 106.474 349.591 105.974C350.077 105.47 350.354 105.201 350.371 105.217Z" fill="white"/>
<path d="M321.9 79.372C321.922 79.3624 322.098 79.7176 322.395 80.3696C322.694 81.0208 323.108 81.9704 323.607 83.1496C324.606 85.5072 325.926 88.7904 327.284 92.4544C328.64 96.1208 329.774 99.4728 330.552 101.913C330.941 103.133 331.244 104.123 331.442 104.812C331.64 105.5 331.738 105.884 331.715 105.891C331.691 105.898 331.548 105.529 331.309 104.854C331.053 104.119 330.717 103.156 330.312 101.993C329.474 99.5752 328.303 96.2408 326.949 92.5792C325.594 88.9192 324.311 85.6264 323.374 83.2456C322.924 82.0984 322.551 81.1488 322.267 80.424C322.009 79.756 321.877 79.3816 321.9 79.372Z" fill="white"/>
<path d="M241.837 278.183C241.863 278.292 241.895 278.429 241.932 278.591C242.036 279.053 242.18 279.721 242.341 280.544C242.663 282.191 243.049 284.456 243.306 286.926C243.563 289.398 243.689 292.064 243.498 294.519C243.319 296.829 242.861 298.907 242.001 300.457L241.825 300.76C241.656 301.033 241.479 301.307 241.294 301.579C236.08 309.273 226.272 312.404 217.426 309.575L217.005 309.436L170.834 293.619L174.149 281.97L203.65 285.613L203.747 285.625L203.842 285.599L235.666 276.941L241.837 278.183Z" fill="#CCCCCC" stroke="black"/>
<path d="M221.156 252.85C221.265 253.171 221.425 253.642 221.628 254.246C222.034 255.455 222.615 257.193 223.308 259.312C224.696 263.55 226.538 269.309 228.356 275.393C230.175 281.478 231.969 287.882 233.261 293.412C234.477 298.621 235.232 302.992 235.174 305.595L235.151 306.092C235.063 307.325 234.551 309.266 233.692 311.757C232.838 314.234 231.655 317.213 230.254 320.503C227.451 327.083 223.782 334.884 220.133 342.365C216.484 349.844 212.858 356.998 210.144 362.283C208.788 364.925 207.659 367.1 206.87 368.614C206.475 369.37 206.165 369.962 205.954 370.365C205.916 370.436 205.882 370.501 205.85 370.561L194.041 365.138C194.065 365.06 194.093 364.971 194.124 364.872C194.263 364.426 194.466 363.774 194.719 362.95C195.224 361.301 195.931 358.962 196.74 356.204C198.155 351.379 199.88 345.265 201.373 339.311L201.997 336.773C202.818 333.361 203.389 329.588 203.909 326.274C204.401 323.138 204.842 320.457 205.392 318.809L205.504 318.493C207.354 313.559 209.387 309.811 210.955 307.3C211.739 306.045 212.406 305.099 212.876 304.469C213.11 304.154 213.296 303.918 213.422 303.762C213.485 303.684 213.532 303.625 213.564 303.587C213.58 303.568 213.592 303.554 213.599 303.545C213.603 303.541 213.605 303.537 213.607 303.535C213.608 303.535 213.609 303.534 213.609 303.534H213.61L213.609 303.533L213.825 303.284L213.68 302.988L193.592 261.69L221.146 252.824C221.149 252.832 221.153 252.841 221.156 252.85Z" fill="#CCCCCC" stroke="black"/>
<path d="M180.56 223.194C180.56 223.194 176.148 235.319 179.202 246.774C182.257 258.228 210.932 305.184 210.932 305.184L244.133 285.978C244.133 285.978 242.854 244.138 231.29 220.791L180.56 223.194Z" fill="#263238"/>
<path d="M202.658 330.947C202.63 330.944 202.656 330.543 202.727 329.822C202.793 329.099 202.919 328.058 203.098 326.774C203.472 324.214 204.05 320.648 205.378 316.895C206.701 313.136 208.565 310.03 209.942 307.842C210.642 306.749 211.222 305.875 211.639 305.282C212.054 304.688 212.294 304.366 212.318 304.382C212.342 304.398 212.148 304.75 211.775 305.37C211.361 306.058 210.83 306.94 210.193 307.995C208.882 310.219 207.077 313.32 205.77 317.034C204.458 320.743 203.836 324.276 203.388 326.819C203.186 328.035 203.018 329.05 202.887 329.843C202.767 330.558 202.687 330.951 202.658 330.947Z" fill="#262524"/>
<path d="M235.183 281.854C235.17 281.858 235.118 281.727 235.032 281.474C234.936 281.174 234.818 280.806 234.676 280.36C234.359 279.33 233.931 277.942 233.412 276.254C232.343 272.787 230.83 268.011 229.038 262.776C227.244 257.54 225.513 252.838 224.233 249.444C223.609 247.792 223.095 246.433 222.715 245.425C222.554 244.986 222.422 244.623 222.314 244.327C222.227 244.074 222.187 243.939 222.201 243.934C222.214 243.928 222.279 244.053 222.392 244.295C222.52 244.583 222.676 244.936 222.866 245.364C223.27 246.295 223.833 247.652 224.508 249.337C225.86 252.706 227.637 257.398 229.434 262.641C231.227 267.882 232.698 272.679 233.696 276.17C234.195 277.915 234.583 279.332 234.834 280.315C234.946 280.77 235.039 281.144 235.114 281.45C235.173 281.712 235.198 281.85 235.183 281.854Z" fill="#455A64"/>
<path d="M215.665 249.397C215.617 249.458 214.621 248.644 212.855 247.578C211.976 247.041 210.887 246.472 209.646 245.914C208.398 245.374 206.992 244.856 205.478 244.442C203.958 244.042 202.482 243.787 201.131 243.629C199.778 243.491 198.55 243.438 197.52 243.464C195.458 243.502 194.19 243.709 194.178 243.632C194.174 243.604 194.487 243.534 195.06 243.432C195.631 243.322 196.47 243.226 197.51 243.17C198.551 243.107 199.795 243.129 201.17 243.248C202.543 243.387 204.044 243.634 205.586 244.041C207.124 244.461 208.547 244.998 209.805 245.565C211.054 246.15 212.142 246.754 213.012 247.33C213.884 247.899 214.563 248.401 215.002 248.783C215.446 249.157 215.682 249.374 215.665 249.397Z" fill="#455A64"/>
<path d="M216.294 147.293L216.49 147.571L216.821 147.49L228.604 144.612C228.611 144.651 228.618 144.691 228.625 144.733C228.696 145.158 228.801 145.783 228.931 146.584C229.191 148.186 229.556 150.494 229.975 153.311C230.71 158.241 231.613 164.731 232.414 171.74L232.75 174.773C233.577 182.475 232.39 188.018 230.967 192.32C230.249 194.489 229.482 196.317 228.857 198.005C228.279 199.566 227.826 201.002 227.719 202.375L227.702 202.649C227.638 204.107 228.085 206.383 228.758 208.92C229.435 211.477 230.36 214.363 231.29 217.069C232.22 219.777 233.158 222.313 233.863 224.171C234.216 225.1 234.509 225.861 234.716 226.389C234.805 226.617 234.878 226.802 234.932 226.938L227.135 236.479C225.659 238.283 223.471 239.341 221.156 239.389L220.691 239.385L178.983 237.803C179.646 228.518 181.52 221.132 183.24 216.047C184.116 213.458 184.952 211.466 185.567 210.124C185.875 209.453 186.128 208.944 186.303 208.604C186.39 208.435 186.458 208.308 186.504 208.224C186.527 208.182 186.544 208.15 186.556 208.13C186.561 208.12 186.565 208.112 186.567 208.107C186.569 208.105 186.57 208.103 186.57 208.102L186.571 208.101L186.669 207.93L186.623 207.737L182.576 190.865L182.238 189.455L181.636 190.773C180.335 193.619 178.381 197.397 175.981 200.535C173.638 203.6 170.956 205.942 168.128 206.355L167.854 206.39C167.11 206.465 166.021 206.203 164.63 205.604C163.256 205.012 161.655 204.121 159.912 203.022C156.428 200.825 152.426 197.821 148.632 194.787C144.84 191.755 141.266 188.699 138.64 186.4C137.326 185.252 136.25 184.293 135.503 183.621C135.147 183.302 134.867 183.047 134.67 182.868L142.209 172.652L163.161 186.745L163.677 187.092L163.905 186.514L173.766 161.538C174.347 160.068 175.467 158.878 176.89 158.21L177.18 158.084L191.28 152.317L191.368 152.281L191.436 152.216L194.502 149.289L214.37 144.564L216.294 147.293Z" fill="white" stroke="black"/>
<path d="M270.573 99.0648C270.563 99.2411 270.55 99.4816 270.533 99.7786C270.495 100.463 270.437 101.449 270.363 102.659C270.214 105.081 269.999 108.396 269.73 111.974C269.225 118.694 268.534 126.302 267.755 130.659L267.599 131.487C267.408 132.428 266.738 133.7 265.643 135.237C264.557 136.759 263.09 138.493 261.366 140.349C257.918 144.061 253.473 148.233 249.073 152.151C244.673 156.067 240.325 159.721 237.077 162.397C235.454 163.734 234.106 164.827 233.163 165.585C232.762 165.908 232.434 166.17 232.19 166.365L223.594 146.991L228.591 144.701L228.657 144.671L228.711 144.624L250.109 125.958L250.23 125.853L250.267 125.697L257.83 93.7435L270.573 99.0648Z" fill="white" stroke="black"/>
<path d="M230.398 151.731C230.458 151.728 230.574 152.791 230.794 154.507C231.026 156.338 231.319 158.655 231.643 161.218C231.966 163.841 232.23 166.22 232.379 167.947C232.454 168.81 232.504 169.51 232.525 169.995C232.546 170.48 232.544 170.749 232.515 170.752C232.456 170.757 232.313 169.695 232.086 167.979C231.853 166.148 231.557 163.831 231.23 161.268C230.906 158.646 230.644 156.266 230.502 154.538C230.431 153.674 230.39 152.972 230.374 152.487C230.362 152.002 230.37 151.733 230.398 151.731Z" fill="#263238"/>
<path d="M215.794 195.417C215.783 195.426 215.646 195.285 215.394 195.006C215.118 194.694 214.758 194.286 214.308 193.777C213.348 192.662 212.011 191.109 210.373 189.206C207.054 185.288 202.52 179.935 197.511 174.022C194.998 171.028 192.606 168.178 190.441 165.598L190.355 165.496L190.421 165.381C190.958 164.433 191.477 163.518 191.974 162.642L192.171 162.905C191.245 163.099 190.366 163.141 189.566 163.314L189.334 163.365L189.363 163.132C189.793 159.733 190.146 156.929 190.4 154.922C190.53 153.978 190.634 153.224 190.711 152.661C190.788 152.142 190.837 151.868 190.854 151.87C190.87 151.873 190.854 152.15 190.81 152.672C190.754 153.238 190.681 153.996 190.588 154.944C190.37 156.954 190.064 159.765 189.694 163.171L189.492 162.989C190.328 162.798 191.211 162.748 192.091 162.554L192.483 162.467L192.288 162.818C191.797 163.698 191.286 164.617 190.755 165.569L190.734 165.351C192.907 167.925 195.308 170.767 197.83 173.754C202.803 179.698 207.304 185.078 210.598 189.016C212.194 190.954 213.497 192.536 214.432 193.673C214.857 194.202 215.198 194.628 215.458 194.953C215.69 195.247 215.806 195.407 215.794 195.417Z" fill="#262524"/>
<path d="M218.953 193.104C218.938 193.102 218.955 192.918 219.001 192.572C219.057 192.183 219.129 191.682 219.218 191.059C219.419 189.748 219.738 187.854 220.149 185.519C220.557 183.183 221.058 180.406 221.512 177.308C221.965 174.212 222.358 170.789 222.418 167.182C222.495 163.245 222.173 159.51 221.587 156.243L221.73 156.394C220.761 156.161 219.83 155.938 218.94 155.725L218.516 155.623L218.89 155.402C219.604 154.978 220.281 154.578 220.926 154.196L220.88 154.433C219.995 153.166 219.335 151.956 218.719 150.903C218.122 149.858 217.601 148.947 217.165 148.185C216.735 147.438 216.392 146.862 216.152 146.474C215.915 146.085 215.779 145.887 215.795 145.875C215.802 145.87 215.843 145.914 215.918 146.006C215.993 146.096 216.101 146.234 216.232 146.422C216.498 146.794 216.868 147.357 217.322 148.09C217.778 148.843 218.321 149.741 218.945 150.771C219.578 151.807 220.266 153.018 221.142 154.238L221.246 154.383L221.094 154.475C220.453 154.865 219.781 155.273 219.071 155.704L219.021 155.381C219.913 155.586 220.845 155.802 221.816 156.026L221.936 156.054L221.959 156.176C222.574 159.46 222.913 163.226 222.834 167.19C222.774 170.822 222.367 174.262 221.893 177.364C221.416 180.468 220.885 183.242 220.439 185.571C219.998 187.862 219.638 189.734 219.378 191.086C219.258 191.702 219.16 192.199 219.084 192.584C219.012 192.928 218.967 193.106 218.953 193.104Z" fill="#262524"/>
<path d="M221.573 201.714C221.586 201.74 221.364 201.879 220.95 202.109C220.538 202.341 219.93 202.653 219.169 203.02C217.648 203.756 215.502 204.686 213.07 205.547C210.636 206.406 208.382 207.034 206.738 207.418C205.915 207.61 205.246 207.75 204.779 207.829C204.314 207.91 204.054 207.942 204.047 207.913C204.034 207.852 205.043 207.588 206.663 207.132C208.283 206.676 210.51 206.009 212.93 205.154C215.349 204.297 217.5 203.415 219.046 202.751C220.594 202.089 221.546 201.659 221.573 201.714Z" fill="#263238"/>
<path d="M222.284 208.253C222.28 208.313 221.521 208.313 220.298 208.314C219.074 208.314 217.386 208.327 215.522 208.407C213.659 208.488 211.975 208.62 210.756 208.725C209.537 208.829 208.781 208.894 208.772 208.834C208.764 208.78 209.506 208.612 210.722 208.432C211.938 208.252 213.629 208.072 215.505 207.99C217.379 207.91 219.08 207.944 220.306 208.019C221.533 208.094 222.287 208.198 222.284 208.253Z" fill="#263238"/>
<path d="M219.178 201.879C219.063 201.882 218.919 199.92 218.858 197.498C218.795 195.074 218.838 193.107 218.954 193.105C219.069 193.102 219.212 195.064 219.274 197.487C219.336 199.91 219.294 201.877 219.178 201.879Z" fill="#263238"/>
<path d="M218.55 207.862C218.437 207.879 218.189 206.865 217.996 205.596C217.803 204.326 217.74 203.284 217.854 203.267C217.967 203.25 218.215 204.265 218.408 205.534C218.6 206.802 218.664 207.846 218.55 207.862Z" fill="#263238"/>
<path d="M223.552 239.082C223.523 239.083 223.478 238.658 223.422 237.887C223.366 237.118 223.286 236.003 223.162 234.63C222.929 231.881 222.514 228.092 221.892 223.93C221.266 219.766 220.553 216.022 219.97 213.326C219.685 211.976 219.436 210.887 219.264 210.135C219.092 209.382 219.01 208.962 219.038 208.955C219.066 208.948 219.2 209.354 219.421 210.094C219.641 210.835 219.934 211.916 220.258 213.26C220.915 215.946 221.677 219.694 222.304 223.868C222.927 228.042 223.298 231.847 223.456 234.608C223.542 235.988 223.578 237.107 223.584 237.88C223.591 238.654 223.581 239.082 223.552 239.082Z" fill="#263238"/>
<g opacity="0.3">
<path d="M189.394 163.258L190.333 163.651L189.293 166.065C189.293 166.065 205.318 185.63 209.669 189.414C214.949 194.006 215.106 194.599 215.106 194.599L190.587 165.474L192.13 162.728L189.394 163.258Z" fill="#1A1C1E"/>
</g>
<g opacity="0.3">
<path d="M200.89 208.876C208.739 206.43 216.588 203.984 224.438 201.538C224.817 202.882 224.137 204.35 223.085 205.267C222.032 206.184 220.669 206.65 219.326 207.031C213.658 208.638 206.819 209.625 200.976 208.876" fill="#1A1C1E"/>
</g>
<path d="M168.934 191.182C168.815 191.243 168.112 189.302 166.25 187.706C164.414 186.078 162.397 185.646 162.441 185.521C162.45 185.474 162.962 185.511 163.746 185.774C164.528 186.033 165.566 186.56 166.524 187.392C167.478 188.227 168.142 189.184 168.505 189.923C168.873 190.664 168.979 191.166 168.934 191.182Z" fill="#263238"/>
<path d="M177.314 169.334C177.328 169.331 177.372 169.462 177.442 169.714C177.518 170.013 177.613 170.378 177.726 170.819C177.97 171.846 178.299 173.225 178.698 174.902C179.5 178.353 180.582 183.126 181.752 188.403C182.895 193.658 183.93 198.412 184.696 201.931C185.046 203.618 185.334 205.006 185.548 206.04C185.634 206.487 185.705 206.857 185.762 207.161C185.808 207.418 185.826 207.554 185.814 207.556C185.781 207.566 185.632 207.036 185.39 206.076C185.143 205.05 184.811 203.671 184.408 201.996C183.6 198.546 182.516 193.773 181.345 188.494C180.174 183.216 179.138 178.433 178.41 174.966C178.064 173.278 177.779 171.888 177.567 170.854C177.484 170.406 177.415 170.036 177.359 169.732C177.316 169.474 177.3 169.337 177.314 169.334Z" fill="#263238"/>
<path d="M137.15 181.599C137.214 181.624 136.954 182.016 137.202 182.596C137.32 182.869 137.566 183.174 137.92 183.274C138.268 183.386 138.698 183.213 138.966 182.858C139.233 182.502 139.281 182.041 139.077 181.737C138.882 181.425 138.521 181.272 138.226 181.234C137.6 181.158 137.296 181.515 137.254 181.461C137.237 181.448 137.274 181.336 137.43 181.203C137.584 181.07 137.871 180.939 138.245 180.941C138.606 180.949 139.086 181.088 139.397 181.526C139.722 181.966 139.655 182.65 139.298 183.109C138.957 183.578 138.318 183.832 137.806 183.642C137.298 183.464 137.031 183.042 136.924 182.697C136.819 182.338 136.865 182.026 136.95 181.842C137.035 181.653 137.132 181.586 137.15 181.599Z" fill="#263238"/>
<path d="M259.269 97.636C259.258 97.6224 259.337 97.512 259.564 97.452C259.79 97.392 260.149 97.46 260.479 97.6976C260.798 97.9384 261.138 98.3272 261.22 98.8984C261.311 99.4928 260.866 100.13 260.259 100.338C259.666 100.578 258.959 100.457 258.55 100.036C258.124 99.5992 258.161 99.0088 258.272 98.644C258.526 97.872 258.978 97.6032 258.996 97.636C259.055 97.68 258.704 98.0256 258.558 98.7144C258.494 99.0472 258.515 99.484 258.82 99.7624C259.116 100.044 259.645 100.136 260.109 99.9488C260.582 99.78 260.88 99.3432 260.838 98.9376C260.8 98.5168 260.542 98.1536 260.295 97.9288C260.038 97.704 259.77 97.6104 259.582 97.6136C259.394 97.6152 259.287 97.6688 259.269 97.636Z" fill="#263238"/>
<path d="M146.31 152.515C151.559 145.818 158.648 140.522 167.206 139.151C171.625 138.443 175.905 139.18 180.099 140.602C184.546 142.109 188.812 143.902 193.504 144.521C198.894 145.23 204.315 144.735 209.688 144.121C210.73 144.002 214.575 143.022 214.575 141.887C214.575 140.93 210.738 140.116 209.688 140.236C204.808 140.794 199.87 141.28 194.962 140.806C190.174 140.344 185.803 138.452 181.298 136.913C176.834 135.387 172.25 134.62 167.538 135.214C162.876 135.802 158.408 137.414 154.413 139.89C150.226 142.484 146.594 145.902 143.563 149.769C142.917 150.594 142.758 151.711 143.563 152.516C144.235 153.188 145.659 153.346 146.31 152.515Z" fill="#455A64"/>
<g opacity="0.3">
<path d="M146.328 152.569C151.578 145.871 158.666 140.575 167.225 139.205C171.643 138.497 175.923 139.234 180.118 140.655C184.565 142.162 188.83 143.957 193.522 144.574C198.912 145.284 204.334 144.789 209.706 144.174C210.749 144.055 214.575 143.382 214.575 142.247C214.575 141.29 210.755 140.169 209.706 140.29C204.826 140.848 199.889 141.334 194.98 140.86C190.192 140.398 185.822 138.506 181.317 136.966C176.852 135.441 172.269 134.674 167.557 135.268C162.894 135.856 158.426 137.468 154.431 139.943C150.245 142.538 146.613 145.955 143.582 149.822C142.935 150.647 142.777 151.765 143.582 152.57C144.254 153.242 145.677 153.399 146.328 152.569Z" fill="#1A1C1E"/>
</g>
<path d="M222.421 105.29C224.246 104.255 224.609 101.478 223.367 99.7784C222.125 98.0792 219.708 97.5096 217.698 98.1104C218.223 96.94 217.652 95.4864 216.643 94.6952C215.634 93.9032 214.299 93.6624 213.02 93.6512C211.299 93.636 209.331 94.18 208.622 95.7536C208.35 94.7304 207.189 94.2096 206.138 94.1352C203.316 93.936 200.553 96.2448 200.234 99.0664C199.263 98.584 198.178 98.2216 197.11 98.3968C196.043 98.5728 195.029 99.4264 194.975 100.511C194.358 99.6368 193.142 99.4424 192.08 99.5296C191.313 99.5928 190.524 99.7784 189.929 100.269C189.334 100.759 188.99 101.615 189.274 102.334C187.814 102.05 186.22 103.035 185.815 104.473C185.411 105.91 186.255 107.59 187.648 108.118C186.638 108.94 186.097 110.306 186.268 111.602C186.439 112.897 187.318 114.075 188.507 114.606C187.881 114.77 187.713 115.686 188.098 116.21C188.483 116.734 188.223 116.77 188.87 116.752C189.001 118.992 189.174 120.714 189.305 122.954C189.39 124.399 189.362 126.295 189.891 127.642C190.42 128.99 192.305 130.446 193.703 130.799L220.405 120.832C222.2 118.994 222.771 116.054 221.797 113.669C221.687 113.402 221.558 113.11 221.646 112.834C221.721 112.598 221.936 112.441 222.13 112.287C223.194 111.442 223.958 110.181 224.062 108.822C224.169 107.463 223.558 106.035 222.421 105.29Z" fill="#262524"/>
<path d="M208.054 105.15C210.542 104.773 213.251 105.776 215.434 107.566C217.484 109.248 219.004 111.57 219.42 113.949L219.488 114.425C220.117 120.057 220.661 126.826 220.326 131.326L220.247 132.196C219.767 136.61 217.879 139.137 216.143 140.564C215.269 141.282 214.426 141.727 213.805 141.992C213.494 142.125 213.24 142.213 213.066 142.267C212.98 142.294 212.913 142.311 212.869 142.323C212.848 142.328 212.832 142.332 212.822 142.334C212.818 142.335 212.814 142.337 212.813 142.337H212.812L212.394 142.427L212.418 142.854L213.465 161.186L195.77 150.644L191.382 111.684L191.213 109.202L208.054 105.15Z" fill="#CCCCCC" stroke="black"/>
<path d="M216.662 122.245C216.713 122.855 216.24 123.402 215.606 123.466C214.974 123.53 214.418 123.089 214.367 122.478C214.316 121.867 214.789 121.32 215.422 121.255C216.055 121.191 216.61 121.634 216.662 122.245Z" fill="#263238"/>
<path d="M218.58 118.276C218.445 118.434 217.539 117.826 216.298 117.888C215.058 117.933 214.178 118.617 214.037 118.47C213.967 118.406 214.1 118.126 214.482 117.818C214.859 117.51 215.511 117.198 216.284 117.165C217.057 117.133 217.722 117.387 218.109 117.662C218.505 117.938 218.647 118.205 218.58 118.276Z" fill="#263238"/>
<path d="M205.803 122.59C205.854 123.2 205.382 123.746 204.748 123.811C204.115 123.875 203.56 123.434 203.509 122.823C203.458 122.213 203.93 121.666 204.563 121.602C205.197 121.536 205.752 121.978 205.803 122.59Z" fill="#263238"/>
<path d="M206.439 119.354C206.303 119.511 205.397 118.903 204.157 118.966C202.917 119.01 202.037 119.694 201.894 119.548C201.826 119.483 201.956 119.204 202.34 118.895C202.716 118.588 203.368 118.275 204.142 118.242C204.915 118.21 205.579 118.465 205.967 118.739C206.362 119.015 206.506 119.282 206.439 119.354Z" fill="#263238"/>
<path d="M211.346 128.117C211.336 128.046 212.102 127.876 213.344 127.656C213.659 127.608 213.956 127.53 213.999 127.311C214.062 127.078 213.914 126.741 213.742 126.378C213.406 125.622 213.055 124.829 212.686 123.998C211.218 120.61 210.138 117.817 210.274 117.759C210.41 117.701 211.711 120.401 213.18 123.79C213.534 124.626 213.874 125.422 214.196 126.186C214.334 126.542 214.56 126.942 214.422 127.426C214.348 127.669 214.123 127.852 213.923 127.917C213.723 127.989 213.545 128.001 213.389 128.018C212.134 128.145 211.354 128.187 211.346 128.117Z" fill="#263238"/>
<path d="M212.918 142.826C212.918 142.826 206.888 143.504 200.718 140.17C200.718 140.17 204.401 146.882 213.36 145.61L212.918 142.826Z" fill="#FAFAFA"/>
<path d="M207.735 129.152C207.937 129.13 208.005 130.483 209.205 131.389C210.402 132.298 211.831 132.078 211.85 132.266C211.874 132.35 211.543 132.544 210.938 132.59C210.344 132.638 209.466 132.488 208.733 131.934C208.001 131.378 207.66 130.606 207.587 130.054C207.508 129.491 207.642 129.149 207.735 129.152Z" fill="#263238"/>
<path d="M206.597 114.882C206.49 115.227 205.244 115.125 203.797 115.37C202.344 115.586 201.191 116.07 200.983 115.775C200.89 115.634 201.079 115.306 201.538 114.955C201.992 114.606 202.728 114.258 203.597 114.119C204.466 113.982 205.274 114.083 205.814 114.275C206.36 114.466 206.642 114.719 206.597 114.882Z" fill="#263238"/>
<path d="M217.949 114.69C217.744 114.984 216.875 114.73 215.846 114.766C214.817 114.764 213.957 115.046 213.742 114.759C213.648 114.619 213.771 114.33 214.138 114.043C214.5 113.758 215.117 113.51 215.824 113.498C216.531 113.487 217.156 113.715 217.527 113.988C217.905 114.262 218.038 114.547 217.949 114.69Z" fill="#263238"/>
<path d="M215.773 104.137L215.219 103.902C216.091 101.948 214.614 99.448 212.536 98.9592C210.458 98.4704 208.218 99.7552 207.238 101.657C206.32 99.9608 204.127 99.084 202.302 99.6832C200.79 100.18 199.709 101.482 198.672 102.693C198.438 102.966 198.142 103.262 197.785 103.221C197.524 103.19 197.323 102.986 197.129 102.808C195.412 101.231 192.665 101.112 190.611 102.204C188.558 103.296 187.174 105.409 186.555 107.659C186.303 108.578 186.166 109.56 186.404 110.484C186.642 111.408 187.317 112.262 188.238 112.498C187.429 113.632 187.183 115.152 187.592 116.486C188.002 117.821 189.057 118.94 190.362 119.423C190.452 119.732 190.592 120.021 190.754 120.296C190.618 121.941 190.525 123.588 190.58 125.237C190.604 125.946 190.662 126.684 191.016 127.3C191.37 127.916 192.101 128.369 192.782 128.18C193.53 127.972 194.572 127.596 194.792 126.848C195.184 125.517 194.754 123.686 194.853 122.302C196.238 122.077 197.504 121.115 198.026 119.8C198.646 118.238 198.174 116.302 196.903 115.203C198.189 115.739 199.725 115.619 200.91 114.891C202.096 114.163 202.902 112.845 203.011 111.452C204.27 112.658 206.07 113.269 207.798 113.079C208.62 112.989 209.468 112.694 209.984 112.046C210.5 111.398 210.549 110.338 209.924 109.792C211.507 110.516 213.513 110.173 214.765 108.962C216.015 107.753 216.434 105.753 215.773 104.137Z" fill="#262524"/>
<path d="M192.032 123.24C191.889 123.227 186.485 123.381 188.294 128.379C190.102 133.378 194.728 130.545 194.684 130.399C194.641 130.252 192.032 123.24 192.032 123.24Z" fill="#CCCCCC"/>
<path d="M202.743 110.549C202.742 110.554 202.792 110.564 202.888 110.578C202.984 110.594 203.127 110.61 203.314 110.623C203.688 110.647 204.246 110.669 204.942 110.54C205.288 110.474 205.67 110.37 206.057 110.184C206.443 110.003 206.842 109.74 207.17 109.36C207.498 108.984 207.765 108.505 207.894 107.953C208.017 107.405 207.986 106.764 207.673 106.209L207.532 106.344C208.538 107 209.859 107.385 211.249 107.283C211.942 107.238 212.646 107.062 213.313 106.758C213.644 106.602 213.97 106.41 214.252 106.15C214.535 105.894 214.762 105.552 214.87 105.171C215.002 104.724 214.985 104.26 214.915 103.828C214.846 103.393 214.724 102.98 214.597 102.578C214.466 102.176 214.306 101.78 214.063 101.433C213.828 101.088 213.453 100.793 213.02 100.76L212.981 100.978C213.797 101.188 214.638 101.08 215.338 100.77C216.043 100.466 216.621 99.9744 217.014 99.4032C217.402 98.8296 217.603 98.1744 217.599 97.568C217.606 96.9608 217.462 96.4088 217.254 95.9504C216.83 95.0256 216.177 94.4944 215.71 94.2288C215.233 93.964 214.935 93.9248 214.935 93.9248C214.927 93.9472 215.218 94.0128 215.673 94.292C216.118 94.5712 216.737 95.1048 217.128 96.0064C217.32 96.4528 217.448 96.9856 217.434 97.564C217.429 98.1416 217.23 98.7544 216.858 99.2952C216.481 99.832 215.926 100.295 215.255 100.579C214.589 100.869 213.796 100.962 213.038 100.763L212.998 100.981C213.351 101.01 213.662 101.247 213.878 101.564C214.098 101.88 214.251 102.258 214.378 102.649C214.617 103.43 214.874 104.293 214.646 105.105C214.457 105.798 213.842 106.258 213.214 106.547C212.576 106.841 211.899 107.011 211.232 107.058C209.893 107.162 208.615 106.798 207.64 106.174L207.294 105.953L207.498 106.309C207.786 106.81 207.823 107.396 207.714 107.912C207.598 108.43 207.352 108.89 207.046 109.251C206.739 109.615 206.366 109.872 205.994 110.055C205.623 110.242 205.254 110.351 204.917 110.424C204.239 110.567 203.687 110.565 203.315 110.561C202.943 110.553 202.744 110.536 202.743 110.549Z" fill="white"/>
<path d="M216.824 107.855C216.819 107.868 216.926 107.928 217.138 107.986C217.35 108.044 217.673 108.091 218.069 108.042C218.459 107.988 218.938 107.848 219.345 107.476C219.541 107.289 219.717 107.021 219.727 106.697C219.74 106.39 219.604 106.026 219.27 105.868L219.192 106.087C219.218 106.093 219.245 106.099 219.273 106.106C220.506 106.403 221.651 105.95 222.272 105.458C222.592 105.211 222.809 104.963 222.935 104.778C223.062 104.593 223.112 104.479 223.101 104.472C223.064 104.443 222.815 104.883 222.176 105.322C221.558 105.76 220.472 106.154 219.328 105.878C219.302 105.872 219.277 105.866 219.253 105.861L218.145 105.612L219.174 106.08C219.394 106.179 219.509 106.447 219.501 106.69C219.497 106.933 219.363 107.157 219.196 107.322C218.85 107.656 218.406 107.812 218.043 107.881C217.297 108.009 216.831 107.81 216.824 107.855Z" fill="white"/>
<path d="M259.798 93.7392L260.386 90.42C260.386 90.42 258.45 83.2216 258.651 82.1864C258.852 81.1512 259.061 76.2104 259.061 76.2104L264.04 70.5768C264.04 70.5768 265.184 70.4824 265.723 71.6096C265.723 71.6096 267.994 71.4264 268.506 72.964C268.506 72.964 270.157 72.2312 270.426 74.0632C270.578 75.0952 270.586 75.4176 270.563 75.5016C270.89 75.5728 272.773 76.0256 272.792 76.9632C272.808 77.736 272.492 79.9448 271.999 81.1856C271.804 81.6784 271.364 82.0312 270.845 82.14L270.29 84.696C270.29 84.696 269.798 88.884 268.859 90.8424L268.15 92L267.935 97.2216L259.798 93.7392Z" fill="#CCCCCC"/>
<path d="M267.162 75.1407C266.951 73.8087 266.332 72.5647 265.61 71.4255L263.704 72.6367C263.884 73.3447 264.191 73.8255 264.481 74.5279C264.77 75.2303 265.325 75.8655 266.061 76.0551C266.478 76.1631 267.023 76.0503 267.158 75.6407C267.21 75.4807 267.189 75.3063 267.162 75.1407Z" fill="#CCCCCC"/>
<path d="M263.704 72.6368C263.694 72.6392 263.715 72.7816 263.79 73.0296C263.864 73.2784 264.012 73.6248 264.203 74.0416C264.296 74.256 264.395 74.4872 264.502 74.7336C264.619 74.9832 264.778 75.236 264.988 75.468C265.196 75.7 265.463 75.9072 265.78 76.0424C266.09 76.1784 266.485 76.2344 266.838 76.08C267.014 76.0064 267.169 75.8568 267.231 75.6704C267.294 75.4824 267.266 75.2968 267.24 75.1336C267.186 74.8032 267.11 74.4888 267.019 74.1952C266.838 73.608 266.61 73.104 266.397 72.6936C266.183 72.284 265.987 71.9656 265.846 71.7496C265.705 71.5336 265.618 71.42 265.61 71.4256C265.599 71.432 265.669 71.5568 265.793 71.7816C265.917 72.0064 266.097 72.3312 266.296 72.744C266.494 73.1568 266.709 73.6584 266.878 74.2368C266.963 74.5256 267.036 74.8336 267.086 75.1568C267.11 75.3168 267.129 75.4792 267.081 75.6192C267.033 75.7584 266.919 75.8712 266.773 75.9344C266.474 76.064 266.13 76.024 265.84 75.8984C265.547 75.7752 265.295 75.5856 265.095 75.368C264.894 75.152 264.738 74.9128 264.62 74.676C264.507 74.44 264.409 74.1976 264.305 73.9944C264.1 73.5816 263.94 73.2488 263.849 73.0096C263.757 72.7704 263.716 72.6336 263.704 72.6368Z" fill="#FAFAFA"/>
<path d="M266.737 76.0335C266.731 76.0335 266.726 76.0719 266.72 76.1455C266.713 76.2191 266.712 76.3287 266.72 76.4695C266.738 76.7495 266.806 77.1639 267.034 77.6207C267.262 78.0743 267.635 78.5671 268.193 78.9607C268.473 79.1463 268.852 79.2847 269.235 79.1879C269.422 79.1431 269.607 79.0456 269.739 78.8856C269.874 78.7256 269.93 78.5135 269.934 78.3127C269.933 77.9071 269.823 77.5512 269.747 77.1976C269.662 76.8464 269.569 76.5111 269.475 76.1935C269.282 75.5703 269.106 75.004 268.955 74.5168C268.808 74.04 268.699 73.6511 268.628 73.3815C268.556 73.1119 268.517 72.9624 268.506 72.9648C268.496 72.9664 268.514 73.1208 268.568 73.396C268.621 73.6712 268.714 74.0663 268.847 74.5487C268.989 75.0383 269.154 75.6079 269.334 76.2351C269.424 76.5519 269.514 76.8863 269.596 77.2343C269.67 77.5815 269.776 77.9496 269.775 78.3088C269.771 78.4872 269.722 78.6584 269.617 78.7856C269.512 78.9144 269.358 78.9983 269.198 79.0375C268.871 79.1223 268.537 79.0087 268.271 78.8383C267.743 78.4759 267.362 77.9991 267.133 77.5703C266.899 77.1359 266.817 76.7383 266.781 76.4655C266.747 76.1887 266.75 76.0335 266.737 76.0335Z" fill="#FAFAFA"/>
<path d="M267.952 78.728C267.946 78.7264 267.931 78.7696 267.906 78.8544C267.878 78.9384 267.852 79.0656 267.821 79.2304C267.767 79.56 267.727 80.0503 267.82 80.6463C267.914 81.2303 268.146 81.9656 268.754 82.5184C269.05 82.7912 269.456 83.0064 269.918 83.0008C270.146 82.9936 270.392 82.9032 270.554 82.7176C270.718 82.5344 270.791 82.2928 270.823 82.0632C270.9 81.1392 270.832 80.2791 270.783 79.4927C270.722 78.7159 270.667 78.012 270.62 77.4104C270.575 76.8184 270.551 76.3384 270.539 76.0072C270.526 75.6752 270.523 75.4911 270.511 75.4911C270.506 75.4911 270.5 75.5368 270.494 75.624C270.488 75.7112 270.479 75.8408 270.478 76.0072C270.47 76.34 270.478 76.8232 270.508 77.4176C270.546 78.02 270.589 78.7239 270.637 79.5023C270.678 80.2823 270.739 81.1552 270.666 82.0416C270.635 82.2568 270.57 82.4639 270.436 82.6128C270.304 82.7639 270.109 82.8375 269.912 82.8463C269.512 82.8551 269.127 82.6632 268.85 82.4104C268.274 81.8992 268.035 81.196 267.93 80.628C267.729 79.4584 267.994 78.728 267.952 78.728Z" fill="#FAFAFA"/>
<path d="M217.514 76.092L217.593 75.9L217.712 76.0704C217.808 76.2064 217.94 76.3128 218.094 76.376L218.286 76.4552L218.116 76.5744C217.98 76.6704 217.874 76.8024 217.81 76.9568L217.731 77.1488L217.612 76.9784C217.516 76.8424 217.384 76.736 217.23 76.6728L217.038 76.5936L217.208 76.4744C217.344 76.3792 217.45 76.2464 217.514 76.092Z" fill="#E0E0E0"/>
<path d="M270.791 54L270.927 53.6688L271.133 53.9616C271.298 54.1968 271.526 54.3792 271.791 54.488L272.122 54.624L271.83 54.8296C271.594 54.9944 271.412 55.2224 271.303 55.488L271.167 55.8192L270.962 55.5264C270.797 55.292 270.569 55.1088 270.303 55L269.972 54.864L270.265 54.6584C270.5 54.4936 270.682 54.2648 270.791 54Z" fill="#E0E0E0"/>
<path d="M268.447 42.0576L268.675 41.5016L269.021 41.9936C269.298 42.388 269.682 42.6952 270.127 42.8776L270.683 43.1056L270.19 43.4512C269.796 43.728 269.489 44.112 269.306 44.5576L269.078 45.1136L268.733 44.6208C268.456 44.2264 268.072 43.9192 267.626 43.7368L267.07 43.5088L267.562 43.1632C267.957 42.888 268.264 42.504 268.447 42.0576Z" fill="#E0E0E0"/>
<path d="M241.462 91.7192L241.266 91.1504L241.85 91.2928C242.318 91.4072 242.81 91.3848 243.266 91.2288L243.834 91.0336L243.691 91.6176C243.577 92.0856 243.599 92.5768 243.755 93.0328L243.95 93.6016L243.366 93.4592C242.898 93.3448 242.407 93.3672 241.951 93.5232L241.382 93.7184L241.526 93.1344C241.641 92.6664 241.618 92.1752 241.462 91.7192Z" fill="#E0E0E0"/>
<path d="M231.755 71.2256C230.739 72.4448 229.691 73.6432 228.706 74.8864C227.841 75.9768 227.43 77.3352 227.694 78.7184C227.978 80.208 228.917 81.1912 230.123 82.0184C233.855 84.5776 238.429 86.736 243.071 86.168C246.275 85.776 248.99 84.0288 251.05 81.5936C251.882 80.6096 250.345 79.328 249.511 80.3128C247.962 82.1448 245.973 83.5976 243.581 84.0672C241.57 84.4616 239.47 84.2008 237.532 83.5768C235.674 82.9784 233.899 82.0872 232.254 81.0424C231.485 80.5552 230.487 80.0288 230 79.24C229.388 78.248 229.539 77.0608 230.243 76.1672C231.226 74.9216 232.278 73.7256 233.293 72.5064C234.118 71.5168 232.582 70.2344 231.755 71.2256Z" fill="#FFAD3A"/>
<path d="M252.553 49.1256C253.51 47.9768 254.461 46.824 255.423 45.68C255.997 44.9976 256.683 44.492 257.619 44.4896C258.797 44.4864 259.545 45.3008 260.305 46.0824C262.996 48.8488 265.487 52.404 265.758 56.3696C265.942 59.0936 264.866 61.5896 263.162 63.6672C262.345 64.6624 263.881 65.9464 264.7 64.9488C266.514 62.7384 267.7 60.1232 267.771 57.2392C267.833 54.7664 267.049 52.3872 265.893 50.2288C264.822 48.2288 263.398 46.4472 261.839 44.8072C260.945 43.8664 260.054 42.9648 258.751 42.632C257.305 42.2624 255.723 42.6496 254.606 43.6352C253.247 44.8336 252.172 46.4568 251.015 47.8448C250.19 48.8336 251.727 50.1168 252.553 49.1256Z" fill="#FFAD3A"/>
<path d="M266.916 77.2752L264.808 78.8712L264.784 78.8512L264.753 78.9128L264.698 78.9544L264.722 78.9744L263.533 81.336C263.533 81.336 267.226 84.8592 268.795 88.6984L271.909 84.9608L271.995 84.8568L275.109 81.1192C271.049 80.2712 266.916 77.2752 266.916 77.2752Z" fill="#FFAD3A"/>
<path d="M267.817 76.812L263.24 82.3064C262.648 83.0168 261.593 83.1128 260.882 82.5216C260.172 81.9296 260.075 80.8744 260.667 80.164L265.244 74.6696C265.836 73.9592 266.892 73.8632 267.602 74.4544C268.313 75.0456 268.409 76.1016 267.817 76.812Z" fill="#FFAD3A"/>
<path d="M248.806 43.5936L238.001 56.5648L237.427 57.2536L227.221 69.5056C227.41 69.8112 251.846 92.332 263.326 77.6624L263.352 77.6312C275.706 63.6896 249.141 43.7248 248.806 43.5936Z" fill="#FFAD3A"/>
<path d="M248.806 43.5936C248.799 43.5856 248.905 43.6344 249.066 43.7488C249.23 43.8608 249.471 44.0336 249.78 44.2688C250.399 44.7384 251.296 45.4512 252.413 46.416C254.629 48.3552 257.797 51.2616 261.033 55.4504C262.611 57.5632 264.252 59.988 265.422 62.8896C266.613 65.7408 267.305 69.228 266.334 72.6696C265.858 74.3712 264.986 76.0192 263.778 77.4112C262.644 78.8408 261.301 80.2288 259.612 81.1768C257.94 82.1424 255.997 82.676 254.018 82.7888C252.034 82.9072 250.021 82.6384 248.058 82.14C243.759 81.016 239.904 78.9816 236.424 76.792C234.684 75.688 233.036 74.5232 231.475 73.3312C230.695 72.7352 229.937 72.1312 229.204 71.5184C228.841 71.208 228.48 70.9 228.122 70.5944C227.758 70.2656 227.443 70.0096 227.059 69.6048L226.97 69.5104L227.075 69.3848C233.486 61.7408 238.906 55.2776 242.739 50.7056C244.646 48.4552 246.158 46.6704 247.21 45.4288C247.716 44.8392 248.11 44.3784 248.394 44.048C248.52 43.9048 248.62 43.792 248.7 43.7008C248.77 43.6248 248.805 43.5888 248.806 43.5936C248.808 43.5984 248.774 43.6448 248.708 43.7312C248.63 43.8304 248.533 43.9528 248.411 44.108C248.134 44.4512 247.746 44.9296 247.25 45.5432C246.219 46.8016 244.738 48.6112 242.868 50.8936C239.074 55.4792 233.71 61.9608 227.366 69.6272L227.242 69.4936C227.285 69.4688 227.406 69.3936 227.384 69.4096L227.386 69.412L227.392 69.4168L227.402 69.4264L227.422 69.4456L227.474 69.496L227.598 69.6128L227.852 69.8456L228.374 70.3088C228.73 70.6112 229.09 70.916 229.451 71.2232C230.182 71.8304 230.937 72.4288 231.714 73.02C233.27 74.2016 234.91 75.3568 236.642 76.4504C240.102 78.62 243.93 80.6328 248.161 81.7384C250.091 82.2288 252.062 82.4912 253.992 82.3768C255.918 82.268 257.794 81.7544 259.41 80.824C261.045 79.9072 262.339 78.5784 263.47 77.1616C264.656 75.8 265.498 74.2128 265.964 72.5664C266.914 69.2424 266.262 65.8384 265.102 63.02C263.963 60.156 262.35 57.7392 260.798 55.6296C257.612 51.4432 254.483 48.5104 252.306 46.5392C251.208 45.5576 250.33 44.8256 249.728 44.336C249.439 44.104 249.211 43.9216 249.04 43.784C248.882 43.6576 248.812 43.6032 248.806 43.5936Z" fill="#263238"/>
<g opacity="0.3">
<path d="M248.806 43.5936C250.377 44.9072 251.923 46.0824 253.338 47.3696C262.887 56.0496 269.05 65.872 265.625 74.2112L262.986 78.2456C262.986 78.2456 265.766 68.024 260.566 60.6352C255.366 53.2456 248.244 44.8672 248.244 44.8672L248.806 43.5936Z" fill="#1A1C1E"/>
</g>
<path d="M281.714 79.0552L268.236 95.2352L268.235 95.2344C266.026 93.3936 265.727 90.1104 267.567 87.9008L274.381 79.7216C276.222 77.5128 279.505 77.2144 281.714 79.0552Z" fill="#FFAD3A"/>
<path d="M283.715 76.2267L265.625 97.9395L276.075 106.646L294.165 84.9331L283.715 76.2267Z" fill="#263238"/>
<path d="M283.733 81.7168L270.934 97.0785L276.058 101.347L288.856 85.985L283.733 81.7168Z" fill="#455A64"/>
<path d="M244.645 61.7312L249.69 62.9448L253.55 59.4768L253.955 64.6504L258.447 67.2504L253.651 69.2336L252.566 74.3088L249.198 70.3608L244.037 70.8976L246.75 66.4744L244.645 61.7312Z" fill="white"/>
<path d="M257.806 80.096C257.806 80.096 257.787 80.1144 257.746 80.148C257.702 80.1832 257.641 80.2312 257.562 80.2936C257.399 80.4184 257.143 80.5848 256.794 80.7616C256.44 80.928 255.989 81.0968 255.444 81.2096C254.9 81.324 254.266 81.3848 253.566 81.3776C252.867 81.3656 252.102 81.2936 251.293 81.148C250.89 81.0696 250.473 80.9888 250.043 80.9048C249.617 80.8088 249.182 80.692 248.733 80.5816C246.949 80.1016 245.036 79.3976 243.108 78.4912C241.178 77.5864 239.412 76.5744 237.846 75.5992C236.278 74.6224 234.906 73.684 233.762 72.8848C232.622 72.0792 231.709 71.416 231.08 70.9536C230.769 70.7232 230.526 70.5432 230.358 70.4184C230.278 70.3584 230.217 70.3112 230.172 70.2776C230.13 70.2456 230.11 70.2272 230.11 70.2272C230.11 70.2272 230.134 70.2408 230.178 70.2704C230.224 70.3024 230.287 70.3472 230.369 70.404C230.539 70.5256 230.786 70.7008 231.1 70.9256C231.734 71.3792 232.654 72.0352 233.798 72.8336C234.946 73.6256 236.321 74.5584 237.888 75.5304C239.455 76.5008 241.218 77.508 243.146 78.4112C245.07 79.316 246.977 80.02 248.755 80.5032C249.202 80.6144 249.636 80.732 250.061 80.8288C250.489 80.9136 250.905 80.996 251.306 81.0752C252.112 81.2232 252.873 81.2984 253.568 81.3144C254.264 81.3256 254.894 81.2696 255.435 81.1608C255.978 81.0528 256.427 80.8904 256.782 80.7296C257.131 80.5584 257.388 80.3984 257.554 80.2784C257.634 80.2192 257.697 80.1736 257.742 80.14C257.783 80.1104 257.806 80.096 257.806 80.096Z" fill="white"/>
<path d="M261.14 80.668C261.156 80.676 261.06 80.792 261.049 81.0128C261.035 81.2288 261.13 81.5448 261.374 81.7752C261.622 82.0048 261.922 82.1144 262.134 82.1888C262.347 82.2616 262.483 82.3016 262.48 82.3144C262.478 82.3248 262.338 82.3064 262.116 82.248C261.898 82.188 261.582 82.0856 261.316 81.8392C261.05 81.588 260.958 81.2416 260.989 81.0088C261.003 80.8912 261.04 80.8008 261.076 80.7456C261.11 80.6896 261.136 80.6648 261.14 80.668Z" fill="white"/>
<path d="M268.359 87.8216C268.365 87.8264 268.306 87.8984 268.205 88.0312C268.103 88.164 267.964 88.3616 267.814 88.62C267.514 89.1312 267.194 89.912 267.121 90.8192C267.047 91.7272 267.237 92.5488 267.45 93.1024C267.557 93.3808 267.662 93.5984 267.741 93.7464C267.819 93.8944 267.865 93.9744 267.859 93.9784C267.857 93.98 267.842 93.9616 267.817 93.9256C267.792 93.8888 267.754 93.836 267.711 93.7632C267.623 93.62 267.507 93.404 267.393 93.1256C267.162 92.572 266.958 91.7376 267.034 90.8136C267.108 89.8896 267.443 89.0992 267.761 88.5896C267.919 88.3328 268.068 88.1384 268.178 88.0112C268.231 87.9464 268.278 87.9 268.308 87.868C268.34 87.8352 268.357 87.8192 268.359 87.8216Z" fill="white"/>
<path d="M263.956 82.2943C264.814 81.3359 265.694 80.3431 266.114 79.1271C266.533 77.9111 266.378 76.4016 265.399 75.5656C263.532 77.7096 261.665 79.8528 259.798 81.9968L266.073 90.1856C267.884 87 266.41 83.2943 263.956 82.2943Z" fill="#CCCCCC"/>
<path d="M267.229 88.8024C267.233 88.8032 267.247 88.7544 267.271 88.6584C267.291 88.5616 267.337 88.4208 267.362 88.2312C267.421 87.8552 267.457 87.2904 267.345 86.5936C267.23 85.9008 266.966 85.0704 266.421 84.2664C265.895 83.4584 265.067 82.6856 263.984 82.2248L264.011 82.344C264.441 81.8664 264.894 81.3632 265.306 80.7928C265.713 80.2232 266.086 79.5816 266.277 78.8536C266.436 78.2416 266.456 77.6032 266.32 77.0112C266.188 76.42 265.883 75.8784 265.448 75.5072L265.39 75.4584L265.341 75.5152C263.73 77.3816 262.341 78.9912 261.342 80.1488C260.861 80.716 260.474 81.172 260.195 81.4992C260.07 81.6496 259.971 81.7704 259.894 81.864C259.826 81.948 259.793 81.9928 259.796 81.996C259.799 81.9992 259.839 81.96 259.914 81.8816C259.995 81.7928 260.102 81.6768 260.234 81.5328C260.519 81.2128 260.918 80.7664 261.414 80.2112C262.423 79.0632 263.827 77.4656 265.455 75.6144L265.349 75.6224C265.754 75.972 266.041 76.4808 266.166 77.0456C266.295 77.6096 266.276 78.2248 266.122 78.8136C265.939 79.5128 265.577 80.1408 265.178 80.7008C264.774 81.2624 264.326 81.764 263.899 82.244L263.83 82.3224L263.926 82.3632C264.978 82.8048 265.793 83.5504 266.315 84.3368C266.857 85.1184 267.128 85.9296 267.253 86.6088C267.375 87.292 267.355 87.8496 267.311 88.224C267.262 88.5984 267.217 88.8 267.229 88.8024Z" fill="#FAFAFA"/>
<path d="M267.494 88.3464C269.774 85.34 272.584 82.2256 274.865 79.2192L267.494 88.3464Z" fill="#FF725E"/>
<path d="M274.865 79.2192C274.964 79.292 273.428 81.4376 271.34 83.916C270.353 85.0848 269.458 86.144 268.666 87.0832C267.976 87.8888 267.542 88.3824 267.494 88.3472C267.395 88.2744 268.931 86.1296 271.02 83.6504C272.006 82.4824 272.901 81.4232 273.694 80.484C274.382 79.6768 274.818 79.1832 274.865 79.2192Z" fill="#263238"/>
<path d="M172.459 297.221L171.454 296.976C171.454 296.976 160.392 312.313 157.115 311.694L165.67 277.917L176.794 281.223C173.196 285.654 171.602 290.844 172.459 297.221Z" fill="#455A64"/>
<path d="M172.334 283.732C172.32 283.033 171.7 282.395 171.001 282.38C170.302 282.364 169.648 282.99 169.649 283.689C169.65 284.388 170.371 285.177 171.067 285.114C171.763 285.051 172.491 284.274 172.323 283.596" fill="white"/>
<path d="M165.67 277.915L168.346 278.71L159.166 310.792C159.166 310.792 158.131 312.13 157.115 311.692L165.67 277.915Z" fill="#263238"/>
<path d="M171.329 297.07C171.166 297.022 171.299 296.179 170.974 295.233C170.674 294.278 170.066 293.679 170.17 293.544C170.24 293.4 171.164 293.896 171.537 295.048C171.921 296.197 171.471 297.144 171.329 297.07Z" fill="#263238"/>
<path d="M168.966 300.242C168.797 300.239 168.698 299.454 168.142 298.717C167.608 297.964 166.89 297.631 166.938 297.469C166.951 297.307 167.946 297.438 168.619 298.367C169.301 299.29 169.125 300.278 168.966 300.242Z" fill="#263238"/>
<path d="M164.217 301.179C164.219 301.02 165.102 301 165.898 301.652C166.698 302.298 166.858 303.166 166.702 303.202C166.543 303.26 166.186 302.637 165.524 302.111C164.875 301.571 164.191 301.347 164.217 301.179Z" fill="#263238"/>
<path d="M207.469 369.49L207.089 370.377C207.089 370.377 219.482 382.903 218.408 385.819L188.683 372.758L193.433 363.045C196.953 367.034 201.477 369.297 207.469 369.49Z" fill="#455A64"/>
<path d="M195.053 367.53C194.409 367.435 193.726 367.907 193.605 368.547C193.483 369.187 193.957 369.885 194.6 369.991C195.242 370.098 196.078 369.556 196.128 368.906C196.178 368.257 195.576 367.469 194.926 367.519" fill="white"/>
<path d="M188.682 372.759L189.824 370.422L217.896 383.796C217.896 383.796 218.966 384.954 218.407 385.82L188.682 372.759Z" fill="#263238"/>
<path d="M207.156 370.506C207.087 370.65 206.333 370.396 205.414 370.55C204.49 370.678 203.846 371.146 203.738 371.03C203.616 370.942 204.214 370.17 205.33 370.004C206.445 369.828 207.246 370.387 207.156 370.506Z" fill="#263238"/>
<path d="M209.707 373.166C209.678 373.321 208.942 373.291 208.178 373.689C207.404 374.064 206.988 374.673 206.846 374.603C206.7 374.566 206.973 373.672 207.931 373.196C208.884 372.712 209.765 373.026 209.707 373.166Z" fill="#263238"/>
<path d="M209.838 377.675C209.693 377.648 209.81 376.834 210.531 376.203C211.249 375.566 212.071 375.554 212.079 375.702C212.109 375.857 211.481 376.09 210.896 376.617C210.299 377.13 209.989 377.725 209.838 377.675Z" fill="#263238"/>
<path d="M192.828 131.507C192.746 130.911 192.135 130.441 191.538 130.512L191.453 130.526C190.862 130.641 190.426 131.277 190.53 131.87C190.635 132.462 191.262 132.91 191.857 132.817C192.452 132.722 192.911 132.103 192.828 131.507Z" fill="#455A64"/>
<path d="M193.932 148.534L200.964 167.973L217.854 195.417L218.358 166.306L213.5 143.807H213.11L209.625 158.678L204.994 153.08L194.46 145.747L193.932 148.534Z" fill="#FAFAFA"/>
<path d="M216.199 156.31C216.154 156.342 215.765 155.837 215.127 155.012C214.807 154.601 214.423 154.11 213.973 153.582C213.52 153.068 213.008 152.462 212.369 152.047L212.678 151.914C212.614 152.174 212.53 152.434 212.432 152.689C211.744 154.407 210.953 155.851 210.443 156.931C209.905 157.998 209.677 158.687 209.625 158.678C209.562 158.669 209.701 157.915 210.174 156.81C210.617 155.696 211.373 154.213 212.042 152.541C212.137 152.295 212.216 152.052 212.274 151.825L212.347 151.536L212.582 151.692C213.322 152.184 213.804 152.803 214.257 153.346C214.698 153.898 215.06 154.413 215.353 154.849C215.934 155.723 216.242 156.282 216.199 156.31Z" fill="#262524"/>
<path d="M217.854 195.417C217.825 195.421 217.716 194.928 217.542 194.033C217.351 193.072 217.097 191.795 216.79 190.247C216.141 187.054 215.192 182.652 214.11 177.798C213.023 172.975 212.041 168.612 211.31 165.369C210.97 163.827 210.689 162.555 210.478 161.598C210.288 160.706 210.195 160.21 210.223 160.203C210.251 160.197 210.398 160.68 210.635 161.56C210.873 162.441 211.203 163.718 211.597 165.301C212.386 168.466 213.435 172.847 214.516 177.706C215.598 182.564 216.502 186.979 217.078 190.191C217.362 191.798 217.584 193.099 217.702 194.005C217.826 194.91 217.882 195.412 217.854 195.417Z" fill="#262524"/>
<path d="M214.575 142.247C209.898 145.662 199.665 146.291 195.334 146.006C189.505 145.623 183.217 143.176 177.566 141.696C171.737 140.17 166.334 140.261 160.552 141.093C154.77 141.926 147.8 145.87 144.377 150.604L146.771 153.172C146.771 153.172 154.746 146.518 162.062 145.548C169.059 144.621 173.378 146.112 181.586 148.28C190.928 150.748 202.226 150.206 205.786 149.25C211.195 147.795 215.515 144.985 215.515 144.985L214.575 142.247Z" fill="#1A1C1E" fill-opacity="0.6"/>
<path d="M195.61 153.172C195.628 153.15 195.874 153.323 196.301 153.655C196.728 153.986 197.338 154.477 198.086 155.09C199.581 156.315 201.628 158.029 203.872 159.942L203.994 160.046L203.654 160.161C204.043 158.377 204.407 156.703 204.727 155.237L204.79 154.947L205.018 155.132C206.294 156.165 207.352 157.037 208.085 157.657C208.818 158.278 209.226 158.647 209.202 158.678C209.178 158.709 208.725 158.396 207.953 157.824C207.181 157.252 206.09 156.422 204.793 155.416L205.083 155.311C204.779 156.781 204.433 158.458 204.062 160.246L203.991 160.59L203.723 160.362L203.602 160.259C201.358 158.346 199.341 156.596 197.894 155.314C197.171 154.673 196.59 154.148 196.195 153.778C195.801 153.409 195.591 153.194 195.61 153.172Z" fill="#262524"/>
<path d="M138.194 172.346C138.242 172.032 136.567 165.734 136.567 165.734L128.578 162.077L129.982 169.379C129.982 169.379 132.706 171.984 132.852 171.935C132.998 171.886 138.194 172.346 138.194 172.346Z" fill="#FAFAFA"/>
<path d="M150.214 158.926C150.713 164.798 146.358 169.963 140.486 170.462C134.614 170.962 129.449 166.606 128.949 160.734C128.45 154.862 132.805 149.698 138.677 149.198C144.549 148.698 149.714 153.054 150.214 158.926Z" fill="#FFAD3A"/>
<g opacity="0.3">
<path d="M150.214 158.926C150.713 164.798 146.358 169.963 140.486 170.462C134.614 170.962 129.449 166.606 128.949 160.734C128.45 154.862 132.805 149.698 138.677 149.198C144.549 148.698 149.714 153.054 150.214 158.926Z" fill="#1A1C1E"/>
</g>
<path d="M150.214 157.547C150.713 163.419 146.358 168.584 140.486 169.083C134.614 169.582 129.449 165.227 128.949 159.355C128.45 153.483 132.805 148.318 138.677 147.818C144.549 147.318 149.714 151.675 150.214 157.547Z" fill="#FFAD3A"/>
<g opacity="0.3">
<path d="M132.128 159.526C131.743 154.998 135.101 151.015 139.629 150.63C139.746 150.621 139.862 150.623 139.979 150.618C139.618 150.602 139.254 150.599 138.884 150.63C134.356 151.015 130.998 154.998 131.383 159.526C131.758 163.935 135.548 167.225 139.928 167.038C135.871 166.846 132.482 163.683 132.128 159.526Z" fill="#1A1C1E"/>
</g>
<g opacity="0.3">
<path d="M144.029 151.906L145.781 149.767L147.122 150.902L145.238 152.857L144.029 151.906Z" fill="white"/>
</g>
<path d="M147.779 158.128C147.726 158.137 147.707 157.398 147.276 156.174C146.85 154.974 145.873 153.244 143.908 152.011C142.935 151.41 141.736 150.932 140.392 150.816C139.058 150.707 137.578 150.878 136.214 151.538C135.526 151.846 134.874 152.278 134.285 152.803C133.688 153.32 133.16 153.942 132.742 154.648C131.87 156.041 131.46 157.77 131.591 159.504C131.754 161.237 132.45 162.871 133.545 164.098C134.077 164.722 134.702 165.246 135.378 165.655C136.047 166.074 136.763 166.39 137.494 166.577C138.95 166.997 140.438 166.915 141.734 166.582C143.04 166.24 144.141 165.566 144.998 164.81C146.726 163.262 147.397 161.392 147.614 160.138C147.831 158.86 147.725 158.129 147.779 158.128C147.779 158.128 147.946 158.851 147.773 160.164C147.601 161.45 146.959 163.395 145.194 165.028C144.319 165.826 143.182 166.543 141.825 166.915C140.476 167.278 138.922 167.376 137.393 166.947C136.626 166.755 135.872 166.429 135.168 165.994C134.458 165.568 133.798 165.02 133.236 164.366C132.082 163.082 131.345 161.36 131.174 159.538C131.035 157.715 131.472 155.894 132.392 154.434C132.835 153.695 133.392 153.044 134.021 152.505C134.641 151.957 135.328 151.508 136.052 151.189C137.487 150.508 139.035 150.342 140.425 150.472C141.826 150.61 143.067 151.123 144.064 151.762C146.079 153.074 147.041 154.882 147.427 156.122C147.821 157.387 147.779 158.128 147.779 158.128Z" fill="#263238"/>
<path d="M135.666 149.425C135.688 149.494 135.074 149.653 134.258 150.216C133.434 150.766 132.491 151.776 131.576 153.004C130.665 154.208 130.184 155.52 129.97 156.486C129.748 157.457 129.738 158.086 129.67 158.085C129.624 158.088 129.527 157.451 129.681 156.431C129.827 155.418 130.286 154.02 131.245 152.753C132.17 151.51 133.193 150.48 134.102 149.968C135.002 149.441 135.662 149.383 135.666 149.425Z" fill="white"/>
<path d="M137.7 148.703C137.73 148.814 137.534 148.963 137.262 149.037C136.99 149.11 136.746 149.078 136.716 148.967C136.686 148.856 136.882 148.707 137.154 148.634C137.426 148.562 137.67 148.592 137.7 148.703Z" fill="white"/>
<path d="M143.06 164.91C143.118 164.998 141.966 165.729 140.331 165.942C138.697 166.167 137.394 165.766 137.427 165.665C137.45 165.542 138.726 165.745 140.276 165.528C141.827 165.33 143.006 164.798 143.06 164.91Z" fill="white"/>
<path d="M147.803 162.214C147.702 162.152 147.884 161.684 148.031 161.102C148.185 160.521 148.252 160.024 148.37 160.018C148.482 160.009 148.605 160.555 148.434 161.206C148.268 161.858 147.896 162.276 147.803 162.214Z" fill="white"/>
<g opacity="0.3">
<path d="M140.681 155.717V163.1H138.972V157.088H137.495V155.717H140.681Z" fill="#1A1C1E"/>
</g>
<path d="M138.689 171.406C137.162 170.775 131.714 170.112 131.714 170.112L132.146 167.603C132.146 167.603 135.201 166.691 136.025 165.365C136.849 164.038 136.091 162.598 136.091 162.598L134.402 163.082C135.245 162.217 134.761 160.528 134.761 160.528L132.883 160.927C134.083 159.77 133.072 158.749 133.072 158.749L131.614 159.224C132.498 158.265 130.932 157.219 130.932 157.219C130.932 157.219 124.306 162.383 123.873 163.094C123.44 163.804 124.394 165.705 124.394 165.705C124.394 165.705 123.467 166.758 123.42 167.869C123.373 168.979 124.774 169.384 124.774 169.384C124.774 169.384 124.624 170.222 124.891 171.134C125.159 172.047 129.558 174.594 129.558 174.594L135.342 180.422L141.158 172.471C141.158 172.471 140.215 172.037 138.689 171.406Z" fill="#CCCCCC"/>
<path d="M136.025 162.683C136.045 162.734 135.504 162.993 134.585 163.264C133.675 163.555 132.374 163.808 131.077 164.381C130.429 164.668 129.861 165.029 129.413 165.441C128.961 165.853 128.591 166.282 128.258 166.626C127.602 167.332 127.076 167.65 127.046 167.602C127.012 167.554 127.45 167.173 128.038 166.431C128.339 166.066 128.686 165.614 129.15 165.161C129.614 164.703 130.226 164.302 130.906 164.002C132.274 163.399 133.591 163.197 134.511 162.979C135.439 162.783 136.004 162.626 136.025 162.683Z" fill="#FAFAFA"/>
<path d="M134.878 170.681C134.856 170.786 133.507 170.482 131.647 170.562L131.372 170.574L131.45 170.304C131.554 169.938 131.655 169.54 131.737 169.124C131.854 168.537 131.924 167.969 131.963 167.45L131.976 167.279L132.148 167.267C132.896 167.216 133.556 166.921 133.996 166.746C134.442 166.558 134.694 166.423 134.721 166.461C134.744 166.494 134.532 166.699 134.102 166.955C133.665 167.195 133.05 167.552 132.163 167.652L132.348 167.47C132.329 168.007 132.266 168.596 132.146 169.204C132.062 169.634 131.952 170.046 131.833 170.42L131.635 170.162C133.563 170.131 134.906 170.603 134.878 170.681Z" fill="#FAFAFA"/>
<path d="M126.246 165.046C126.206 165.005 126.573 164.591 127.2 163.957C127.56 163.602 127.931 163.237 128.317 162.857C128.522 162.666 128.755 162.411 129.05 162.232C129.333 162.045 129.642 161.895 129.962 161.76C131.249 161.233 132.461 160.969 133.33 160.77C134.204 160.583 134.742 160.474 134.76 160.528C134.778 160.584 134.26 160.796 133.406 161.055C132.557 161.326 131.36 161.638 130.124 162.144C129.818 162.274 129.525 162.413 129.27 162.576C129.01 162.726 128.815 162.931 128.583 163.133C128.176 163.49 127.784 163.834 127.405 164.168C126.726 164.748 126.286 165.086 126.246 165.046Z" fill="#FAFAFA"/>
<path d="M125.143 163.349C125.106 163.305 125.472 162.931 126.094 162.362C126.454 162.043 126.821 161.717 127.199 161.38C127.417 161.194 127.637 161.004 127.862 160.811L128.214 160.513L128.397 160.361C128.478 160.306 128.562 160.251 128.635 160.218C129.833 159.656 130.933 159.321 131.738 159.06C132.544 158.813 133.054 158.694 133.072 158.748C133.09 158.802 132.616 159.019 131.838 159.338C131.07 159.663 129.955 160.058 128.829 160.586C128.755 160.621 128.708 160.655 128.656 160.686L128.475 160.835L128.119 161.128C127.89 161.314 127.665 161.497 127.442 161.678C127.045 161.99 126.659 162.293 126.282 162.59C125.613 163.099 125.18 163.393 125.143 163.349Z" fill="#FAFAFA"/>
<g opacity="0.3">
<path d="M144.638 94.2649C159.187 95.6487 172.103 84.9762 173.487 70.4272C174.871 55.8782 164.198 42.9622 149.649 41.5784C135.1 40.1946 122.184 50.8671 120.801 65.4161C119.417 79.965 130.089 92.8811 144.638 94.2649Z" fill="#262524"/>
<path d="M146.33 85.2076C155.875 85.6567 163.977 78.2827 164.426 68.7374C164.875 59.1921 157.501 51.09 147.956 50.641C138.411 50.192 130.309 57.5659 129.86 67.1113C129.411 76.6566 136.785 84.7586 146.33 85.2076Z" fill="white"/>
<path d="M140.084 73.7574C143.306 77.6573 149.08 78.2064 152.98 74.984C156.879 71.7616 157.429 65.9878 154.206 62.088C150.984 58.1882 145.21 57.639 141.31 60.8614C137.41 64.0839 136.861 69.8576 140.084 73.7574Z" fill="#262524"/>
</g>
<path d="M136.412 63.1599L131.674 66.1353L146.192 67.5331L136.806 56.3689L137.043 61.959L112.399 49.0095L108.803 42.6941L102.248 39.2499L103.164 44.3291C102.966 44.3653 102.784 44.4775 102.682 44.6702C102.581 44.8629 102.591 45.0775 102.675 45.2616L97.9674 47.3965L104.522 50.8407L111.677 50.1625L136.412 63.1599Z" fill="#1A1C1E"/>
</svg>
