<svg width="400" height="400" viewBox="0 0 400 400" fill="none" xmlns="http://www.w3.org/2000/svg">
<path opacity="0.1" d="M368.394 250.953C357.018 281.424 333.773 314.402 301.063 324.165C251.641 338.923 245.736 378.761 157.215 375.066C143.413 374.492 130.656 372.551 118.936 369.452C112.636 367.788 106.635 365.78 100.939 363.466C49.2257 342.52 22.2489 296.42 20.0089 248.184C17.0529 184.743 61.3177 154.504 90.0857 136.798C118.854 119.092 153.527 50.4852 240.578 53.434C253.85 53.8892 267.092 55.7028 279.923 59.182C309.214 67.1092 338.99 84.6436 356.293 110.276C357.592 112.202 358.831 114.173 360.018 116.181C383.174 155.467 383.905 209.412 368.394 250.953Z" fill="#2290AC"/>
<path opacity="0.1" d="M368.394 250.953C357.018 281.424 333.773 314.402 301.063 324.165C251.641 338.923 245.736 378.761 157.215 375.066C143.413 374.492 130.656 372.551 118.936 369.452C112.636 367.788 106.635 365.78 100.939 363.466C49.2257 342.52 22.2489 296.42 20.0089 248.184C17.0529 184.743 61.3177 154.504 90.0857 136.798C118.854 119.092 153.527 50.4852 240.578 53.434C253.85 53.8892 267.092 55.7028 279.923 59.182C309.214 67.1092 338.99 84.6436 356.293 110.276C357.592 112.202 358.831 114.173 360.018 116.181C383.174 155.467 383.905 209.412 368.394 250.953Z" fill="white"/>
<g opacity="0.3">
<path d="M114.259 108.452C124.593 98.1177 124.593 81.3628 114.259 71.0287C103.925 60.6946 87.17 60.6946 76.8359 71.0287C66.5018 81.3628 66.5018 98.1177 76.8359 108.452C87.17 118.786 103.925 118.786 114.259 108.452Z" fill="#262524"/>
<path d="M108.355 101.378C114.781 94.306 114.257 83.3633 107.185 76.937C100.113 70.5107 89.1699 71.0343 82.7436 78.1066C76.3173 85.1789 76.8409 96.1217 83.9132 102.548C90.9855 108.974 101.928 108.451 108.355 101.378Z" fill="white"/>
<path d="M95.549 98.9001C100.608 98.9001 104.709 94.799 104.709 89.7401C104.709 84.6811 100.608 80.5801 95.549 80.5801C90.49 80.5801 86.389 84.6811 86.389 89.7401C86.389 94.799 90.49 98.9001 95.549 98.9001Z" fill="#262524"/>
</g>
<path d="M85.0408 94.9802L84.3168 100.527L94.6416 90.2266L80.0568 90.3506L84.5168 93.729L58.8368 104.478L51.6776 103.227L44.8472 106.087L49.3464 108.615C49.248 108.791 49.2184 109.003 49.3024 109.204C49.3864 109.405 49.5584 109.534 49.7536 109.587L48.4008 114.575L55.2312 111.716L59.2656 105.769L85.0408 94.9802Z" fill="#1A1C1E"/>
<path opacity="0.3" d="M342.611 27.8116V24.0684H339.011V27.8116H328.568V24.0684H324.967V27.8116H314.525V24.0684H310.924V27.8116H300.482V24.0684H296.88V27.8116H286.438V24.0684H282.837V27.8116H269.871V104.008H352.879V27.8116H342.611ZM282.984 98.3948H275.635V91.0452H282.984V98.3948ZM282.984 87.9524H275.635V80.6028H282.984V87.9524ZM282.984 77.5092H275.635V70.1604H282.984V77.5092ZM282.984 67.0668H275.635V59.7172H282.984V67.0668ZM293.703 98.3948H286.353V91.0452H293.703V98.3948ZM293.703 87.9524H286.353V80.6028H293.703V87.9524ZM293.703 77.5092H286.353V70.1604H293.703V77.5092ZM293.703 67.0668H286.353V59.7172H293.703V67.0668ZM304.42 98.3948H297.071V91.0452H304.42V98.3948ZM304.42 87.9524H297.071V80.6028H304.42V87.9524ZM304.42 77.5092H297.071V70.1604H304.42V77.5092ZM304.42 67.0668H297.071V59.7172H304.42V67.0668ZM315.139 98.3948H307.789V91.0452H315.139V98.3948ZM315.139 87.9524H307.789V80.6028H315.139V87.9524ZM315.139 77.5092H307.789V70.1604H315.139V77.5092ZM315.139 67.0668H307.789V59.7172H315.139V67.0668ZM325.856 98.3948H318.507V91.0452H325.856V98.3948ZM325.856 87.9524H318.507V80.6028H325.856V87.9524ZM325.856 77.5092H318.507V70.1604H325.856V77.5092ZM325.856 67.0668H318.507V59.7172H325.856V67.0668ZM336.575 98.3948H329.225V91.0452H336.575V98.3948ZM336.575 87.9524H329.225V80.6028H336.575V87.9524ZM336.575 77.5092H329.225V70.1604H336.575V77.5092ZM336.575 67.0668H329.225V59.7172H336.575V67.0668ZM347.292 98.3948H339.943V91.0452H347.292V98.3948ZM347.292 87.9524H339.943V80.6028H347.292V87.9524ZM347.292 77.5092H339.943V70.1604H347.292V77.5092ZM347.292 67.0668H339.943V59.7172H347.292V67.0668ZM348.013 51.4356H274.915V34.1508H348.013V51.4356Z" fill="#262524"/>
<path d="M295.51 128.182C295.51 128.182 296.718 116.103 291.886 110.668C287.055 105.233 279.808 111.876 281.62 119.122C283.431 126.37 295.51 128.182 295.51 128.182Z" fill="white"/>
<path d="M281.633 182.004C281.633 182.004 283.515 163.18 275.986 154.708C268.455 146.237 257.161 156.591 259.984 167.886C262.808 179.18 281.633 182.004 281.633 182.004Z" fill="white"/>
<path d="M277.556 212.511C277.556 212.511 275.485 193.705 266.359 186.984C257.233 180.262 248.336 192.737 253.445 203.199C258.555 213.66 277.556 212.511 277.556 212.511Z" fill="white"/>
<path d="M296.718 228.259C285.589 230.401 275.63 246.487 275.63 246.487C275.63 246.487 292.289 255.698 301.401 248.452C310.513 241.206 307.848 226.117 296.718 228.259Z" fill="white"/>
<path d="M300.401 256.6C284.479 259.665 270.232 282.677 270.232 282.677C270.232 282.677 294.064 295.855 307.101 285.489C320.137 275.121 316.324 253.535 300.401 256.6Z" fill="white"/>
<path d="M274.39 246.744C274.894 246.733 275.18 246.716 275.18 246.716C275.18 246.716 275.081 245.818 274.832 244.346C276.107 237.214 277.389 228.244 278.919 217.53C279.127 216.075 279.341 214.578 279.558 213.063C283.899 215.122 296.345 220.157 303.776 214.247C312.889 207.001 310.223 191.912 299.093 194.054C291.044 195.604 283.61 204.442 280.11 209.219C281.092 202.416 282.17 195.106 283.379 187.445C283.582 186.156 283.814 184.806 284.07 183.407C288.349 186.566 298.826 193.186 306.919 189.152C317.338 183.958 317.867 168.644 306.535 168.426C298.374 168.27 289.306 175.313 284.87 179.267C286.498 171.204 288.764 161.886 291.172 152.686C293.774 154.642 300.707 159.176 306.033 156.522C312.718 153.189 313.057 143.363 305.786 143.224C300.498 143.122 294.629 147.724 291.814 150.246C293.754 142.924 295.756 135.758 297.568 129.438C300.562 131.559 306.83 135.213 311.734 132.767C318.419 129.434 318.758 119.609 311.487 119.47C306.868 119.381 301.803 122.884 298.718 125.453C301.38 116.279 303.453 109.514 303.994 107.758C306.697 105.97 314.857 100.369 316.218 97.0112C317.855 92.9768 315.911 88.3792 311.876 86.7424C307.842 85.1056 303.244 87.0497 301.607 91.0841C300.3 94.3057 302.045 103.37 302.801 106.894L302.318 106.744C302.251 106.958 299.534 115.726 296.039 127.878C295.911 128.006 295.822 128.097 295.822 128.097C295.822 128.097 295.866 128.135 295.946 128.202C294.06 134.762 291.956 142.286 289.921 149.975C290.035 146.33 289.813 138.502 286.185 134.42C281.354 128.985 274.106 135.628 275.918 142.874C277.538 149.355 287.362 151.488 289.423 151.866C286.711 162.212 284.17 172.73 282.498 181.49C282.254 181.732 282.119 181.872 282.119 181.872C282.119 181.872 282.216 181.955 282.383 182.093C282.052 183.856 281.756 185.548 281.503 187.146C279.782 198.044 278.324 208.252 277.038 217.258C275.833 225.699 274.782 233.052 273.769 239.268C272.266 233.242 269.342 225.133 263.984 221.186C254.858 214.464 245.961 226.939 251.07 237.401C254.981 245.407 267.019 246.611 272.458 246.736C272.252 247.808 272.046 248.831 271.838 249.803C271.006 253.686 269.711 264.369 268.428 276.104C266.634 267.464 262.425 253.002 253.572 246.481C240.516 236.865 227.788 254.712 235.098 269.678C241.235 282.246 261.379 283.1 267.682 283.051C265.95 299.429 264.414 315.678 264.297 316.923L266.188 317.102C266.242 316.533 271.582 260.067 273.696 250.203C273.928 249.115 274.16 247.957 274.39 246.744Z" fill="white"/>
<path d="M131.088 186.715C131.088 186.715 130.385 179.683 133.198 176.519C136.011 173.355 140.23 177.222 139.175 181.441C138.12 185.66 131.088 186.715 131.088 186.715Z" fill="white"/>
<path d="M139.167 218.048C139.167 218.048 138.071 207.088 142.455 202.157C146.839 197.225 153.415 203.253 151.771 209.829C150.126 216.404 139.167 218.048 139.167 218.048Z" fill="white"/>
<path d="M141.54 235.809C141.54 235.809 142.746 224.861 148.058 220.948C153.371 217.035 158.551 224.297 155.577 230.388C152.602 236.479 141.54 235.809 141.54 235.809Z" fill="white"/>
<path d="M130.384 244.977C136.864 246.225 142.662 255.589 142.662 255.589C142.662 255.589 132.963 260.952 127.658 256.733C122.353 252.515 123.905 243.73 130.384 244.977Z" fill="white"/>
<path d="M128.24 261.477C137.51 263.261 145.804 276.659 145.804 276.659C145.804 276.659 131.93 284.331 124.339 278.296C116.75 272.259 118.97 259.692 128.24 261.477Z" fill="white"/>
<path d="M143.383 255.74C143.09 255.733 142.923 255.724 142.923 255.724C142.923 255.724 142.981 255.201 143.126 254.344C142.383 250.192 141.637 244.97 140.746 238.732C140.626 237.885 140.501 237.014 140.374 236.132C137.847 237.332 130.601 240.262 126.275 236.822C120.97 232.604 122.522 223.819 129.002 225.066C133.687 225.968 138.015 231.114 140.053 233.895C139.482 229.934 138.854 225.678 138.15 221.218C138.031 220.468 137.896 219.682 137.747 218.868C135.257 220.707 129.156 224.561 124.445 222.212C118.378 219.188 118.071 210.273 124.669 210.146C129.42 210.055 134.699 214.155 137.282 216.457C136.334 211.763 135.015 206.338 133.613 200.982C132.098 202.12 128.062 204.76 124.961 203.215C121.069 201.274 120.871 195.554 125.105 195.473C128.184 195.414 131.601 198.093 133.239 199.561C132.11 195.299 130.945 191.127 129.89 187.448C128.146 188.683 124.498 190.809 121.642 189.386C117.75 187.446 117.553 181.725 121.786 181.644C124.476 181.593 127.425 183.632 129.221 185.128C127.67 179.787 126.464 175.848 126.149 174.826C124.575 173.786 119.825 170.524 119.032 168.57C118.079 166.221 119.211 163.544 121.56 162.592C123.909 161.639 126.586 162.771 127.538 165.12C128.299 166.996 127.284 172.272 126.843 174.324L127.125 174.237C127.164 174.362 128.746 179.466 130.78 186.54C130.854 186.615 130.906 186.668 130.906 186.668C130.906 186.668 130.88 186.691 130.834 186.729C131.932 190.549 133.158 194.929 134.342 199.405C134.275 197.283 134.405 192.726 136.517 190.349C139.33 187.185 143.549 191.052 142.494 195.272C141.55 199.044 135.831 200.286 134.631 200.507C136.21 206.53 137.69 212.653 138.663 217.753C138.805 217.895 138.883 217.976 138.883 217.976C138.883 217.976 138.826 218.024 138.73 218.104C138.922 219.131 139.095 220.116 139.242 221.046C140.244 227.391 141.092 233.334 141.841 238.577C142.542 243.492 143.154 247.772 143.744 251.392C144.619 247.884 146.321 243.162 149.441 240.864C154.754 236.951 159.934 244.214 156.959 250.304C154.682 254.966 147.674 255.667 144.507 255.74C144.627 256.364 144.748 256.96 144.869 257.525C145.353 259.786 146.106 266.005 146.854 272.837C147.898 267.808 150.348 259.387 155.502 255.591C163.103 249.992 170.514 260.383 166.258 269.096C162.685 276.413 150.958 276.91 147.288 276.882C148.296 286.417 149.191 295.877 149.259 296.602L148.158 296.706C148.127 296.375 145.018 263.501 143.787 257.759C143.653 257.12 143.518 256.445 143.383 255.74Z" fill="white"/>
<path d="M44.7185 273.419C44.7185 273.419 42.8721 269.342 43.9185 266.874C44.9649 264.405 48.2801 265.871 48.5025 268.616C48.7241 271.362 44.7185 273.419 44.7185 273.419Z" fill="white"/>
<path d="M55.9145 290.584C55.9145 290.584 53.0361 284.229 54.6681 280.382C56.2993 276.535 61.4665 278.82 61.8121 283.098C62.1577 287.376 55.9145 290.584 55.9145 290.584Z" fill="white"/>
<path d="M60.9368 300.762C60.9368 300.762 59.4424 293.948 61.8376 290.523C64.2328 287.099 68.812 290.407 68.2616 294.665C67.7104 298.922 60.9368 300.762 60.9368 300.762Z" fill="white"/>
<path d="M56.1002 308.522C60.241 307.958 65.617 312.403 65.617 312.403C65.617 312.403 60.8842 317.585 56.8458 316.129C52.8082 314.672 51.9594 309.086 56.1002 308.522Z" fill="white"/>
<path d="M58.1561 318.858C64.0801 318.051 71.7713 324.41 71.7713 324.41C71.7713 324.41 65.0001 331.824 59.2233 329.74C53.4465 327.656 52.2321 319.666 58.1561 318.858Z" fill="white"/>
<path d="M66.0808 312.347C65.9032 312.403 65.8016 312.43 65.8016 312.43C65.8016 312.43 65.7304 312.105 65.644 311.561C64.3576 309.22 62.8512 306.237 61.0528 302.675C60.8088 302.192 60.5576 301.693 60.3032 301.19C59.0296 302.421 55.2752 305.649 51.9824 304.461C47.944 303.004 47.096 297.418 51.2368 296.854C54.2312 296.446 57.8712 298.657 59.6568 299.913C58.5112 297.652 57.2728 295.225 55.9464 292.691C55.7232 292.265 55.4832 291.821 55.2288 291.362C54.1064 292.97 51.2272 296.519 47.924 296.064C43.6712 295.478 41.6808 290.191 45.6136 288.778C48.4464 287.761 52.4448 289.152 54.4608 290.009C52.9408 287.385 51.0504 284.397 49.124 281.467C48.4456 282.457 46.5584 284.859 44.3848 284.56C41.656 284.184 40.3792 280.792 42.9024 279.885C44.7384 279.226 47.3312 280.141 48.6112 280.69C47.0696 278.361 45.5256 276.094 44.1472 274.1C43.352 275.194 41.5928 277.209 39.5912 276.933C36.8624 276.557 35.5856 273.165 38.1088 272.259C39.712 271.683 41.8944 272.309 43.2752 272.843C41.2632 269.953 39.7408 267.833 39.3448 267.284C38.1896 266.978 34.6784 265.984 33.8064 264.972C32.7584 263.755 32.8952 261.92 34.112 260.873C35.3288 259.825 37.164 259.961 38.2112 261.178C39.048 262.149 39.5072 265.522 39.6592 266.842L39.8104 266.733C39.8592 266.8 41.8424 269.542 44.4968 273.375C44.5568 273.405 44.5984 273.426 44.5984 273.426C44.5984 273.426 44.5872 273.445 44.5672 273.477C46 275.547 47.6224 277.927 49.24 280.373C48.7704 279.113 47.9248 276.353 48.7104 274.499C49.7568 272.03 53.072 273.497 53.2944 276.241C53.4928 278.697 50.3128 280.601 49.6376 280.976C51.8056 284.27 53.9336 287.645 55.5512 290.508C55.6648 290.564 55.728 290.597 55.728 290.597C55.728 290.597 55.704 290.637 55.6616 290.705C55.9856 291.281 56.288 291.837 56.5648 292.366C58.4512 295.97 60.1648 299.365 61.676 302.359C63.0928 305.165 64.3272 307.61 65.4144 309.662C65.2288 307.38 65.2936 304.202 66.7 302.191C69.0952 298.766 73.6752 302.075 73.124 306.333C72.7024 309.591 68.6392 311.432 66.7536 312.117C66.952 312.467 67.1448 312.8 67.332 313.115C68.0808 314.373 69.7928 317.953 71.6256 321.901C71.2336 318.671 70.9976 313.121 73.3216 309.8C76.7488 304.901 83.3 309.634 82.512 315.725C81.8504 320.839 74.9136 323.513 72.7064 324.24C75.2432 329.757 77.6968 335.252 77.884 335.673L77.2448 335.959C77.1592 335.767 68.6328 316.671 66.7312 313.474C66.5216 313.121 66.304 312.743 66.0808 312.347Z" fill="white"/>
<path d="M356.981 295.475C356.981 295.475 359.943 292.12 362.624 292.063C365.305 292.006 365.326 295.631 362.913 296.958C360.499 298.286 356.981 295.475 356.981 295.475Z" fill="white"/>
<path d="M345.909 312.721C345.909 312.721 350.527 307.492 354.705 307.403C358.883 307.315 358.916 312.965 355.154 315.033C351.393 317.103 345.909 312.721 345.909 312.721Z" fill="white"/>
<path d="M338.685 321.474C338.685 321.474 344.288 317.318 348.393 318.1C352.498 318.882 351.356 324.415 347.247 325.657C343.138 326.898 338.685 321.474 338.685 321.474Z" fill="white"/>
<path d="M329.622 320.243C331.833 323.789 329.982 330.514 329.982 330.514C329.982 330.514 323.315 328.32 322.989 324.039C322.663 319.759 327.411 316.697 329.622 320.243Z" fill="white"/>
<path d="M321.038 326.351C324.202 331.424 321.552 341.045 321.552 341.045C321.552 341.045 312.014 337.907 311.548 331.783C311.082 325.659 317.874 321.278 321.038 326.351Z" fill="white"/>
<path d="M330.223 330.913C330.1 330.774 330.033 330.692 330.033 330.692C330.033 330.692 330.3 330.494 330.761 330.192C332.37 328.059 334.473 325.463 336.986 322.363C337.326 321.942 337.678 321.509 338.033 321.07C336.387 320.413 331.906 318.31 331.64 314.82C331.314 310.539 336.062 307.477 338.274 311.023C339.873 313.588 339.347 317.814 338.934 319.958C340.526 317.986 342.233 315.862 344.001 313.614C344.298 313.236 344.605 312.835 344.919 312.415C342.993 312.05 338.575 310.878 337.638 307.678C336.43 303.559 340.437 299.577 343.337 302.586C345.426 304.753 345.795 308.97 345.838 311.161C347.61 308.699 349.561 305.75 351.444 302.792C350.262 302.579 347.298 301.842 346.681 299.736C345.906 297.093 348.477 294.538 350.338 296.469C351.691 297.873 351.918 300.614 351.942 302.006C353.435 299.646 354.87 297.308 356.125 295.234C354.801 294.957 352.242 294.178 351.673 292.239C350.898 289.596 353.469 287.041 355.33 288.972C356.512 290.198 356.835 292.446 356.914 293.925C358.726 290.905 360.035 288.648 360.374 288.062C360.18 286.883 359.648 283.273 360.214 282.062C360.894 280.608 362.625 279.981 364.079 280.662C365.534 281.342 366.161 283.072 365.48 284.526C364.937 285.687 362.049 287.489 360.906 288.168L361.068 288.261C361.026 288.333 359.338 291.266 356.929 295.257C356.926 295.324 356.924 295.37 356.924 295.37C356.924 295.37 356.902 295.368 356.865 295.363C355.564 297.518 354.058 299.974 352.489 302.451C353.446 301.506 355.618 299.604 357.631 299.561C360.312 299.504 360.333 303.129 357.92 304.456C355.762 305.643 352.722 303.522 352.103 303.06C349.986 306.387 347.78 309.711 345.831 312.36C345.826 312.487 345.822 312.558 345.822 312.558C345.822 312.558 345.775 312.552 345.697 312.542C345.303 313.074 344.92 313.578 344.551 314.046C342.037 317.244 339.642 320.198 337.53 322.804C335.55 325.246 333.826 327.374 332.4 329.206C334.406 328.102 337.331 326.859 339.742 327.318C343.847 328.099 342.705 333.633 338.596 334.874C335.451 335.825 332.107 332.872 330.71 331.433C330.471 331.758 330.247 332.07 330.036 332.37C329.194 333.568 326.631 336.597 323.781 339.886C326.566 338.204 331.531 335.716 335.514 336.474C341.387 337.593 339.754 345.509 333.875 347.286C328.938 348.778 323.657 343.546 322.09 341.83C318.096 346.404 314.089 350.894 313.782 351.238L313.259 350.771C313.399 350.614 327.326 335.012 329.462 331.967C329.698 331.632 329.954 331.279 330.223 330.913Z" fill="white"/>
<path d="M334.01 237.994L331.971 240.035L329.474 241.241L327.779 246.887L329.553 247.448L330.746 246.189L331.841 247.376L330.368 251.561C330.368 251.561 328.387 252.135 328.367 252.625C328.348 253.113 329.613 254.143 329.613 254.143L331.94 253.093L338.335 252.369L340.18 251.137L338.175 240.321L334.01 237.994Z" fill="#CCCCCC" stroke="#1A1C1E" stroke-miterlimit="10" stroke-linecap="round" stroke-linejoin="round"/>
<path d="M331.94 253.093L334.246 249.359" stroke="#1A1C1E" stroke-miterlimit="10" stroke-linecap="round" stroke-linejoin="round"/>
<path d="M334.998 252.76L336.563 249.096" stroke="#1A1C1E" stroke-miterlimit="10" stroke-linecap="round" stroke-linejoin="round"/>
<path d="M338.335 252.369L338.867 249.189" stroke="#1A1C1E" stroke-miterlimit="10" stroke-linecap="round" stroke-linejoin="round"/>
<path d="M329.175 189.162L344.746 213.842L339.047 240.545L332.92 239.197L332.59 214.241L322.79 204.485L329.175 189.162Z" fill="white" stroke="#1A1C1E" stroke-miterlimit="10" stroke-linecap="round" stroke-linejoin="round"/>
<path d="M317.142 180.957L329.175 189.162L315.835 223.726L293.538 217.189L291.309 197.438L293.928 180.192L304.862 178.922L317.142 180.957Z" fill="white" stroke="#1A1C1E" stroke-miterlimit="10" stroke-linecap="round" stroke-linejoin="round"/>
<path d="M306.265 188.029L308.514 190.464C309.926 191.995 312.414 191.736 313.481 189.947L318.676 181.24L315.07 177.564L307.11 177.909L303.757 179.671L302.21 184.087C301.332 186.591 303.786 188.976 306.265 188.029Z" fill="white" stroke="#1A1C1E" stroke-miterlimit="10" stroke-linecap="round" stroke-linejoin="round"/>
<path d="M309.355 154.799C309.355 154.799 305.579 157.293 305.107 158.314C304.635 159.335 304.437 161.102 304.437 161.102L300.172 162.799L302.015 165.511C302.015 165.511 300.376 171.647 301.508 172.6C302.64 173.553 306.548 175.901 306.548 175.901L306.445 183.6C306.421 185.403 308.438 186.485 309.926 185.468L316.702 180.839L318.746 176.113C318.746 176.113 325.543 170.489 325.459 167.066C325.375 163.643 323.722 158.255 318.722 155.464C313.722 152.674 309.56 153.942 309.56 153.942L309.355 154.799Z" fill="#CCCCCC" stroke="#1A1C1E" stroke-miterlimit="10" stroke-linecap="round" stroke-linejoin="round"/>
<path d="M311.623 154.505C311.623 154.505 314.422 155.061 311.785 161.677C309.148 168.293 306.559 173.332 310.482 177.549C314.403 181.767 317.107 184.341 315.229 187.286C313.35 190.232 307.902 189.201 309.486 195.863C311.071 202.524 316.363 203.84 318.648 200.328C320.933 196.816 319.755 190.764 320.008 189.492C320.261 188.22 320.922 187.557 320.922 187.557L322.448 187.86L331.57 192.671C331.57 192.671 331.456 191.767 332.059 186.068C332.662 180.371 327.524 179.614 328.535 174.526C329.546 169.438 335.093 170.804 333.1 163.533C331.107 156.261 319.402 151.291 319.402 151.291C319.402 151.291 314.661 143.208 309.325 147.437C303.989 151.666 307.542 155.98 307.542 155.98L311.623 154.505Z" fill="#1A1C1E" stroke="#1A1C1E" stroke-miterlimit="10" stroke-linecap="round" stroke-linejoin="round"/>
<path d="M306.555 161.724C306.399 162.376 306.559 162.973 306.915 163.059C307.271 163.144 307.686 162.685 307.843 162.034C307.999 161.383 307.839 160.785 307.483 160.7C307.127 160.615 306.712 161.073 306.555 161.724Z" fill="#1A1C1E"/>
<path d="M310.099 160.195C310.099 160.195 309.06 158.268 306.873 158.876" stroke="#1A1C1E" stroke-miterlimit="10" stroke-linecap="round" stroke-linejoin="round"/>
<path d="M263.461 180.095L263.162 176.569C263.162 176.569 263.474 174.275 263.193 173.056C262.912 171.837 262.416 170.499 262.017 169.495C261.618 168.491 261.091 167.921 260.504 168.886C259.917 169.851 260.171 171.727 260.171 171.727C260.171 171.727 259.807 169.846 259.18 169.052C258.553 168.259 256.491 167.627 254.43 166.996C252.369 166.365 253.312 167.501 253.619 168.062C253.926 168.623 255.865 169.579 255.865 169.579C255.865 169.579 252.834 168.47 251.966 168.215C251.098 167.961 249.738 169.005 250.702 169.593C251.667 170.18 253.729 170.811 253.729 170.811C253.729 170.811 251.4 171.378 250.501 171.891C249.602 172.404 250.001 173.408 250.55 173.43C251.098 173.451 252.755 173.188 252.755 173.188C252.755 173.188 251.282 174.338 251.585 175.008C251.887 175.679 254.668 174.802 254.668 174.802C254.668 174.802 255.037 176.574 256.309 177.723C257.581 178.871 259.195 179.704 259.195 179.704L261.713 182.659L263.461 180.095Z" fill="#CCCCCC" stroke="#1A1C1E" stroke-miterlimit="10" stroke-linecap="round" stroke-linejoin="round"/>
<path d="M255.864 169.58L254.935 173.606" stroke="#1A1C1E" stroke-miterlimit="10" stroke-linecap="round" stroke-linejoin="round"/>
<path d="M260.171 171.729L260.338 173.053C260.338 173.053 258.536 174.189 258.795 175.957" fill="#CCCCCC"/>
<path d="M260.171 171.729L260.338 173.053C260.338 173.053 258.536 174.189 258.795 175.957" stroke="#1A1C1E" stroke-miterlimit="10" stroke-linecap="round" stroke-linejoin="round"/>
<path d="M293.928 180.192L276.47 193.463L263.492 179.328L259.975 182.419L273.334 205.699L291.527 195.692L293.928 180.192Z" fill="white" stroke="#1A1C1E" stroke-miterlimit="10" stroke-linecap="round" stroke-linejoin="round"/>
<path d="M319.986 267.465L320.09 246.959C320.399 233.601 316.463 224.531 315.802 223.934C315.582 223.736 315.434 223.726 315.434 223.726L293.138 217.189C293.138 217.189 290.282 225.314 287.999 226.801C262.799 243.201 256.975 251.189 257.199 251.601C263.793 263.736 285.089 284.139 284.37 282.717L289.763 280.897L273.2 253.601L297.54 244.007L302.356 267.314L326.832 312.893L333.501 310.498L319.986 267.465Z" fill="#1A1C1E" stroke="#1A1C1E" stroke-miterlimit="10" stroke-linecap="round" stroke-linejoin="round"/>
<path d="M284.37 282.716L281.821 287.78C281.821 287.78 279.283 288.617 278.327 289.049C277.371 289.48 276.896 289.618 276.396 290.38C275.896 291.143 275.853 292.236 275.853 292.236L288.51 292.741C288.51 292.741 292.422 288.828 294.215 287.021C296.009 285.215 289.764 280.896 289.764 280.896L284.37 282.716Z" fill="white" stroke="#1A1C1E" stroke-miterlimit="10" stroke-linecap="round" stroke-linejoin="round"/>
<path d="M333.5 310.497C333.5 310.497 333.375 313.622 333.263 316.435C333.151 319.248 329.695 323.492 327.602 324.973C325.508 326.455 323.621 326.692 324.245 322.805C324.869 318.917 326.831 312.892 326.831 312.892C326.831 312.892 332.882 310.316 333.5 310.497Z" fill="white" stroke="#1A1C1E" stroke-miterlimit="10" stroke-linecap="round" stroke-linejoin="round"/>
<path d="M187.355 36.1797L173.111 45.9677" stroke="#1A1C1E" stroke-miterlimit="10" stroke-linecap="round" stroke-linejoin="round"/>
<path d="M189.339 34.8164L188.383 35.4724" stroke="#1A1C1E" stroke-miterlimit="10" stroke-linecap="round" stroke-linejoin="round"/>
<path d="M167.975 25.4623L164.768 25.0215" stroke="#1A1C1E" stroke-miterlimit="10" stroke-linecap="round" stroke-linejoin="round"/>
<path d="M188.694 28.3075L170.014 25.7419" stroke="#1A1C1E" stroke-miterlimit="10" stroke-linecap="round" stroke-linejoin="round"/>
<path d="M192.096 15.7251L185.924 9.43555" stroke="#1A1C1E" stroke-miterlimit="10" stroke-linecap="round" stroke-linejoin="round"/>
<path d="M194.646 18.3236L193.214 16.8652" stroke="#1A1C1E" stroke-miterlimit="10" stroke-linecap="round" stroke-linejoin="round"/>
<path d="M211.188 18.4253L218.342 11.1133" stroke="#1A1C1E" stroke-miterlimit="10" stroke-linecap="round" stroke-linejoin="round"/>
<path d="M209.818 19.825L210.503 19.125" stroke="#1A1C1E" stroke-miterlimit="10" stroke-linecap="round" stroke-linejoin="round"/>
<path d="M226.982 28.698L241.523 27.082" stroke="#1A1C1E" stroke-miterlimit="10" stroke-linecap="round" stroke-linejoin="round"/>
<path d="M213.706 30.1714L225.234 28.8906" stroke="#1A1C1E" stroke-miterlimit="10" stroke-linecap="round" stroke-linejoin="round"/>
<path d="M223.592 42.9355L230.191 49.7467" stroke="#1A1C1E" stroke-miterlimit="10" stroke-linecap="round" stroke-linejoin="round"/>
<path d="M214.221 33.2637L222.31 41.6141" stroke="#1A1C1E" stroke-miterlimit="10" stroke-linecap="round" stroke-linejoin="round"/>
<path d="M204.828 32.8691H201.142V43.4915H204.828V32.8691Z" fill="#FFAD3A" stroke="#1A1C1E" stroke-miterlimit="10" stroke-linecap="round" stroke-linejoin="round"/>
<path d="M207.538 42.625V41.1074H198.432V42.625H194.096V48.6954H211.873V42.625H207.538Z" fill="#1A1C1E" stroke="#1A1C1E" stroke-miterlimit="10" stroke-linecap="round" stroke-linejoin="round"/>
<path d="M202.985 13.1406L207.295 21.8758L216.935 23.2766L209.96 30.0758L211.607 39.6758L202.985 35.143L194.363 39.6758L196.01 30.0758L189.035 23.2766L198.674 21.8758L202.985 13.1406Z" fill="#FFAD3A" stroke="#1A1C1E" stroke-miterlimit="10" stroke-linecap="round" stroke-linejoin="round"/>
<path d="M190.912 24.1875L202.985 27.3267L213.61 24.6707" fill="#FFAD3A"/>
<path d="M190.912 24.1875L202.985 27.3267L213.61 24.6707" stroke="#1A1C1E" stroke-miterlimit="10" stroke-linecap="round" stroke-linejoin="round"/>
<path d="M203.227 16.9434V24.6706" stroke="#1A1C1E" stroke-miterlimit="10" stroke-linecap="round" stroke-linejoin="round"/>
<path d="M195.741 38.1936L202.744 29.0176V32.8808" fill="#FFAD3A"/>
<path d="M195.741 38.1936L202.744 29.0176V32.8808" stroke="#1A1C1E" stroke-miterlimit="10" stroke-linecap="round" stroke-linejoin="round"/>
<path d="M211.607 39.6768L204.434 29.0176" stroke="#1A1C1E" stroke-miterlimit="10" stroke-linecap="round" stroke-linejoin="round"/>
<path d="M177.217 147.137C177.217 147.137 188.462 151.817 199.69 152.353C210.918 152.887 231.061 147.137 231.061 147.137L217.69 129.897H186.68L177.217 147.137Z" fill="#1A1C1E" stroke="#1A1C1E" stroke-miterlimit="10" stroke-linecap="round" stroke-linejoin="round"/>
<path d="M230.49 233.795C230.079 232.563 226.587 223.319 226.587 223.319C226.587 223.319 224.532 207.913 224.532 200.723C224.532 193.533 222.067 189.22 222.067 189.22L219.207 137.765L217.343 131.256H213.237L201.834 131.359L190.431 131.256H188.995L184.303 140.179L181.601 189.219C181.601 189.219 179.136 193.533 179.136 200.722C179.136 207.912 177.082 223.318 177.082 223.318C177.082 223.318 173.59 232.562 173.179 233.794C172.767 235.027 169.687 237.902 169.687 238.929C169.687 239.957 170.508 240.573 170.508 240.573H181.6C181.6 240.573 182.216 240.367 182.627 238.313C183.039 236.259 183.039 234.205 183.039 232.973C183.039 231.74 184.271 221.469 184.271 221.469L200.088 155.61H200.499H203.17H203.581L219.398 221.469C219.398 221.469 220.63 231.74 220.63 232.973C220.63 234.205 220.63 236.259 221.041 238.313C221.452 240.368 222.068 240.573 222.068 240.573H233.161C233.161 240.573 233.983 239.957 233.983 238.929C233.983 237.904 230.901 235.028 230.49 233.795Z" fill="white" stroke="#1A1C1E" stroke-miterlimit="10" stroke-linecap="round" stroke-linejoin="round"/>
<path d="M226.587 223.319C226.587 223.319 224.533 207.913 224.533 200.723C224.533 193.533 222.068 189.22 222.068 189.22L219.207 137.765L217.343 131.256H213.238L201.834 131.359L190.431 131.256H188.996L184.304 140.179L181.602 189.219C181.602 189.219 179.137 193.533 179.137 200.722C179.137 207.912 177.082 223.318 177.082 223.318C177.082 223.318 177.054 223.393 177.005 223.524H184.029C184.172 222.304 184.272 221.469 184.272 221.469L200.089 155.61H200.5H203.17H203.582L219.398 221.469C219.398 221.469 219.498 222.304 219.642 223.524H226.666C226.615 223.393 226.587 223.319 226.587 223.319Z" fill="#1A1C1E" stroke="#1A1C1E" stroke-miterlimit="10" stroke-linecap="round" stroke-linejoin="round"/>
<path d="M183.77 225.75L179.753 235.233H172.259C171.212 236.569 169.687 238.207 169.687 238.93C169.687 239.957 170.509 240.573 170.509 240.573H181.601C181.601 240.573 182.217 240.368 182.628 238.314C183.039 236.26 183.039 234.206 183.039 232.973C183.039 232.28 183.429 228.726 183.77 225.75Z" fill="white" stroke="#1A1C1E" stroke-miterlimit="10" stroke-linecap="round" stroke-linejoin="round"/>
<path d="M219.899 225.75L223.917 235.232H231.411C232.458 236.569 233.983 238.207 233.983 238.93C233.983 239.957 233.161 240.573 233.161 240.573H222.068C222.068 240.573 221.452 240.368 221.041 238.314C220.63 236.26 220.63 234.206 220.63 232.973C220.631 232.28 220.24 228.726 219.899 225.75Z" fill="white" stroke="#1A1C1E" stroke-miterlimit="10" stroke-linecap="round" stroke-linejoin="round"/>
<path d="M200.69 64.5056C200.69 64.5056 197.039 62.5928 194.257 66.4184C191.474 70.244 193.387 73.7216 193.387 74.7648C193.387 75.808 189.214 79.2856 190.431 80.8504C191.648 82.4152 193.561 83.2848 193.387 83.98C193.213 84.6752 188.345 83.632 188.693 85.3712C189.041 87.1096 189.388 89.892 195.648 94.5864C201.908 99.2808 210.949 95.456 213.384 92.8472C215.818 90.2392 217.905 87.6312 217.557 86.0656C217.209 84.5008 214.775 85.0224 214.775 84.3264C214.775 83.6304 217.383 81.1968 217.383 79.8056C217.383 78.4144 214.601 76.676 214.427 75.8064C214.253 74.9368 215.818 73.72 215.818 72.3288C215.818 70.9376 212.341 69.1992 212.341 67.9816C212.341 66.7648 214.949 64.6776 210.949 61.896C206.95 59.1144 201.559 61.2024 200.69 64.5056Z" fill="#1A1C1E" stroke="#1A1C1E" stroke-miterlimit="10" stroke-linecap="round" stroke-linejoin="round"/>
<path d="M199.589 86.1246L198.198 93.1958C198.198 93.1958 194.952 91.8046 194.025 91.4566C193.098 91.1086 190.431 131.254 190.431 131.254H216.281L214.89 91.6878L209.094 93.195L207.354 86.0078L199.589 86.1246Z" fill="white" stroke="#1A1C1E" stroke-miterlimit="10" stroke-linecap="round" stroke-linejoin="round"/>
<path d="M209.441 104.787L210.462 92.839L209.093 93.195L207.354 86.0078L199.588 86.1238L198.197 93.195C198.197 93.195 197.705 92.9846 197.052 92.707L198.313 104.786H209.441V104.787Z" fill="white" stroke="#1A1C1E" stroke-miterlimit="10" stroke-linecap="round" stroke-linejoin="round"/>
<path d="M198.722 87.5581C198.722 87.5581 203.369 92.0117 204.338 92.0117C205.306 92.0117 208.211 87.9453 208.211 87.9453L207.824 86.5901L198.722 86.3965V87.5581Z" fill="#1A1C1E" stroke="#1A1C1E" stroke-miterlimit="10" stroke-linecap="round" stroke-linejoin="round"/>
<path d="M183.722 59.1678L191.752 50.8358L189.468 44.6014C189.468 44.6014 191.736 40.3798 191.936 39.9014C192.136 39.423 192.966 37.9718 192.966 37.9718C192.966 37.9718 194.238 37.8854 194.333 39.2726C194.427 40.6606 194.601 43.2046 194.417 43.9142C194.233 44.6238 196.244 48.5534 195.437 50.351C194.63 52.1486 186.442 63.2806 186.442 63.2806L183.722 59.1678Z" fill="white" stroke="#1A1C1E" stroke-miterlimit="10" stroke-linecap="round" stroke-linejoin="round"/>
<path d="M194.304 40.5527C194.304 40.5527 191.765 44.2119 191.789 44.5583C191.813 44.9055 191.967 45.4759 191.967 45.4759" stroke="#1A1C1E" stroke-miterlimit="10" stroke-linecap="round" stroke-linejoin="round"/>
<path d="M193.806 38.3789L190.43 43.3725L190.424 44.9997" stroke="#1A1C1E" stroke-miterlimit="10" stroke-linecap="round" stroke-linejoin="round"/>
<path d="M196.343 92.0374C196.343 92.0374 195.532 113.405 194.373 121.634C193.214 129.865 191.822 134.617 189.041 138.79C186.258 142.963 177.217 147.137 177.217 147.137C177.217 147.137 183.708 124.765 184.983 118.621C186.258 112.477 186.258 99.5718 186.258 99.5718C186.258 99.5718 180.462 95.283 175.826 88.6758C171.189 82.0686 167.431 75.2462 167.63 74.2758C167.828 73.3054 186.05 55.7638 186.05 55.7638L189.783 60.8062L179.673 76.2566C179.673 76.2566 189.156 87.2846 189.851 87.8638C190.547 88.4438 193.214 88.7918 196.343 92.0374Z" fill="white" stroke="#1A1C1E" stroke-miterlimit="10" stroke-linecap="round" stroke-linejoin="round"/>
<path d="M195.794 91.4941L195.763 91.5741C195.763 91.5741 191.938 98.6453 191.938 105.253C191.938 109.054 193.088 121.233 194.066 123.678C194.17 123.019 194.272 122.344 194.372 121.635C195.531 113.405 196.342 92.0381 196.342 92.0381C196.158 91.8453 195.976 91.6661 195.794 91.4941Z" fill="white" stroke="#1A1C1E" stroke-miterlimit="10" stroke-linecap="round" stroke-linejoin="round"/>
<path d="M223.614 59.0012L215.037 51.2348L216.891 44.8596C216.891 44.8596 214.341 40.8028 214.109 40.3388C213.877 39.8748 212.949 38.4844 212.949 38.4844C212.949 38.4844 211.674 38.4844 211.674 39.8756C211.674 41.2668 211.674 43.8172 211.906 44.5124C212.138 45.2076 210.399 49.2652 211.326 51.0036C212.253 52.7428 221.179 63.2908 221.179 63.2908L223.614 59.0012Z" fill="white" stroke="#1A1C1E" stroke-miterlimit="10" stroke-linecap="round" stroke-linejoin="round"/>
<path d="M211.79 41.1484C211.79 41.1484 214.572 44.626 214.572 44.974C214.572 45.322 214.456 45.9012 214.456 45.9012" stroke="#1A1C1E" stroke-miterlimit="10" stroke-linecap="round" stroke-linejoin="round"/>
<path d="M212.138 38.9473L215.847 43.7001L215.963 45.3233" stroke="#1A1C1E" stroke-miterlimit="10" stroke-linecap="round" stroke-linejoin="round"/>
<path d="M211.934 92.0378C211.934 92.0378 212.746 113.405 213.905 121.635C215.064 129.865 216.455 134.618 219.237 138.791C222.019 142.963 231.061 147.137 231.061 147.137C231.061 147.137 224.57 124.765 223.294 118.621C222.019 112.477 222.019 99.5722 222.019 99.5722C222.019 99.5722 227.815 95.2834 232.452 88.6762C237.089 82.069 242.77 74.3362 242.423 73.409C242.075 72.4818 221.622 56.3242 221.622 56.3242L218.725 61.8882L228.743 77.0842C228.743 77.0842 219.121 87.285 218.426 87.865C217.73 88.4442 215.064 88.7922 211.934 92.0378Z" fill="white" stroke="#1A1C1E" stroke-miterlimit="10" stroke-linecap="round" stroke-linejoin="round"/>
<path d="M190.403 92.1499C189.431 96.0387 186.258 99.5723 186.258 99.5723C186.258 99.5723 188.216 95.0667 187.73 91.1779" stroke="#1A1C1E" stroke-miterlimit="10" stroke-linecap="round" stroke-linejoin="round"/>
<path d="M216.649 91.1774C218.35 94.823 222.019 99.5718 222.019 99.5718C222.019 99.5718 219.566 90.6918 219.566 89.4766" stroke="#1A1C1E" stroke-miterlimit="10" stroke-linecap="round" stroke-linejoin="round"/>
<path d="M212.482 91.4941L212.513 91.5741C212.513 91.5741 216.339 98.6453 216.339 105.253C216.339 109.054 215.188 121.233 214.211 123.678C214.107 123.019 214.004 122.344 213.904 121.635C212.745 113.405 211.934 92.0381 211.934 92.0381C212.119 91.8453 212.301 91.6661 212.482 91.4941Z" fill="white" stroke="#1A1C1E" stroke-miterlimit="10" stroke-linecap="round" stroke-linejoin="round"/>
<path d="M196.227 79.0536C196.227 79.0536 193.909 75.692 193.561 78.5896C193.213 81.4872 195.995 83.5744 195.995 83.5744L196.227 79.0536Z" fill="white" stroke="#1A1C1E" stroke-miterlimit="10" stroke-linecap="round" stroke-linejoin="round"/>
<path d="M211.876 78.3589C211.876 78.3589 213.846 76.3885 214.426 78.7069C215.006 81.0253 211.992 83.1117 211.992 83.1117L211.876 78.3589Z" fill="white" stroke="#1A1C1E" stroke-miterlimit="10" stroke-linecap="round" stroke-linejoin="round"/>
<path d="M201.386 67.6366C201.386 67.6366 200.864 70.5926 198.778 71.2878C196.691 71.983 195.995 73.027 195.995 73.027C195.995 73.027 195.647 83.1118 196.343 84.155C197.039 85.1982 201.618 89.603 203.878 89.603C206.138 89.603 211.586 85.5462 211.76 84.5022C211.934 83.459 211.644 73.7214 211.47 73.0262C211.297 72.331 209.036 71.287 207.123 71.287C205.21 71.287 203.646 69.2006 203.298 68.5046C202.95 67.8102 201.386 67.6366 201.386 67.6366Z" fill="white" stroke="#1A1C1E" stroke-miterlimit="10" stroke-linecap="round" stroke-linejoin="round"/>
<path d="M202.89 75.9271C202.89 75.9271 203.742 76.6247 204.518 76.6247C205.293 76.6247 205.758 75.8495 205.758 75.8495" stroke="#1A1C1E" stroke-miterlimit="10" stroke-linecap="round" stroke-linejoin="round"/>
<path d="M199.437 72.607C199.437 72.607 200.111 70.6702 202.047 71.7646" stroke="#1A1C1E" stroke-miterlimit="10" stroke-linecap="round" stroke-linejoin="round"/>
<path d="M205.921 71.8483C205.921 71.8483 207.774 70.4171 209.205 72.8587" stroke="#1A1C1E" stroke-miterlimit="10" stroke-linecap="round" stroke-linejoin="round"/>
<path d="M201.25 79.2015C201.25 79.2015 205.25 81.6359 207.858 78.3319" stroke="#1A1C1E" stroke-miterlimit="10" stroke-linecap="round" stroke-linejoin="round"/>
<path d="M201.327 73.3694C201.327 73.8494 201.054 74.239 200.718 74.239C200.382 74.239 200.11 73.8494 200.11 73.3694C200.11 72.8894 200.382 72.4998 200.718 72.4998C201.055 72.4998 201.327 72.8894 201.327 73.3694Z" fill="#1A1C1E"/>
<path d="M207.762 73.4476C207.762 73.9276 207.489 74.3172 207.153 74.3172C206.817 74.3172 206.544 73.9276 206.544 73.4476C206.544 72.9676 206.817 72.578 207.153 72.578C207.489 72.578 207.762 72.9676 207.762 73.4476Z" fill="#1A1C1E"/>
<path d="M85.3225 180.957L73.2881 189.162L82.8553 229.836L111.999 224.481L112.287 181.868L97.6017 178.922L85.3225 180.957Z" fill="white" stroke="#1A1C1E" stroke-miterlimit="10" stroke-linecap="round" stroke-linejoin="round"/>
<path d="M92.0298 188.636L95.7578 193.565L96.3706 220.028L101.077 227.345L104.605 216.168L97.5202 193.494L99.2842 187.906L95.3802 184.088L92.0298 188.636Z" fill="white" stroke="#1A1C1E" stroke-miterlimit="10" stroke-linecap="round" stroke-linejoin="round"/>
<path d="M96.1993 188.027L91.1209 193.527L83.7881 181.238L87.3945 177.563L95.3545 177.907L102.115 181.391L102.475 190.426L96.1993 188.027Z" fill="white" stroke="#1A1C1E" stroke-miterlimit="10" stroke-linecap="round" stroke-linejoin="round"/>
<path d="M99.7382 154.997C99.7382 154.997 102.955 158.179 103.22 159.273C103.484 160.366 103.334 162.138 103.334 162.138L107.186 164.633L104.85 166.934C104.85 166.934 107.089 173.246 105.793 173.959C104.497 174.673 98.379 176.242 98.379 176.242L96.1998 188.027L87.4566 179.105L86.3734 174.071C86.3734 174.071 80.803 167.23 81.5526 163.889C82.3022 160.548 84.9742 155.586 90.4222 153.823C95.8702 152.061 96.1894 152.727 96.1894 152.727L99.7382 154.997Z" fill="#CCCCCC" stroke="#1A1C1E" stroke-miterlimit="10" stroke-linecap="round" stroke-linejoin="round"/>
<path d="M89.044 169.11C89.044 169.11 92.3232 168.317 92.2616 166.774C92.2 165.232 89.944 163.998 91.6624 162.825C93.3816 161.653 95.1272 161.142 95.092 160.26C95.0568 159.378 93.4792 158.558 94.5456 157.633C95.6128 156.707 99.7384 154.998 99.7384 154.998C99.7384 154.998 98.0024 150.21 91.5936 150.025C85.1848 149.839 79.3216 157.798 79.744 162.858C80.1664 167.918 85.728 174.538 87.068 174.926C88.408 175.315 89.044 169.11 89.044 169.11Z" fill="#1A1C1E" stroke="#1A1C1E" stroke-miterlimit="10" stroke-linecap="round" stroke-linejoin="round"/>
<path d="M90.4096 170.158C90.4096 170.158 88.3032 167.152 86.6368 169.646C84.9704 172.141 88.8224 174.636 90.8056 174.557C92.7888 174.478 93.1944 173.578 93.1944 173.578" fill="#CCCCCC"/>
<path d="M90.4096 170.158C90.4096 170.158 88.3032 167.152 86.6368 169.646C84.9704 172.141 88.8224 174.636 90.8056 174.557C92.7888 174.478 93.1944 173.578 93.1944 173.578" stroke="#1A1C1E" stroke-miterlimit="10" stroke-linecap="round" stroke-linejoin="round"/>
<path d="M101.135 162.336C101.161 163.006 100.887 163.56 100.522 163.575C100.157 163.589 99.8385 163.059 99.8121 162.389C99.7857 161.72 100.06 161.165 100.425 161.151C100.791 161.136 101.108 161.667 101.135 162.336Z" fill="#1A1C1E"/>
<path d="M97.9569 160.145C97.9569 160.145 99.8529 157.862 101.88 158.885" stroke="#1A1C1E" stroke-miterlimit="10" stroke-linecap="round" stroke-linejoin="round"/>
<path d="M68.4528 237.994L70.4928 240.035L72.9896 241.242L74.684 246.887L72.9104 247.448L71.7176 246.19L70.6224 247.376L72.0952 251.562C72.0952 251.562 74.0768 252.135 74.0968 252.625C74.116 253.114 72.8512 254.143 72.8512 254.143L70.524 253.094L64.1288 252.369L62.284 251.137L64.2888 240.322L68.4528 237.994Z" fill="#CCCCCC" stroke="#1A1C1E" stroke-miterlimit="10" stroke-linecap="round" stroke-linejoin="round"/>
<path d="M70.524 253.093L68.2176 249.36" stroke="#1A1C1E" stroke-miterlimit="10" stroke-linecap="round" stroke-linejoin="round"/>
<path d="M67.4658 252.76L65.9002 249.096" stroke="#1A1C1E" stroke-miterlimit="10" stroke-linecap="round" stroke-linejoin="round"/>
<path d="M64.129 252.37L63.597 249.19" stroke="#1A1C1E" stroke-miterlimit="10" stroke-linecap="round" stroke-linejoin="round"/>
<path d="M73.288 189.162L57.7168 213.842L63.4168 240.545L69.5432 239.197L69.8728 214.241L77.6496 204.44L73.288 189.162Z" fill="white" stroke="#1A1C1E" stroke-miterlimit="10" stroke-linecap="round" stroke-linejoin="round"/>
<path d="M142.854 175.539L143.152 172.012C143.152 172.012 142.841 169.719 143.122 168.5C143.402 167.28 143.898 165.943 144.298 164.939C144.697 163.935 145.223 163.364 145.81 164.329C146.398 165.294 146.143 167.171 146.143 167.171C146.143 167.171 146.507 165.289 147.134 164.496C147.762 163.702 149.823 163.071 151.884 162.44C153.946 161.808 153.002 162.944 152.695 163.505C152.388 164.067 150.45 165.022 150.45 165.022C150.45 165.022 153.48 163.913 154.349 163.659C155.218 163.404 156.577 164.448 155.612 165.036C154.647 165.624 152.586 166.255 152.586 166.255C152.586 166.255 154.914 166.821 155.814 167.334C156.713 167.848 156.314 168.852 155.766 168.873C155.218 168.895 153.56 168.632 153.56 168.632C153.56 168.632 155.034 169.781 154.73 170.452C154.428 171.123 151.647 170.245 151.647 170.245C151.647 170.245 151.278 172.017 150.006 173.166C148.734 174.315 147.12 175.148 147.12 175.148L144.602 178.103L142.854 175.539Z" fill="#CCCCCC" stroke="#1A1C1E" stroke-miterlimit="10" stroke-linecap="round" stroke-linejoin="round"/>
<path d="M150.451 165.024L151.381 169.049" stroke="#1A1C1E" stroke-miterlimit="10" stroke-linecap="round" stroke-linejoin="round"/>
<path d="M146.144 167.172L145.977 168.497C145.977 168.497 147.779 169.633 147.52 171.4" fill="#CCCCCC"/>
<path d="M146.144 167.172L145.977 168.497C145.977 168.497 147.779 169.633 147.52 171.4" stroke="#1A1C1E" stroke-miterlimit="10" stroke-linecap="round" stroke-linejoin="round"/>
<path d="M112.287 181.868L125.994 193.463L142.823 174.772L146.341 177.863L129.13 205.699L112.311 199.084L112.287 181.868Z" fill="white" stroke="#1A1C1E" stroke-miterlimit="10" stroke-linecap="round" stroke-linejoin="round"/>
<path d="M82.8552 229.836L84.944 267.761L68.9624 310.497L75.6312 312.891L100.107 267.313L103.679 246.982L125.579 250.647L112.699 280.896L118.093 282.716C118.093 282.716 145.255 241.726 145.724 241.706C146.193 241.688 112.95 228.302 112.95 228.302L111.999 224.481L82.8552 229.836Z" fill="#1A1C1E" stroke="#1A1C1E" stroke-miterlimit="10" stroke-linecap="round" stroke-linejoin="round"/>
<path d="M118.093 282.717L120.642 287.78C120.642 287.78 123.18 288.617 124.136 289.049C125.092 289.481 125.567 289.618 126.067 290.381C126.567 291.143 126.61 292.237 126.61 292.237L113.954 292.741C113.954 292.741 110.042 288.829 108.248 287.021C106.454 285.215 112.699 280.897 112.699 280.897L118.093 282.717Z" fill="white" stroke="#1A1C1E" stroke-miterlimit="10" stroke-linecap="round" stroke-linejoin="round"/>
<path d="M68.9634 310.497C68.9634 310.497 69.0882 313.622 69.2002 316.435C69.3122 319.248 72.7682 323.492 74.8618 324.973C76.9554 326.455 78.8426 326.693 78.2186 322.806C77.5938 318.918 75.6322 312.893 75.6322 312.893C75.6322 312.893 69.5818 310.317 68.9634 310.497Z" fill="white" stroke="#1A1C1E" stroke-miterlimit="10" stroke-linecap="round" stroke-linejoin="round"/>
<path d="M247.115 239.137H154.612V291.996H247.115V239.137Z" fill="#EDF1F3" stroke="#1A1C1E" stroke-miterlimit="10" stroke-linecap="round" stroke-linejoin="round"/>
<path d="M301.366 290.605H100.362V343.465H301.366V290.605Z" fill="#EDF1F3" stroke="#1A1C1E" stroke-miterlimit="10" stroke-linecap="round" stroke-linejoin="round"/>
<path d="M360.777 326.656H40.9502V379.515H360.777V326.656Z" fill="#EDF1F3" stroke="#1A1C1E" stroke-miterlimit="10" stroke-linecap="round" stroke-linejoin="round"/>
<path d="M200.899 244.977L205.209 253.712L214.848 255.113L207.873 261.912L209.52 271.512L200.899 266.979L192.276 271.512L193.923 261.912L186.948 255.113L196.587 253.712L200.899 244.977Z" fill="white" stroke="#1A1C1E" stroke-miterlimit="10" stroke-linecap="round" stroke-linejoin="round"/>
<path d="M128.535 292.844L132.847 301.578L142.486 302.979L135.511 309.778L137.157 319.379L128.535 314.846L119.914 319.379L121.56 309.778L114.585 302.979L124.224 301.578L128.535 292.844Z" fill="white" stroke="#1A1C1E" stroke-miterlimit="10" stroke-linecap="round" stroke-linejoin="round"/>
<path d="M274.669 292.844L278.98 301.578L288.619 302.979L281.644 309.778L283.291 319.379L274.669 314.846L266.047 319.379L267.694 309.778L260.719 302.979L270.358 301.578L274.669 292.844Z" fill="white" stroke="#1A1C1E" stroke-miterlimit="10" stroke-linecap="round" stroke-linejoin="round"/>
<path d="M16.9233 379.518H386.277" stroke="#1A1C1E" stroke-miterlimit="10" stroke-linecap="round" stroke-linejoin="round"/>
</svg>
