<svg width="305" height="213" viewBox="0 0 305 213" fill="none" xmlns="http://www.w3.org/2000/svg">
<path d="M23.3127 212.103C23.3127 212.103 -12.7855 168.645 4.8565 123.906C16.356 94.7438 59.4921 78.7644 83.8361 94.7438C94.2046 101.55 127.469 94.9734 145.23 66.7965C179.745 12.0422 300.201 45.2953 278.272 129.362C267.659 170.044 310.57 171.523 288.705 212.189L23.3127 212.103Z" fill="url(#paint0_linear_4606_3669)"/>
<path d="M304.114 212.168H0.767266C0.539188 212.168 0.352539 211.981 0.352539 211.753V211.414C0.352539 211.187 0.539188 211 0.767266 211H304.114C304.342 211 304.529 211.187 304.529 211.414V211.753C304.529 211.981 304.342 212.168 304.114 212.168Z" fill="#2E3552"/>
<path d="M245.085 131.312L243.922 132.476L242.499 133.163L241.533 136.382L242.544 136.702L243.224 135.984L243.848 136.661L243.009 139.047C243.009 139.047 241.879 139.374 241.868 139.654C241.857 139.932 242.578 140.519 242.578 140.519L243.905 139.921L247.551 139.508L248.603 138.805L247.46 132.639L245.085 131.312Z" fill="#CCCCCC" stroke="#1A1C1E" stroke-miterlimit="10" stroke-linecap="round" stroke-linejoin="round"/>
<path d="M243.905 139.921L245.22 137.792" stroke="#1A1C1E" stroke-miterlimit="10" stroke-linecap="round" stroke-linejoin="round"/>
<path d="M245.647 139.731L246.54 137.642" stroke="#1A1C1E" stroke-miterlimit="10" stroke-linecap="round" stroke-linejoin="round"/>
<path d="M247.55 139.508L247.853 137.695" stroke="#1A1C1E" stroke-miterlimit="10" stroke-linecap="round" stroke-linejoin="round"/>
<path d="M242.329 103.47L251.207 117.541L247.958 132.766L244.464 131.997L244.276 117.769L238.689 112.207L242.329 103.47Z" fill="white" stroke="#1A1C1E" stroke-miterlimit="10" stroke-linecap="round" stroke-linejoin="round"/>
<path d="M235.468 98.7917L242.329 103.47L234.723 123.176L222.01 119.449L220.739 108.188L222.233 98.3552L228.466 97.6313L235.468 98.7917Z" fill="white" stroke="#1A1C1E" stroke-miterlimit="10" stroke-linecap="round" stroke-linejoin="round"/>
<path d="M229.267 102.824L230.549 104.213C231.354 105.085 232.773 104.938 233.381 103.918L236.343 98.9533L234.287 96.8579L229.748 97.0545L227.837 98.0589L226.955 100.577C226.454 102.004 227.853 103.364 229.267 102.824Z" fill="white" stroke="#1A1C1E" stroke-miterlimit="10" stroke-linecap="round" stroke-linejoin="round"/>
<path d="M231.028 83.878C231.028 83.878 228.875 85.3002 228.606 85.8822C228.337 86.4642 228.224 87.4717 228.224 87.4717L225.792 88.4392L226.843 89.9854C226.843 89.9854 225.909 93.4843 226.554 94.0275C227.2 94.5708 229.428 95.9095 229.428 95.9095L229.369 100.299C229.355 101.327 230.505 101.944 231.353 101.364L235.217 98.7246L236.383 96.0303C236.383 96.0303 240.258 92.8238 240.21 90.8721C240.162 88.9204 239.219 85.8484 236.369 84.2575C233.518 82.6665 231.145 83.3895 231.145 83.3895L231.028 83.878Z" fill="#CCCCCC" stroke="#1A1C1E" stroke-miterlimit="10" stroke-linecap="round" stroke-linejoin="round"/>
<path d="M232.32 83.7108C232.32 83.7108 233.916 84.0278 232.412 87.7999C230.909 91.572 229.433 94.4451 231.669 96.8493C233.905 99.254 235.447 100.722 234.376 102.401C233.305 104.08 230.198 103.493 231.102 107.291C232.006 111.089 235.023 111.839 236.326 109.837C237.628 107.834 236.957 104.383 237.101 103.658C237.245 102.933 237.622 102.555 237.622 102.555L238.492 102.728L243.693 105.471C243.693 105.471 243.628 104.955 243.972 101.707C244.316 98.458 241.386 98.0265 241.963 95.1256C242.539 92.2247 245.701 93.0038 244.565 88.8581C243.429 84.712 236.755 81.8781 236.755 81.8781C236.755 81.8781 234.052 77.27 231.01 79.681C227.968 82.092 229.993 84.5514 229.993 84.5514L232.32 83.7108Z" fill="#1A1C1E" stroke="#1A1C1E" stroke-miterlimit="10" stroke-linecap="round" stroke-linejoin="round"/>
<path d="M229.432 87.8269C229.342 88.1981 229.434 88.5389 229.637 88.5877C229.839 88.6365 230.076 88.3747 230.166 88.0034C230.255 87.6321 230.163 87.2914 229.961 87.2426C229.758 87.1942 229.521 87.4556 229.432 87.8269Z" fill="#1A1C1E"/>
<path d="M231.452 86.9546C231.452 86.9546 230.859 85.8563 229.612 86.2029" stroke="#1A1C1E" stroke-miterlimit="10" stroke-linecap="round" stroke-linejoin="round"/>
<path d="M204.861 98.3009L204.691 96.2903C204.691 96.2903 204.869 94.9826 204.709 94.2875C204.548 93.5923 204.266 92.8297 204.038 92.2573C203.81 91.6849 203.51 91.3596 203.176 91.9097C202.841 92.4598 202.986 93.5299 202.986 93.5299C202.986 93.5299 202.778 92.4571 202.421 92.0046C202.063 91.5521 200.888 91.1923 199.713 90.8324C198.537 90.4725 199.075 91.1202 199.25 91.4399C199.425 91.7601 200.531 92.3047 200.531 92.3047C200.531 92.3047 198.803 91.6725 198.307 91.5275C197.813 91.3825 197.037 91.9777 197.587 92.3129C198.137 92.6477 199.313 93.0076 199.313 93.0076C199.313 93.0076 197.985 93.3305 197.472 93.6229C196.96 93.9157 197.187 94.4882 197.5 94.5005C197.813 94.5128 198.758 94.3627 198.758 94.3627C198.758 94.3627 197.917 95.0182 198.09 95.4004C198.263 95.7831 199.848 95.2827 199.848 95.2827C199.848 95.2827 200.058 96.293 200.784 96.948C201.509 97.603 202.429 98.0778 202.429 98.0778L203.865 99.7627L204.861 98.3009Z" fill="#CCCCCC" stroke="#1A1C1E" stroke-miterlimit="10" stroke-linecap="round" stroke-linejoin="round"/>
<path d="M200.53 92.3062L200 94.6018" stroke="#1A1C1E" stroke-miterlimit="10" stroke-linecap="round" stroke-linejoin="round"/>
<path d="M202.987 93.5308L203.082 94.2861C203.082 94.2861 202.054 94.9338 202.202 95.9414" fill="#CCCCCC"/>
<path d="M202.987 93.5308L203.082 94.2861C203.082 94.2861 202.054 94.9338 202.202 95.9414" stroke="#1A1C1E" stroke-miterlimit="10" stroke-linecap="round" stroke-linejoin="round"/>
<path d="M222.233 98.3559L212.279 105.922L204.88 97.8633L202.875 99.6257L210.491 112.899L220.864 107.193L222.233 98.3559Z" fill="white" stroke="#1A1C1E" stroke-miterlimit="10" stroke-linecap="round" stroke-linejoin="round"/>
<path d="M237.091 148.115L237.15 136.423C237.326 128.807 235.082 123.636 234.705 123.296C234.579 123.183 234.495 123.177 234.495 123.177L221.783 119.45C221.783 119.45 220.155 124.083 218.853 124.93C204.485 134.28 201.165 138.835 201.293 139.07C205.052 145.989 217.194 157.621 216.784 156.81L219.859 155.773L210.415 140.21L224.293 134.74L227.039 148.029L240.994 174.015L244.796 172.65L237.091 148.115Z" fill="#1A1C1E" stroke="#1A1C1E" stroke-miterlimit="10" stroke-linecap="round" stroke-linejoin="round"/>
<path d="M216.783 156.81L215.329 159.697C215.329 159.697 213.883 160.174 213.338 160.421C212.792 160.667 212.522 160.745 212.236 161.18C211.951 161.614 211.927 162.238 211.927 162.238L219.143 162.526C219.143 162.526 221.373 160.295 222.396 159.265C223.419 158.235 219.858 155.772 219.858 155.772L216.783 156.81Z" fill="white" stroke="#1A1C1E" stroke-miterlimit="10" stroke-linecap="round" stroke-linejoin="round"/>
<path d="M244.795 172.649C244.795 172.649 244.724 174.431 244.66 176.035C244.596 177.638 242.626 180.058 241.432 180.903C240.239 181.747 239.163 181.883 239.518 179.667C239.874 177.45 240.993 174.015 240.993 174.015C240.993 174.015 244.443 172.546 244.795 172.649Z" fill="white" stroke="#1A1C1E" stroke-miterlimit="10" stroke-linecap="round" stroke-linejoin="round"/>
<path d="M161.473 16.2476L153.353 21.8282" stroke="#1A1C1E" stroke-miterlimit="10" stroke-linecap="round" stroke-linejoin="round"/>
<path d="M162.605 15.4707L162.06 15.8447" stroke="#1A1C1E" stroke-miterlimit="10" stroke-linecap="round" stroke-linejoin="round"/>
<path d="M150.424 10.1376L148.595 9.88623" stroke="#1A1C1E" stroke-miterlimit="10" stroke-linecap="round" stroke-linejoin="round"/>
<path d="M162.238 11.7596L151.587 10.2969" stroke="#1A1C1E" stroke-miterlimit="10" stroke-linecap="round" stroke-linejoin="round"/>
<path d="M164.177 4.586L160.658 1" stroke="#1A1C1E" stroke-miterlimit="10" stroke-linecap="round" stroke-linejoin="round"/>
<path d="M165.63 6.06783L164.814 5.23633" stroke="#1A1C1E" stroke-miterlimit="10" stroke-linecap="round" stroke-linejoin="round"/>
<path d="M175.062 6.12547L179.141 1.95654" stroke="#1A1C1E" stroke-miterlimit="10" stroke-linecap="round" stroke-linejoin="round"/>
<path d="M174.281 6.92303L174.672 6.52393" stroke="#1A1C1E" stroke-miterlimit="10" stroke-linecap="round" stroke-linejoin="round"/>
<path d="M184.067 11.9819L192.358 11.0605" stroke="#1A1C1E" stroke-miterlimit="10" stroke-linecap="round" stroke-linejoin="round"/>
<path d="M176.498 12.8225L183.071 12.0923" stroke="#1A1C1E" stroke-miterlimit="10" stroke-linecap="round" stroke-linejoin="round"/>
<path d="M182.134 20.0996L185.896 23.983" stroke="#1A1C1E" stroke-miterlimit="10" stroke-linecap="round" stroke-linejoin="round"/>
<path d="M176.792 14.585L181.404 19.3459" stroke="#1A1C1E" stroke-miterlimit="10" stroke-linecap="round" stroke-linejoin="round"/>
<path d="M171.434 14.3599H169.333V20.4162H171.434V14.3599Z" fill="#FFAD3A" stroke="#1A1C1E" stroke-miterlimit="10" stroke-linecap="round" stroke-linejoin="round"/>
<path d="M172.981 19.9224V19.0571H167.79V19.9224H165.317V23.3834H175.453V19.9224H172.981Z" fill="#1A1C1E" stroke="#1A1C1E" stroke-miterlimit="10" stroke-linecap="round" stroke-linejoin="round"/>
<path d="M170.383 3.11133L172.841 8.09169L178.337 8.89035L174.36 12.7669L175.299 18.2403L170.383 15.656L165.467 18.2403L166.407 12.7669L162.43 8.89035L167.925 8.09169L170.383 3.11133Z" fill="#FFAD3A" stroke="#1A1C1E" stroke-miterlimit="10" stroke-linecap="round" stroke-linejoin="round"/>
<path d="M163.5 9.41016L170.383 11.2L176.441 9.68565" fill="#FFAD3A"/>
<path d="M163.5 9.41016L170.383 11.2L176.441 9.68565" stroke="#1A1C1E" stroke-miterlimit="10" stroke-linecap="round" stroke-linejoin="round"/>
<path d="M170.521 5.27979V9.68543" stroke="#1A1C1E" stroke-miterlimit="10" stroke-linecap="round" stroke-linejoin="round"/>
<path d="M166.254 17.3957L170.247 12.1641V14.3667" fill="#FFAD3A"/>
<path d="M166.254 17.3957L170.247 12.1641V14.3667" stroke="#1A1C1E" stroke-miterlimit="10" stroke-linecap="round" stroke-linejoin="round"/>
<path d="M175.299 18.2414L171.209 12.1641" stroke="#1A1C1E" stroke-miterlimit="10" stroke-linecap="round" stroke-linejoin="round"/>
<path d="M155.691 79.5095C155.691 79.5095 162.103 82.1783 168.504 82.4834C174.906 82.7881 186.39 79.5095 186.39 79.5095L178.767 69.6802H161.087L155.691 79.5095Z" fill="#1A1C1E" stroke="#1A1C1E" stroke-miterlimit="10" stroke-linecap="round" stroke-linejoin="round"/>
<path d="M186.066 128.918C185.832 128.216 183.84 122.945 183.84 122.945C183.84 122.945 182.669 114.161 182.669 110.062C182.669 105.963 181.264 103.504 181.264 103.504L179.633 74.167L178.57 70.4556H176.229L169.728 70.5144L163.226 70.4556H162.408L159.733 75.5431L158.192 103.503C158.192 103.503 156.787 105.963 156.787 110.062C156.787 114.161 155.615 122.945 155.615 122.945C155.615 122.945 153.624 128.215 153.39 128.918C153.155 129.621 151.399 131.26 151.399 131.845C151.399 132.431 151.867 132.782 151.867 132.782H158.191C158.191 132.782 158.543 132.665 158.777 131.494C159.012 130.323 159.012 129.152 159.012 128.449C159.012 127.746 159.714 121.891 159.714 121.891L168.732 84.3412H168.967H170.489H170.724L179.742 121.891C179.742 121.891 180.444 127.746 180.444 128.449C180.444 129.152 180.444 130.323 180.679 131.494C180.913 132.666 181.264 132.782 181.264 132.782H187.589C187.589 132.782 188.057 132.431 188.057 131.845C188.057 131.261 186.3 129.621 186.066 128.918Z" fill="white" stroke="#1A1C1E" stroke-miterlimit="10" stroke-linecap="round" stroke-linejoin="round"/>
<path d="M183.841 122.945C183.841 122.945 182.67 114.161 182.67 110.062C182.67 105.963 181.264 103.504 181.264 103.504L179.633 74.167L178.571 70.4556H176.23L169.728 70.5144L163.227 70.4556H162.409L159.733 75.5431L158.193 103.503C158.193 103.503 156.787 105.963 156.787 110.062C156.787 114.161 155.616 122.945 155.616 122.945C155.616 122.945 155.6 122.987 155.572 123.062H159.576C159.658 122.366 159.715 121.891 159.715 121.891L168.733 84.3412H168.968H170.49H170.724L179.742 121.891C179.742 121.891 179.799 122.366 179.881 123.062H183.886C183.857 122.988 183.841 122.945 183.841 122.945Z" fill="#1A1C1E" stroke="#1A1C1E" stroke-miterlimit="10" stroke-linecap="round" stroke-linejoin="round"/>
<path d="M159.428 124.332L157.138 129.738H152.865C152.268 130.5 151.399 131.434 151.399 131.846C151.399 132.432 151.867 132.783 151.867 132.783H158.191C158.191 132.783 158.543 132.666 158.777 131.495C159.012 130.324 159.012 129.153 159.012 128.45C159.012 128.054 159.234 126.028 159.428 124.332Z" fill="white" stroke="#1A1C1E" stroke-miterlimit="10" stroke-linecap="round" stroke-linejoin="round"/>
<path d="M180.028 124.332L182.319 129.738H186.591C187.188 130.5 188.058 131.434 188.058 131.846C188.058 132.432 187.589 132.783 187.589 132.783H181.265C181.265 132.783 180.914 132.666 180.679 131.495C180.445 130.324 180.445 129.153 180.445 128.45C180.445 128.054 180.223 126.028 180.028 124.332Z" fill="white" stroke="#1A1C1E" stroke-miterlimit="10" stroke-linecap="round" stroke-linejoin="round"/>
<path d="M169.076 32.3978C169.076 32.3978 166.994 31.3072 165.408 33.4883C163.821 35.6695 164.912 37.6523 164.912 38.247C164.912 38.8418 162.533 40.8246 163.226 41.7167C163.92 42.6089 165.011 43.1047 164.912 43.5011C164.813 43.8974 162.037 43.3026 162.235 44.2943C162.434 45.2854 162.632 46.8718 166.201 49.5483C169.77 52.2248 174.925 50.0441 176.313 48.5567C177.701 47.0697 178.89 45.5828 178.692 44.6902C178.494 43.798 177.106 44.0954 177.106 43.6986C177.106 43.3017 178.593 41.9142 178.593 41.121C178.593 40.3278 177.007 39.3367 176.908 38.8409C176.809 38.3451 177.701 37.6513 177.701 36.8581C177.701 36.065 175.718 35.0738 175.718 34.3796C175.718 33.6858 177.205 32.4958 174.925 30.9099C172.645 29.324 169.571 30.5145 169.076 32.3978Z" fill="#1A1C1E" stroke="#1A1C1E" stroke-miterlimit="10" stroke-linecap="round" stroke-linejoin="round"/>
<path d="M168.449 44.7233L167.656 48.755C167.656 48.755 165.805 47.9618 165.276 47.7634C164.748 47.5649 163.228 70.4539 163.228 70.4539H177.966L177.172 47.8952L173.868 48.7545L172.876 44.6567L168.449 44.7233Z" fill="white" stroke="#1A1C1E" stroke-miterlimit="10" stroke-linecap="round" stroke-linejoin="round"/>
<path d="M174.066 55.3637L174.648 48.5515L173.867 48.7545L172.876 44.6567L168.448 44.7229L167.655 48.7545C167.655 48.7545 167.375 48.6345 167.002 48.4763L167.721 55.3632H174.066V55.3637Z" fill="white" stroke="#1A1C1E" stroke-miterlimit="10" stroke-linecap="round" stroke-linejoin="round"/>
<path d="M167.954 45.5407C167.954 45.5407 170.604 48.0799 171.156 48.0799C171.708 48.0799 173.364 45.7615 173.364 45.7615L173.143 44.9888L167.954 44.8784V45.5407Z" fill="#1A1C1E" stroke="#1A1C1E" stroke-miterlimit="10" stroke-linecap="round" stroke-linejoin="round"/>
<path d="M159.401 29.3545L163.979 24.604L162.677 21.0495C162.677 21.0495 163.97 18.6426 164.084 18.3698C164.198 18.097 164.672 17.2696 164.672 17.2696C164.672 17.2696 165.397 17.2204 165.451 18.0113C165.505 18.8027 165.604 20.2531 165.499 20.6577C165.394 21.0623 166.541 23.3027 166.08 24.3276C165.62 25.3525 160.952 31.6994 160.952 31.6994L159.401 29.3545Z" fill="white" stroke="#1A1C1E" stroke-miterlimit="10" stroke-linecap="round" stroke-linejoin="round"/>
<path d="M165.435 18.7407C165.435 18.7407 163.987 20.827 164.001 21.0245C164.015 21.2225 164.103 21.5477 164.103 21.5477" stroke="#1A1C1E" stroke-miterlimit="10" stroke-linecap="round" stroke-linejoin="round"/>
<path d="M165.151 17.5015L163.226 20.3486L163.223 21.2763" stroke="#1A1C1E" stroke-miterlimit="10" stroke-linecap="round" stroke-linejoin="round"/>
<path d="M166.597 48.0949C166.597 48.0949 166.134 60.2774 165.474 64.9695C164.813 69.662 164.019 72.3718 162.434 74.7509C160.847 77.13 155.692 79.5096 155.692 79.5096C155.692 79.5096 159.393 66.7543 160.12 63.2513C160.847 59.7483 160.847 52.3906 160.847 52.3906C160.847 52.3906 157.543 49.9454 154.899 46.1783C152.255 42.4112 150.113 38.5214 150.226 37.9682C150.339 37.4149 160.729 27.4136 160.729 27.4136L162.857 30.2885L157.092 39.0975C157.092 39.0975 162.499 45.3851 162.896 45.7153C163.292 46.046 164.813 46.2444 166.597 48.0949Z" fill="white" stroke="#1A1C1E" stroke-miterlimit="10" stroke-linecap="round" stroke-linejoin="round"/>
<path d="M166.285 47.7852L166.267 47.8308C166.267 47.8308 164.086 51.8624 164.086 55.6295C164.086 57.797 164.742 64.7409 165.299 66.1348C165.359 65.759 165.417 65.374 165.474 64.9699C166.135 60.2773 166.597 48.0953 166.597 48.0953C166.492 47.9854 166.388 47.8832 166.285 47.7852Z" fill="white" stroke="#1A1C1E" stroke-miterlimit="10" stroke-linecap="round" stroke-linejoin="round"/>
<path d="M182.145 29.2591L177.255 24.8311L178.312 21.1963C178.312 21.1963 176.858 18.8834 176.726 18.6188C176.593 18.3543 176.065 17.5615 176.065 17.5615C176.065 17.5615 175.338 17.5615 175.338 18.3547C175.338 19.1479 175.338 20.602 175.47 20.9984C175.602 21.3947 174.611 23.7082 175.139 24.6993C175.668 25.6909 180.757 31.7048 180.757 31.7048L182.145 29.2591Z" fill="white" stroke="#1A1C1E" stroke-miterlimit="10" stroke-linecap="round" stroke-linejoin="round"/>
<path d="M175.404 19.0811C175.404 19.0811 176.99 21.0638 176.99 21.2622C176.99 21.4606 176.924 21.7909 176.924 21.7909" stroke="#1A1C1E" stroke-miterlimit="10" stroke-linecap="round" stroke-linejoin="round"/>
<path d="M175.602 17.8262L177.717 20.536L177.783 21.4614" stroke="#1A1C1E" stroke-miterlimit="10" stroke-linecap="round" stroke-linejoin="round"/>
<path d="M175.487 48.0959C175.487 48.0959 175.95 60.2784 176.611 64.9705C177.272 69.6631 178.065 72.3728 179.651 74.752C181.237 77.1311 186.392 79.5106 186.392 79.5106C186.392 79.5106 182.691 66.7553 181.964 63.2523C181.237 59.7493 181.237 52.3917 181.237 52.3917C181.237 52.3917 184.542 49.9464 187.185 46.1793C189.829 42.4122 193.068 38.0034 192.87 37.4748C192.672 36.9461 181.011 27.7339 181.011 27.7339L179.359 30.9062L185.071 39.5702C185.071 39.5702 179.585 45.3861 179.189 45.7168C178.792 46.0471 177.272 46.2455 175.487 48.0959Z" fill="white" stroke="#1A1C1E" stroke-miterlimit="10" stroke-linecap="round" stroke-linejoin="round"/>
<path d="M163.211 48.1592C162.657 50.3764 160.848 52.391 160.848 52.391C160.848 52.391 161.964 49.8222 161.687 47.605" stroke="#1A1C1E" stroke-miterlimit="10" stroke-linecap="round" stroke-linejoin="round"/>
<path d="M178.175 47.605C179.145 49.6835 181.237 52.391 181.237 52.391C181.237 52.391 179.838 47.3281 179.838 46.6353" stroke="#1A1C1E" stroke-miterlimit="10" stroke-linecap="round" stroke-linejoin="round"/>
<path d="M175.8 47.7856L175.818 47.8313C175.818 47.8313 177.999 51.8629 177.999 55.63C177.999 57.7974 177.343 64.7414 176.785 66.1353C176.726 65.7595 176.668 65.3745 176.611 64.9704C175.95 60.2778 175.487 48.0958 175.487 48.0958C175.593 47.9859 175.697 47.8837 175.8 47.7856Z" fill="white" stroke="#1A1C1E" stroke-miterlimit="10" stroke-linecap="round" stroke-linejoin="round"/>
<path d="M166.532 40.6928C166.532 40.6928 165.21 38.7762 165.011 40.4283C164.813 42.0803 166.399 43.2703 166.399 43.2703L166.532 40.6928Z" fill="white" stroke="#1A1C1E" stroke-miterlimit="10" stroke-linecap="round" stroke-linejoin="round"/>
<path d="M175.454 40.2964C175.454 40.2964 176.577 39.173 176.908 40.4948C177.238 41.8166 175.52 43.0062 175.52 43.0062L175.454 40.2964Z" fill="white" stroke="#1A1C1E" stroke-miterlimit="10" stroke-linecap="round" stroke-linejoin="round"/>
<path d="M169.473 34.1831C169.473 34.1831 169.175 35.8685 167.986 36.2648C166.796 36.6612 166.399 37.2564 166.399 37.2564C166.399 37.2564 166.201 43.0063 166.598 43.601C166.994 44.1958 169.605 46.7072 170.893 46.7072C172.182 46.7072 175.289 44.3942 175.387 43.799C175.486 43.2042 175.321 37.6523 175.222 37.256C175.123 36.8596 173.834 36.2644 172.744 36.2644C171.653 36.2644 170.761 35.0748 170.563 34.678C170.365 34.2821 169.473 34.1831 169.473 34.1831Z" fill="white" stroke="#1A1C1E" stroke-miterlimit="10" stroke-linecap="round" stroke-linejoin="round"/>
<path d="M170.33 38.91C170.33 38.91 170.816 39.3077 171.258 39.3077C171.7 39.3077 171.965 38.8657 171.965 38.8657" stroke="#1A1C1E" stroke-miterlimit="10" stroke-linecap="round" stroke-linejoin="round"/>
<path d="M168.361 37.017C168.361 37.017 168.745 35.9128 169.85 36.5367" stroke="#1A1C1E" stroke-miterlimit="10" stroke-linecap="round" stroke-linejoin="round"/>
<path d="M172.059 36.5838C172.059 36.5838 173.115 35.7678 173.931 37.1599" stroke="#1A1C1E" stroke-miterlimit="10" stroke-linecap="round" stroke-linejoin="round"/>
<path d="M169.396 40.7766C169.396 40.7766 171.676 42.1645 173.163 40.2808" stroke="#1A1C1E" stroke-miterlimit="10" stroke-linecap="round" stroke-linejoin="round"/>
<path d="M169.438 37.4514C169.438 37.725 169.283 37.9472 169.091 37.9472C168.9 37.9472 168.744 37.725 168.744 37.4514C168.744 37.1777 168.9 36.9556 169.091 36.9556C169.283 36.9556 169.438 37.1777 169.438 37.4514Z" fill="#1A1C1E"/>
<path d="M173.108 37.4963C173.108 37.77 172.952 37.9921 172.761 37.9921C172.569 37.9921 172.414 37.77 172.414 37.4963C172.414 37.2226 172.569 37.0005 172.761 37.0005C172.952 37.0005 173.108 37.2226 173.108 37.4963Z" fill="#1A1C1E"/>
<path d="M195.545 131.964H142.805V162.101H195.545V131.964Z" fill="#EDF1F3" stroke="#1A1C1E" stroke-miterlimit="10" stroke-linecap="round" stroke-linejoin="round"/>
<path d="M226.475 161.308H111.874V191.446H226.475V161.308Z" fill="#EDF1F3" stroke="#1A1C1E" stroke-miterlimit="10" stroke-linecap="round" stroke-linejoin="round"/>
<path d="M260.349 181.862H78V212H260.349V181.862Z" fill="#EDF1F3" stroke="#1A1C1E" stroke-miterlimit="10" stroke-linecap="round" stroke-linejoin="round"/>
<path d="M103.298 98.7932L96.437 103.471L101.892 126.662L118.508 123.608L118.672 99.3127L110.299 97.6328L103.298 98.7932Z" fill="white" stroke="#1A1C1E" stroke-miterlimit="10" stroke-linecap="round" stroke-linejoin="round"/>
<path d="M107.123 103.172L109.248 105.982L109.597 121.07L112.281 125.241L114.292 118.869L110.253 105.942L111.259 102.755L109.033 100.579L107.123 103.172Z" fill="white" stroke="#1A1C1E" stroke-miterlimit="10" stroke-linecap="round" stroke-linejoin="round"/>
<path d="M109.499 102.824L106.604 105.96L102.423 98.9528L104.479 96.8574L109.017 97.054L112.872 99.04L113.077 104.191L109.499 102.824Z" fill="white" stroke="#1A1C1E" stroke-miterlimit="10" stroke-linecap="round" stroke-linejoin="round"/>
<path d="M111.516 83.9919C111.516 83.9919 113.351 85.8063 113.501 86.4298C113.652 87.0529 113.567 88.0632 113.567 88.0632L115.763 89.4858L114.431 90.7976C114.431 90.7976 115.707 94.3964 114.968 94.8033C114.229 95.2101 110.742 96.1046 110.742 96.1046L109.499 102.824L104.514 97.737L103.897 94.8671C103.897 94.8671 100.721 90.9664 101.148 89.0617C101.575 87.1569 103.099 84.3276 106.205 83.3228C109.311 82.3179 109.493 82.6979 109.493 82.6979L111.516 83.9919Z" fill="#CCCCCC" stroke="#1A1C1E" stroke-miterlimit="10" stroke-linecap="round" stroke-linejoin="round"/>
<path d="M105.419 92.0378C105.419 92.0378 107.289 91.5858 107.254 90.7064C107.219 89.827 105.932 89.1232 106.912 88.4545C107.892 87.7863 108.887 87.4948 108.867 86.9922C108.847 86.4895 107.948 86.022 108.556 85.4943C109.164 84.9666 111.517 83.9918 111.517 83.9918C111.517 83.9918 110.527 81.2624 106.873 81.1566C103.219 81.0508 99.8759 85.5883 100.117 88.4732C100.358 91.3582 103.529 95.133 104.293 95.3542C105.057 95.5759 105.419 92.0378 105.419 92.0378Z" fill="#1A1C1E" stroke="#1A1C1E" stroke-miterlimit="10" stroke-linecap="round" stroke-linejoin="round"/>
<path d="M106.198 92.6366C106.198 92.6366 104.997 90.9225 104.047 92.3446C103.097 93.7668 105.293 95.1894 106.424 95.1443C107.554 95.0991 107.786 94.5865 107.786 94.5865" fill="#CCCCCC"/>
<path d="M106.198 92.6366C106.198 92.6366 104.997 90.9225 104.047 92.3446C103.097 93.7668 105.293 95.1894 106.424 95.1443C107.554 95.0991 107.786 94.5865 107.786 94.5865" stroke="#1A1C1E" stroke-miterlimit="10" stroke-linecap="round" stroke-linejoin="round"/>
<path d="M112.314 88.1761C112.329 88.5579 112.172 88.874 111.964 88.8822C111.756 88.8904 111.575 88.588 111.56 88.2062C111.545 87.8245 111.701 87.5084 111.909 87.5002C112.117 87.492 112.299 87.7944 112.314 88.1761Z" fill="#1A1C1E"/>
<path d="M110.502 86.9269C110.502 86.9269 111.583 85.6251 112.739 86.2085" stroke="#1A1C1E" stroke-miterlimit="10" stroke-linecap="round" stroke-linejoin="round"/>
<path d="M93.6802 131.313L94.8433 132.477L96.2669 133.164L97.2329 136.383L96.2217 136.703L95.5416 135.985L94.9172 136.662L95.7569 139.048C95.7569 139.048 96.8867 139.375 96.8981 139.654C96.9091 139.933 96.188 140.52 96.188 140.52L94.8611 139.922L91.2149 139.509L90.1631 138.806L91.3061 132.64L93.6802 131.313Z" fill="#CCCCCC" stroke="#1A1C1E" stroke-miterlimit="10" stroke-linecap="round" stroke-linejoin="round"/>
<path d="M94.8604 139.922L93.5454 137.793" stroke="#1A1C1E" stroke-miterlimit="10" stroke-linecap="round" stroke-linejoin="round"/>
<path d="M93.1187 139.732L92.2261 137.643" stroke="#1A1C1E" stroke-miterlimit="10" stroke-linecap="round" stroke-linejoin="round"/>
<path d="M91.2149 139.509L90.9116 137.696" stroke="#1A1C1E" stroke-miterlimit="10" stroke-linecap="round" stroke-linejoin="round"/>
<path d="M96.4365 103.472L87.5586 117.543L90.8084 132.767L94.3014 131.999L94.4893 117.77L98.9232 112.182L96.4365 103.472Z" fill="white" stroke="#1A1C1E" stroke-miterlimit="10" stroke-linecap="round" stroke-linejoin="round"/>
<path d="M136.099 95.7037L136.269 93.6931C136.269 93.6931 136.091 92.3854 136.251 91.6903C136.412 90.9952 136.694 90.2326 136.922 89.6601C137.15 89.0877 137.45 88.7625 137.784 89.3126C138.119 89.8626 137.974 90.9327 137.974 90.9327C137.974 90.9327 138.182 89.8599 138.539 89.4074C138.897 88.955 140.072 88.5951 141.247 88.2352C142.423 87.8753 141.885 88.523 141.71 88.8428C141.535 89.163 140.429 89.7076 140.429 89.7076C140.429 89.7076 142.157 89.0754 142.653 88.9303C143.148 88.7853 143.923 89.3805 143.373 89.7158C142.823 90.0506 141.647 90.4104 141.647 90.4104C141.647 90.4104 142.975 90.7334 143.488 91.0257C144 91.3186 143.773 91.891 143.46 91.9033C143.148 91.9156 142.203 91.7656 142.203 91.7656C142.203 91.7656 143.043 92.421 142.87 92.8032C142.698 93.1859 141.112 92.6856 141.112 92.6856C141.112 92.6856 140.902 93.6959 140.177 94.3508C139.452 95.0058 138.531 95.4807 138.531 95.4807L137.096 97.1656L136.099 95.7037Z" fill="#CCCCCC" stroke="#1A1C1E" stroke-miterlimit="10" stroke-linecap="round" stroke-linejoin="round"/>
<path d="M140.431 89.709L140.961 92.0042" stroke="#1A1C1E" stroke-miterlimit="10" stroke-linecap="round" stroke-linejoin="round"/>
<path d="M137.975 90.9336L137.879 91.6889C137.879 91.6889 138.907 92.3366 138.759 93.3442" fill="#CCCCCC"/>
<path d="M137.975 90.9336L137.879 91.6889C137.879 91.6889 138.907 92.3366 138.759 93.3442" stroke="#1A1C1E" stroke-miterlimit="10" stroke-linecap="round" stroke-linejoin="round"/>
<path d="M118.672 99.3119L126.487 105.922L136.082 95.2656L138.088 97.0281L128.275 112.899L118.686 109.128L118.672 99.3119Z" fill="white" stroke="#1A1C1E" stroke-miterlimit="10" stroke-linecap="round" stroke-linejoin="round"/>
<path d="M101.891 126.661L103.082 148.284L93.9697 172.65L97.7719 174.015L111.727 148.028L113.763 136.437L126.25 138.527L118.906 155.773L121.981 156.811C121.981 156.811 137.468 133.44 137.735 133.429C138.003 133.419 119.049 125.786 119.049 125.786L118.507 123.608L101.891 126.661Z" fill="#1A1C1E" stroke="#1A1C1E" stroke-miterlimit="10" stroke-linecap="round" stroke-linejoin="round"/>
<path d="M121.982 156.811L123.436 159.698C123.436 159.698 124.883 160.175 125.428 160.422C125.973 160.668 126.244 160.746 126.529 161.181C126.814 161.615 126.838 162.239 126.838 162.239L119.622 162.527C119.622 162.527 117.392 160.296 116.369 159.265C115.347 158.236 118.907 155.773 118.907 155.773L121.982 156.811Z" fill="white" stroke="#1A1C1E" stroke-miterlimit="10" stroke-linecap="round" stroke-linejoin="round"/>
<path d="M93.9707 172.65C93.9707 172.65 94.0419 174.432 94.1057 176.036C94.1696 177.639 96.14 180.059 97.3337 180.904C98.5273 181.748 99.6033 181.884 99.2475 179.668C98.8913 177.451 97.7729 174.016 97.7729 174.016C97.7729 174.016 94.3233 172.547 93.9707 172.65Z" fill="white" stroke="#1A1C1E" stroke-miterlimit="10" stroke-linecap="round" stroke-linejoin="round"/>
<path d="M169.195 135.293L171.653 140.273L177.148 141.072L173.171 144.949L174.111 150.422L169.195 147.838L164.279 150.422L165.218 144.949L161.241 141.072L166.737 140.273L169.195 135.293Z" fill="white" stroke="#1A1C1E" stroke-miterlimit="10" stroke-linecap="round" stroke-linejoin="round"/>
<path d="M127.936 162.584L130.394 167.564L135.89 168.363L131.913 172.24L132.852 177.713L127.936 175.129L123.021 177.713L123.959 172.24L119.982 168.363L125.478 167.564L127.936 162.584Z" fill="white" stroke="#1A1C1E" stroke-miterlimit="10" stroke-linecap="round" stroke-linejoin="round"/>
<path d="M211.254 162.583L213.712 167.563L219.207 168.362L215.23 172.239L216.169 177.712L211.254 175.128L206.338 177.712L207.277 172.239L203.3 168.362L208.796 167.563L211.254 162.583Z" fill="white" stroke="#1A1C1E" stroke-miterlimit="10" stroke-linecap="round" stroke-linejoin="round"/>
<defs>
<linearGradient id="paint0_linear_4606_3669" x1="0" y1="40" x2="149.929" y2="296.868" gradientUnits="userSpaceOnUse">
<stop stop-color="#2290AC"/>
<stop offset="1" stop-color="#68C184"/>
</linearGradient>
</defs>
</svg>
