<?xml version="1.0" encoding="UTF-8"?>
<svg version="1.1" xmlns="http://www.w3.org/2000/svg" width="169" height="139">
<path d="M0 0 C1.16501038 -0.025746 2.33002075 -0.051492 3.53033447 -0.07801819 C8.87284471 -0.16189879 14.2151671 -0.22810711 19.55810547 -0.27441406 C22.37954122 -0.30115021 25.19928507 -0.34985245 28.02001953 -0.41796875 C32.07707678 -0.51569449 36.13228325 -0.54799808 40.19042969 -0.57592773 C41.45203918 -0.61408096 42.71364868 -0.65223419 44.01348877 -0.69154358 C52.52006949 -0.67259302 52.52006949 -0.67259302 55.37744141 1.86105347 C56.71070282 3.93777162 57.65047972 5.94571553 58.54980469 8.24047852 C59.09314453 9.27205078 59.63648437 10.30362305 60.19628906 11.36645508 C60.91268555 12.85870605 60.91268555 12.85870605 61.64355469 14.38110352 C62.19172852 15.51870117 62.73990234 16.65629883 63.3046875 17.82836914 C63.88658105 19.04898275 64.46828134 20.2696885 65.04980469 21.49047852 C65.67035495 22.78420288 66.29112763 24.07782058 66.91210938 25.37133789 C71.48362506 34.91480687 75.93152021 44.51388475 80.35888672 54.125 C85.80482244 65.89389844 91.49107118 77.54423581 97.1953125 89.18969727 C98.97884461 92.83156159 100.75470255 96.4770564 102.52337646 100.12615967 C103.21378439 101.54831706 103.90674229 102.96923906 104.60211182 104.38897705 C105.60385739 106.43823503 106.59385334 108.49277627 107.58105469 110.54907227 C108.15146484 111.72655029 108.721875 112.90402832 109.30957031 114.1171875 C111.10125627 118.62920295 110.91442591 121.68635799 109.54980469 126.24047852 C109.32164063 127.21500977 109.09347656 128.18954102 108.85839844 129.19360352 C107.53310383 134.60580138 107.53310383 134.60580138 106.54980469 137.24047852 C103.29946459 138.86564857 99.80568807 138.67479098 96.23730469 138.80297852 C95.47740234 138.86549805 94.7175 138.92801758 93.93457031 138.99243164 C91.58758688 139.05972135 89.78842022 138.95789001 87.54980469 138.24047852 C85.14663699 135.96210804 83.94395746 133.21243986 82.54980469 130.24047852 C82.06084717 129.27505127 81.57188965 128.30962402 81.06811523 127.31494141 C79.35249841 123.89332124 77.69576333 120.44588472 76.04980469 116.99047852 C75.42998506 115.69821986 74.80994488 114.40606696 74.18969727 113.11401367 C69.59814424 103.52830706 65.12832871 93.88766883 60.67919922 84.23510742 C56.04529344 74.22097984 51.2530908 64.28705759 46.42480469 54.36547852 C45.86676651 53.21870636 45.86676651 53.21870636 45.29745483 52.04876709 C42.07555971 45.43199397 38.84114211 38.82315336 35.54980469 32.24047852 C17.23480469 31.74547852 17.23480469 31.74547852 -1.45019531 31.24047852 C-10.38644494 14.48501047 -10.38644494 14.48501047 -9.08300781 8.26782227 C-6.54572558 0.13912177 -6.54572558 0.13912177 0 0 Z " fill="#6DC388" transform="translate(11.4501953125,-0.240478515625)"/>
<path d="M0 0 C1.28777344 -0.00386719 1.28777344 -0.00386719 2.6015625 -0.0078125 C3.45234375 -0.05679688 4.303125 -0.10578125 5.1796875 -0.15625 C7.76623986 -0.18042339 9.76793878 -0.07323544 12.2265625 0.7421875 C14.54743879 3.13055515 15.86985536 5.72496001 17.2265625 8.7421875 C17.7841626 9.61472168 17.7841626 9.61472168 18.35302734 10.50488281 C20.64277928 16.36941236 18.97273213 22.89543276 17.42236328 28.76293945 C17.23050446 29.52006729 17.03864563 30.27719513 16.8409729 31.05726624 C16.21067256 33.534182 15.5666534 36.00728598 14.921875 38.48046875 C14.47758643 40.21045406 14.03398344 41.94061556 13.59103394 43.67094421 C12.66387004 47.28424597 11.7301971 50.89578019 10.79150391 54.50610352 C9.58831266 59.13486902 8.39884599 63.76702548 7.21385384 68.40047932 C6.30041898 71.96778236 5.38115023 75.53356069 4.45995712 79.09886742 C4.01910691 80.80693468 3.5797596 82.51539057 3.14194107 84.22423744 C2.53019988 86.60715535 1.91096488 88.98799722 1.28955078 91.3684082 C1.10972656 92.07441162 0.92990234 92.78041504 0.74462891 93.5078125 C-0.10010403 96.71257995 -0.91305297 98.95161071 -2.7734375 101.7421875 C-4.65283203 102.08276367 -4.65283203 102.08276367 -6.90625 102.03515625 C-7.71191406 102.02548828 -8.51757812 102.01582031 -9.34765625 102.00585938 C-10.18941406 101.98072266 -11.03117187 101.95558594 -11.8984375 101.9296875 C-12.74792969 101.91615234 -13.59742187 101.90261719 -14.47265625 101.88867188 C-16.57318587 101.85326969 -18.67339043 101.79946151 -20.7734375 101.7421875 C-22.09410505 99.35054582 -23.40505542 96.95438534 -24.7109375 94.5546875 C-25.08412109 93.88115234 -25.45730469 93.20761719 -25.84179688 92.51367188 C-26.19951172 91.85302734 -26.55722656 91.19238281 -26.92578125 90.51171875 C-27.25570068 89.90948486 -27.58562012 89.30725098 -27.92553711 88.68676758 C-30.18462216 83.50576775 -29.52065929 79.49181925 -28.09863281 74.16967773 C-27.90852631 73.42434784 -27.7184198 72.67901794 -27.52255249 71.91110229 C-26.89291898 69.4547607 -26.24773579 67.00281933 -25.6015625 64.55078125 C-25.15823932 62.84132606 -24.71560187 61.1316929 -24.27362061 59.42189026 C-23.34555913 55.84167724 -22.40991104 52.26355866 -21.46875 48.68676758 C-20.26363761 44.10477687 -19.07640048 39.5183821 -17.89467239 34.93031216 C-16.98350766 31.40008371 -16.06345417 27.87221982 -15.14064789 24.34501839 C-14.69948127 22.65482538 -14.26094922 20.96394242 -13.82511139 19.27236748 C-13.21427198 16.90756478 -12.59166564 14.54617176 -11.96582031 12.18530273 C-11.69912033 11.13864693 -11.69912033 11.13864693 -11.42703247 10.07084656 C-9.42562109 2.6321304 -7.56220805 0.2126871 0 0 Z " fill="#6DC388" transform="translate(29.7734375,36.2578125)"/>
<path d="M0 0 C1.28293945 -0.0937793 1.28293945 -0.0937793 2.59179688 -0.18945312 C5.18044206 -0.25562299 7.20808948 -0.19801744 9.6875 0.5625 C12.02480741 2.94269379 13.33508335 5.53844764 14.6875 8.5625 C15.05214355 9.23909668 15.41678711 9.91569336 15.79248047 10.61279297 C19.10528111 17.82938487 15.25196313 26.8971445 13.25 34 C12.92451172 35.19560547 12.59902344 36.39121094 12.26367188 37.62304688 C9.84122964 46.40877036 9.84122964 46.40877036 8.6875 47.5625 C7.27179877 47.64901611 5.851905 47.66954904 4.43359375 47.66015625 C3.57958984 47.65693359 2.72558594 47.65371094 1.84570312 47.65039062 C0.94787109 47.64201172 0.05003906 47.63363281 -0.875 47.625 C-1.77669922 47.62048828 -2.67839844 47.61597656 -3.60742188 47.61132812 C-5.84251314 47.59950225 -8.07747437 47.5830222 -10.3125 47.5625 C-11.69263585 45.07402749 -13.04059945 42.57536113 -14.375 40.0625 C-14.76494141 39.36640625 -15.15488281 38.6703125 -15.55664062 37.953125 C-18.21751591 32.86685012 -18.70280268 29.18483664 -17.3125 23.5625 C-17.10520264 22.68029785 -16.89790527 21.7980957 -16.68432617 20.88916016 C-15.96027043 17.95369164 -15.17635786 15.04025149 -14.375 12.125 C-14.11009766 11.12017578 -13.84519531 10.11535156 -13.57226562 9.08007812 C-13.31251953 8.12681641 -13.05277344 7.17355469 -12.78515625 6.19140625 C-12.43336304 4.8931189 -12.43336304 4.8931189 -12.07446289 3.56860352 C-10.33425876 -1.01302331 -4.17712575 0.1335438 0 0 Z " fill="#2D95B0" transform="translate(122.3125,36.4375)"/>
<path d="M0 0 C10.23 0 20.46 0 31 0 C31 10.23 31 20.46 31 31 C20.77 31 10.54 31 0 31 C0 20.77 0 10.54 0 0 Z " fill="#2F96B0" transform="translate(112,0)"/>
</svg>
