<svg width="55" height="55" viewBox="0 0 55 55" fill="none" xmlns="http://www.w3.org/2000/svg">
<g clip-path="url(#clip0_5485_933)">
<path d="M7.35543 48.8134C7.65927 48.8134 7.90543 48.5673 7.90543 48.2634V32.8046C7.90543 32.5007 7.65927 32.2546 7.35543 32.2546H2.95543C2.8832 32.2546 2.81167 32.2688 2.74494 32.2964C2.6782 32.324 2.61757 32.3645 2.56649 32.4156C2.51542 32.4667 2.4749 32.5273 2.44727 32.5941C2.41963 32.6608 2.40542 32.7323 2.40543 32.8046V48.2634C2.40543 48.5673 2.65159 48.8134 2.95543 48.8134H7.35543ZM7.35543 51.0134H2.95543C1.43659 51.0134 0.205431 49.7823 0.205431 48.2634V32.8046C0.205431 31.2857 1.43659 30.0546 2.95543 30.0546H7.35543C8.87427 30.0546 10.1054 31.2857 10.1054 32.8046V48.2634C10.1054 49.7823 8.87427 51.0134 7.35543 51.0134ZM22.3093 48.8134C22.6131 48.8134 22.8593 48.5673 22.8593 48.2634V29.6124C22.8593 29.3085 22.6131 29.0624 22.3093 29.0624H17.9093C17.8371 29.0623 17.7655 29.0766 17.6988 29.1042C17.6321 29.1318 17.5714 29.1723 17.5204 29.2234C17.4693 29.2745 17.4288 29.3351 17.4011 29.4019C17.3735 29.4686 17.3593 29.5401 17.3593 29.6124V48.2634C17.3593 48.5673 17.6055 48.8134 17.9093 48.8134H22.3093ZM22.3093 51.0134H17.9093C16.3905 51.0134 15.1593 49.7823 15.1593 48.2634V29.6124C15.1593 28.0935 16.3905 26.8624 17.9093 26.8624H22.3093C23.8281 26.8624 25.0593 28.0935 25.0593 29.6124V48.2634C25.0593 49.7823 23.8281 51.0134 22.3093 51.0134ZM37.2632 48.8466C37.567 48.8466 37.8132 48.6005 37.8132 48.2966V26.4528C37.8132 26.1493 37.5668 25.9028 37.2632 25.9028H32.8632C32.5596 25.9028 32.3132 26.1493 32.3132 26.4528V48.2966C32.3132 48.6005 32.5593 48.8466 32.8632 48.8466H37.2632ZM37.2632 51.0466H32.8632C31.3443 51.0466 30.1132 49.8155 30.1132 48.2966V26.4528C30.1132 24.9344 31.3445 23.7028 32.8632 23.7028H37.2632C38.7819 23.7028 40.0132 24.9344 40.0132 26.4528V48.2966C40.0132 49.8155 38.782 51.0466 37.2632 51.0466ZM52.2171 48.8467C52.5209 48.8467 52.7671 48.6006 52.7671 48.2967V23.7029C52.7671 23.3991 52.5209 23.1529 52.2171 23.1529H47.8171C47.7448 23.1529 47.6733 23.1671 47.6066 23.1948C47.5398 23.2224 47.4792 23.2629 47.4281 23.314C47.377 23.3651 47.3365 23.4257 47.3089 23.4924C47.2813 23.5592 47.267 23.6307 47.2671 23.7029V48.2967C47.2671 48.6006 47.5132 48.8467 47.8171 48.8467H52.2171ZM52.2171 51.0467H47.8171C46.2982 51.0467 45.0671 49.8156 45.0671 48.2967V23.7029C45.0671 22.1841 46.2982 20.9529 47.8171 20.9529H52.2171C53.7359 20.9529 54.9671 22.1841 54.9671 23.7029V48.2967C54.9671 49.8156 53.7359 51.0467 52.2171 51.0467ZM51.8838 5.82739C36.3825 14.5607 19.0816 19.7128 1.03349 20.8045C0.427096 20.8412 -0.0347641 21.3625 0.00192044 21.9689C0.038605 22.5753 0.559923 23.0372 1.16632 23.0005C19.5492 21.8886 37.1736 16.6401 52.9636 7.74412C53.4929 7.44591 53.6803 6.77512 53.382 6.2458C53.0838 5.71647 52.4131 5.52918 51.8838 5.82739Z" fill="#1C3F9E"/>
<path d="M48.4047 6.04961L53.9042 6.05788C54.5117 6.05879 55.0049 5.56707 55.0059 4.95955C55.0068 4.35202 54.5151 3.8588 53.9075 3.85788L48.4081 3.84961C47.8005 3.8487 47.3073 4.34042 47.3064 4.94795C47.3055 5.55547 47.7972 6.0487 48.4047 6.04961Z" fill="#1C3F9E"/>
<path d="M52.8058 4.95507L52.7893 10.4243C52.7875 11.0318 53.2785 11.5258 53.886 11.5276C54.4935 11.5295 54.9875 11.0385 54.9893 10.431L55.0058 4.96173C55.0076 4.35421 54.5167 3.86023 53.9091 3.8584C53.3016 3.85658 52.8076 4.34755 52.8058 4.95507Z" fill="#1C3F9E"/>
</g>
<defs>
<clipPath id="clip0_5485_933">
<rect width="55" height="55" fill="white"/>
</clipPath>
</defs>
</svg>
