<svg width="15" height="14" viewBox="0 0 15 14" fill="none" xmlns="http://www.w3.org/2000/svg">
<path d="M5.08277 10.2019C5.26264 10.3297 5.47763 10.3985 5.69821 10.3991C5.9188 10.3997 6.13415 10.3319 6.31467 10.2051C6.47626 10.0899 6.60345 9.93231 6.68104 9.74949L7.1754 8.24171C7.2963 7.8783 7.50023 7.54807 7.771 7.27725C8.04177 7.00642 8.37193 6.80245 8.73527 6.68152L10.1876 6.20827C10.396 6.13476 10.5764 5.99839 10.7041 5.81798C10.8317 5.63756 10.9003 5.42198 10.9003 5.20095C10.9003 4.97992 10.8317 4.76434 10.7041 4.58392C10.5764 4.4035 10.396 4.26714 10.1876 4.19363L8.70767 3.71637C8.34552 3.59511 8.01638 3.39156 7.74608 3.1217C7.47579 2.85184 7.27169 2.523 7.1498 2.16099L6.67824 0.709212C6.60491 0.500683 6.46847 0.320171 6.28787 0.19275C6.10661 0.0672403 5.89139 0 5.67092 0C5.45046 0 5.23524 0.0672403 5.05398 0.19275C4.87019 0.322924 4.73207 0.507686 4.65921 0.720813L4.18205 2.18779C4.06083 2.54058 3.86123 2.86131 3.59826 3.12585C3.33529 3.3904 3.01579 3.59189 2.66377 3.71517L1.21309 4.18643C1.00358 4.26025 0.822299 4.39757 0.694488 4.57929C0.566677 4.761 0.498699 4.97805 0.500019 5.20022C0.501339 5.42239 0.571892 5.63862 0.701854 5.8188C0.831816 5.99898 1.01472 6.13415 1.22509 6.20547L2.65977 6.67152C3.02324 6.79358 3.3534 6.9984 3.62423 7.26984C3.89506 7.54128 4.09916 7.87192 4.22044 8.23571L4.69241 9.68508C4.7656 9.89351 4.90199 10.0743 5.08237 10.2019M5.76392 9.35304L5.73912 9.38545C5.72709 9.39292 5.71312 9.39668 5.69896 9.39626C5.6848 9.39583 5.67108 9.39124 5.65952 9.38305C5.65137 9.37746 5.64431 9.37041 5.63873 9.36224L5.17077 7.92207C5.00244 7.40918 4.7158 6.94309 4.33403 6.56151C3.95148 6.17947 3.48519 5.89183 2.97215 5.72141L1.54467 5.25976C1.53152 5.25432 1.52006 5.24549 1.51147 5.23415C1.50311 5.22253 1.49888 5.20845 1.49947 5.19415C1.49974 5.17948 1.504 5.16614 1.51227 5.15414C1.51789 5.14613 1.52494 5.13921 1.53307 5.13374L2.98095 4.66368C3.4856 4.48884 3.94325 4.20015 4.31844 3.81998C4.6834 3.44876 4.96045 3.00036 5.12917 2.50783L5.60433 1.04325C5.60903 1.02977 5.61786 1.0181 5.62956 1.00992C5.64126 1.00173 5.65525 0.997438 5.66952 0.997646C5.68177 0.997639 5.69382 1.00076 5.70453 1.00671C5.71524 1.01266 5.72425 1.02124 5.73072 1.03165L6.19948 2.47182C6.37017 2.98184 6.65671 3.44535 7.03661 3.82598C7.41859 4.20776 7.88417 4.49539 8.3965 4.66609L9.83638 5.13334L9.86278 5.14094C9.87371 5.14677 9.88284 5.15548 9.88919 5.16613C9.89553 5.17678 9.89885 5.18895 9.89877 5.20135C9.89877 5.21602 9.89478 5.22935 9.88678 5.24135C9.88105 5.24876 9.87447 5.25548 9.86718 5.26136L8.4233 5.72981C7.91158 5.8995 7.44658 6.18644 7.06541 6.56776C6.68424 6.94908 6.39744 7.41422 6.22788 7.92607L5.76392 9.35304ZM11.2491 13.8552C11.3805 13.9483 11.5375 13.9985 11.6986 13.9988L11.7006 14C11.8637 13.9997 12.0225 13.9482 12.1548 13.8529C12.2871 13.7576 12.3862 13.6233 12.4382 13.4687L12.6657 12.7687C12.7124 12.6289 12.7908 12.5019 12.8949 12.3977C12.9989 12.2934 13.1257 12.2147 13.2653 12.1678L13.9812 11.935C14.0946 11.8948 14.1972 11.829 14.2809 11.7425C14.3645 11.6561 14.427 11.5515 14.4634 11.4368C14.4999 11.3221 14.5092 11.2006 14.4908 11.0817C14.4724 10.9628 14.4266 10.8498 14.3572 10.7516C14.2584 10.6133 14.1173 10.5108 13.9552 10.4596L13.2525 10.2319C13.1129 10.1851 12.9861 10.1066 12.882 10.0025C12.7779 9.89834 12.6993 9.77149 12.6525 9.63188L12.4198 8.91619C12.3661 8.76312 12.2659 8.63067 12.1332 8.53739C12.0005 8.44411 11.8419 8.39467 11.6797 8.39599C11.5176 8.39732 11.3598 8.44933 11.2287 8.54476C11.0975 8.6402 10.9995 8.77426 10.9483 8.92819L10.7195 9.63108C10.6741 9.76863 10.5979 9.894 10.4967 9.99764C10.3955 10.1013 10.272 10.1805 10.1356 10.2291L9.41961 10.462C9.26665 10.5156 9.13429 10.6158 9.04105 10.7484C8.94782 10.881 8.89838 11.0395 8.89966 11.2016C8.90093 11.3637 8.95287 11.5214 9.04818 11.6525C9.14349 11.7837 9.27742 11.8817 9.43121 11.933L10.132 12.161C10.2719 12.2078 10.3991 12.2866 10.5032 12.3912C10.6074 12.4958 10.6857 12.6232 10.7319 12.7635L10.9647 13.4787C11.0183 13.6308 11.1179 13.7624 11.2491 13.8552ZM10.4435 11.2141L10.3963 11.1985L10.4523 11.1789C10.7368 11.0806 10.9946 10.9178 11.2058 10.7033C11.4169 10.4888 11.5756 10.2283 11.6694 9.94231L11.6854 9.89391L11.7014 9.94512C11.7971 10.2332 11.9587 10.495 12.1734 10.7095C12.3881 10.9241 12.65 11.0855 12.9381 11.1809L13.0005 11.2009L12.9521 11.2169C12.6636 11.3124 12.4015 11.4742 12.1867 11.6892C11.9719 11.9041 11.8104 12.1664 11.715 12.455L11.699 12.5034L11.683 12.4542C11.5877 12.1649 11.4258 11.9021 11.2105 11.6867C10.9952 11.4713 10.7323 11.3094 10.4431 11.2141" fill="#2290AC"/>
</svg>
