<svg width="56" height="56" viewBox="0 0 56 56" fill="none" xmlns="http://www.w3.org/2000/svg">
<path d="M43.1341 47.1135C49.2219 47.1135 54.1571 42.1783 54.1571 36.0904C54.1571 30.0026 49.2219 25.0674 43.1341 25.0674C37.0463 25.0674 32.1111 30.0026 32.1111 36.0904C32.1111 42.1783 37.0463 47.1135 43.1341 47.1135Z" fill="white"/>
<path d="M29.3553 38.9038H2.71652C2.17833 38.9038 1.74048 38.466 1.74048 37.9278V10.3702C1.74048 9.83204 2.17833 9.39418 2.71652 9.39418H44.9712C45.5094 9.39418 45.9473 9.83204 45.9473 10.3702V22.3121C45.9473 22.7876 46.3328 23.1733 46.8085 23.1733C47.284 23.1733 47.6697 22.7877 47.6697 22.3121V10.3702C47.6697 8.88231 46.4592 7.67188 44.9713 7.67188H2.71652C1.22862 7.67188 0.0181885 8.88231 0.0181885 10.3702V37.9278C0.0181885 39.4157 1.22862 40.6261 2.71652 40.6261H29.3553C29.8309 40.6261 30.2165 40.2406 30.2165 39.7649C30.2165 39.2895 29.831 38.9038 29.3553 38.9038Z" fill="#00AC4F"/>
<path d="M43.1341 24.2061C36.5812 24.2061 31.25 29.5373 31.25 36.0902C31.25 42.6431 36.5813 47.9744 43.1341 47.9744C49.687 47.9744 55.0182 42.6432 55.0182 36.0902C55.0182 29.5372 49.687 24.2061 43.1341 24.2061ZM43.1341 46.2521C37.5309 46.2521 32.9723 41.6935 32.9723 36.0902C32.9723 30.4869 37.5309 25.9284 43.1341 25.9284C48.7373 25.9284 53.2959 30.4869 53.2959 36.0902C53.2959 41.6935 48.7372 46.2521 43.1341 46.2521Z" fill="#00AC4F"/>
<path d="M6.39089 25.3738H13.7395C14.2151 25.3738 14.6007 24.9882 14.6007 24.5126C14.6007 24.037 14.2152 23.6514 13.7395 23.6514H6.39089C5.91534 23.6514 5.52969 24.0369 5.52969 24.5126C5.52969 24.9882 5.91523 25.3738 6.39089 25.3738Z" fill="#00AC4F"/>
<path d="M6.39089 19.2498H28.4369C28.9124 19.2498 29.2981 18.8642 29.2981 18.3886C29.2981 17.913 28.9125 17.5273 28.4369 17.5273H6.39089C5.91534 17.5273 5.52969 17.9129 5.52969 18.3886C5.52969 18.8641 5.91523 19.2498 6.39089 19.2498Z" fill="#00AC4F"/>
<path d="M24.7625 25.3738C25.2381 25.3738 25.6237 24.9882 25.6237 24.5126C25.6237 24.037 25.2382 23.6514 24.7625 23.6514H17.4139C16.9383 23.6514 16.5527 24.0369 16.5527 24.5126C16.5527 24.9881 16.9382 25.3738 17.4139 25.3738H24.7625Z" fill="#00AC4F"/>
<path d="M30.2739 23.6514H28.4368C27.9612 23.6514 27.5756 24.0369 27.5756 24.5126C27.5756 24.9881 27.9611 25.3738 28.4368 25.3738H30.2739C30.7494 25.3738 31.1351 24.9882 31.1351 24.5126C31.1351 24.037 30.7496 23.6514 30.2739 23.6514Z" fill="#00AC4F"/>
<path d="M50.173 31.8079C49.8367 31.4716 49.2914 31.4716 48.9552 31.8079L41.2969 39.4662L37.3129 35.4822C36.9766 35.1459 36.4313 35.1459 36.0951 35.4822C35.7587 35.8185 35.7587 36.3637 36.0951 36.7001L40.688 41.293C40.8561 41.4612 41.0765 41.5452 41.2969 41.5452C41.5172 41.5452 41.7376 41.4612 41.9057 41.293L50.1729 33.0258C50.5094 32.6894 50.5094 32.1443 50.173 31.8079Z" fill="#00AC4F"/>
</svg>
