<svg width="368" height="213" viewBox="0 0 368 213" fill="none" xmlns="http://www.w3.org/2000/svg">
<g opacity="0.6">
<path opacity="0.3" d="M57.9532 26.6845C50.3714 19.6474 38.4404 20.0513 31.3577 27.5843C24.275 35.1173 24.6814 46.971 32.2633 54.0081C39.8456 61.0451 51.7761 60.6413 58.8588 53.1082C65.9415 45.5752 65.5355 33.7215 57.9532 26.6845ZM51.6829 46.448C48.2963 50.0498 42.5917 50.2428 38.9666 46.8779C35.3415 43.5135 35.147 37.8458 38.5336 34.244C41.9203 30.6423 47.6248 30.4493 51.25 33.8141C54.8751 37.1785 55.0696 42.8463 51.6829 46.448Z" fill="#2290AC"/>
<path opacity="0.3" d="M31.3577 27.5841C38.4404 20.0511 50.3709 19.6477 57.9532 26.6843L51.2499 33.814C47.6248 30.4496 41.9203 30.6426 38.5336 34.2438C35.147 37.8456 35.3415 43.5133 38.9666 46.8777L32.2633 54.0074C24.6814 46.9708 24.275 35.1176 31.3577 27.5841Z" fill="#2290AC"/>
<path opacity="0.3" d="M57.185 23.6299C66.4731 32.2504 67.5848 46.2637 58.9087 55.4917L49.4863 47.3334C53.6347 42.9206 54.5359 37.0299 50.0955 32.9076L57.185 23.6299Z" fill="#2290AC"/>
</g>
<path d="M318.614 87.6509H316.643V88.2188H318.614V87.6509Z" fill="#F0F8F1"/>
<path d="M323.625 90.6865H321.103V91.2544H323.625V90.6865Z" fill="#F0F8F1"/>
<path d="M332.403 90.6865H329.881V91.2544H332.403V90.6865Z" fill="#F0F8F1"/>
<path d="M341.181 90.6865H338.659V91.2544H341.181V90.6865Z" fill="#F0F8F1"/>
<path d="M349.958 90.6865H347.437V91.2544H349.958V90.6865Z" fill="#F0F8F1"/>
<path d="M358.737 90.6865H356.215V91.2544H358.737V90.6865Z" fill="#F0F8F1"/>
<path d="M367.515 90.6865H364.993V91.2544H367.515V90.6865Z" fill="#F0F8F1"/>
<path d="M318.614 80.0645H316.643V80.6323H318.614V80.0645Z" fill="#F0F8F1"/>
<path d="M318.614 65.7905H316.643V66.3584H318.614V65.7905Z" fill="#F0F8F1"/>
<path d="M318.614 58.6133H316.643V59.1812H318.614V58.6133Z" fill="#F0F8F1"/>
<path d="M318.714 72.9268H316.742V73.4946H318.714V72.9268Z" fill="#F0F8F1"/>
<path d="M367.444 88.2182C367.444 88.2225 367.372 88.2268 367.232 88.2312C367.081 88.2341 366.876 88.2384 366.612 88.2437C366.054 88.249 365.252 88.2572 364.226 88.2674C362.142 88.277 359.147 88.2905 355.451 88.3074C348.032 88.3171 337.802 88.3296 326.502 88.3441C324.153 88.3436 321.849 88.3426 319.642 88.3422H319.518V88.2182C319.535 78.5453 319.55 70.0328 319.561 63.9241C319.576 60.8849 319.589 58.444 319.598 56.75C319.607 55.9192 319.614 55.2717 319.619 54.8191C319.624 54.6078 319.628 54.4423 319.63 54.3193C319.634 54.2068 319.638 54.1494 319.642 54.1494C319.645 54.1494 319.649 54.2068 319.653 54.3193C319.656 54.4428 319.66 54.6083 319.664 54.8191C319.669 55.2717 319.676 55.9192 319.686 56.75C319.694 58.4445 319.707 60.8849 319.723 63.9241C319.733 70.0328 319.748 78.5458 319.765 88.2182L319.641 88.0942C321.848 88.0937 324.152 88.0932 326.501 88.0922C337.8 88.1067 348.031 88.1197 355.451 88.1289C359.146 88.1458 362.141 88.1593 364.225 88.1689C365.251 88.1791 366.053 88.1868 366.611 88.1926C366.875 88.1979 367.08 88.2022 367.231 88.2051C367.372 88.2095 367.444 88.2138 367.444 88.2182Z" fill="#F0F8F1"/>
<path d="M367.999 73.2075C367.999 73.277 357.601 73.3329 344.776 73.3329C331.946 73.3329 321.549 73.2765 321.549 73.2075C321.549 73.138 331.946 73.082 344.776 73.082C357.601 73.0816 367.999 73.138 367.999 73.2075Z" fill="#F0F8F1"/>
<path d="M367.999 66.0708C367.999 66.1402 357.601 66.1962 344.776 66.1962C331.946 66.1962 321.549 66.1398 321.549 66.0708C321.549 66.0018 331.946 65.9453 344.776 65.9453C357.601 65.9453 367.999 66.0013 367.999 66.0708Z" fill="#F0F8F1"/>
<path d="M367.999 58.8989C367.999 58.9684 357.601 59.0248 344.776 59.0248C331.946 59.0248 321.549 58.9684 321.549 58.8989C321.549 58.8294 331.946 58.7734 344.776 58.7734C357.601 58.7734 367.999 58.8299 367.999 58.8989Z" fill="#F0F8F1"/>
<path d="M367.999 80.3457C367.999 80.4151 357.601 80.4711 344.776 80.4711C331.946 80.4711 321.549 80.4147 321.549 80.3457C321.549 80.2767 331.946 80.2202 344.776 80.2202C357.601 80.2197 367.999 80.2762 367.999 80.3457Z" fill="#F0F8F1"/>
<path opacity="0.3" d="M322.028 86.6804C322.028 85.4853 322.028 80.3468 322.028 80.3468L325.977 74.2188L328.657 76.2742L334.158 67.7337L337.402 70.0173L341.915 62.1388L345.582 65.1249L351.083 54.6733L357.007 66.3548L361.803 60.51L367.444 58.8965V86.6809H322.028V86.6804Z" fill="#2290AC"/>
<path d="M368 56.6515C368 56.6549 367.966 56.6578 367.9 56.6611C367.823 56.6635 367.727 56.6664 367.606 56.6703C367.332 56.6746 366.951 56.6804 366.461 56.6886C365.445 56.6964 363.981 56.7075 362.132 56.7214L362.187 56.6944C360.926 58.346 359.358 60.3989 357.555 62.7597L357.525 62.7983H357.476C354.103 62.8046 350.154 62.8119 345.861 62.8196L345.965 62.7612C344.436 65.3053 342.787 68.0502 341.083 70.8877C339.419 73.6509 337.808 76.3258 336.287 78.8521L336.193 79.0089L336.086 78.8612C333.794 75.7072 331.673 72.7896 329.799 70.2108L329.968 70.2055C327.577 73.9201 325.603 76.9863 324.219 79.1372C323.531 80.1934 322.99 81.0242 322.612 81.6042C322.431 81.8768 322.289 82.0905 322.185 82.2468C322.087 82.3911 322.029 82.4611 322.029 82.4611C322.029 82.4611 322.069 82.38 322.158 82.2299C322.256 82.0693 322.39 81.8507 322.561 81.5709C322.928 80.9837 323.453 80.1427 324.12 79.074C325.487 76.9115 327.435 73.8294 329.796 70.095L329.876 69.9681L329.965 70.0897C331.848 72.6618 333.979 75.5716 336.283 78.7179L336.081 78.7271C337.599 76.1994 339.207 73.523 340.868 70.7579C342.576 67.9218 344.227 65.1789 345.759 62.6362L345.794 62.5774H345.862C350.155 62.5851 354.104 62.5923 357.477 62.5986L357.398 62.6372C359.22 60.2904 360.804 58.2495 362.078 56.6076L362.099 56.5801H362.133C363.982 56.5941 365.446 56.6052 366.462 56.6129C366.952 56.6206 367.333 56.6269 367.607 56.6307C367.728 56.6346 367.824 56.6375 367.901 56.6404C367.966 56.6447 368 56.6481 368 56.6515Z" fill="#2290AC" fill-opacity="0.4"/>
<path d="M331.785 72.1755C331.785 72.4124 331.585 72.6044 331.339 72.6044C331.093 72.6044 330.894 72.4124 330.894 72.1755C330.894 71.9386 331.093 71.7466 331.339 71.7466C331.585 71.7466 331.785 71.9386 331.785 72.1755Z" fill="#2290AC" fill-opacity="0.4"/>
<path d="M345.182 64.5671C345.182 64.804 344.982 64.996 344.736 64.996C344.49 64.996 344.291 64.804 344.291 64.5671C344.291 64.3302 344.49 64.1382 344.736 64.1382C344.982 64.1382 345.182 64.3302 345.182 64.5671Z" fill="#2290AC" fill-opacity="0.4"/>
<path d="M355.597 62.697C355.597 62.9339 355.398 63.1259 355.152 63.1259C354.905 63.1259 354.706 62.9339 354.706 62.697C354.706 62.4601 354.905 62.2681 355.152 62.2681C355.397 62.2681 355.597 62.4601 355.597 62.697Z" fill="#2290AC" fill-opacity="0.4"/>
<path d="M55.6648 212.083C55.6648 212.083 19.5665 168.625 37.2086 123.886C48.708 94.7238 91.8441 78.7444 116.188 94.7238C126.557 101.53 159.821 94.9534 177.582 66.7765C212.097 12.0222 332.553 45.2753 310.624 129.342C300.011 170.024 342.922 171.503 321.057 212.169L55.6648 212.083Z" fill="url(#paint0_linear_4606_2040)"/>
<path d="M155.775 211.771L155.849 211.77C156.453 211.759 156.92 211.265 156.863 210.698L152.832 170.465L149.314 170.779L155.102 211.228C155.148 211.544 155.437 211.778 155.775 211.771Z" fill="#2290AC"/>
<path d="M116.961 211.771L116.887 211.77C116.283 211.759 115.816 211.265 115.873 210.698L119.904 170.465L123.422 170.779L117.634 211.228C117.588 211.544 117.299 211.778 116.961 211.771Z" fill="#2290AC"/>
<path d="M184.212 211.771L184.286 211.77C184.89 211.759 185.357 211.265 185.3 210.698L181.269 170.465L177.752 170.779L183.54 211.228C183.585 211.544 183.874 211.778 184.212 211.771Z" fill="#2290AC"/>
<path d="M118.162 164.613L111.007 129.3C110.088 124.519 114.053 120.147 119.2 120.265L132.999 120.58C137.759 120.689 141.898 123.873 143.221 128.444L153.689 164.613H118.162Z" fill="#2290AC"/>
<path d="M122.49 164.613L115.335 129.3C114.417 124.519 118.381 120.147 123.528 120.265L137.327 120.58C142.088 120.689 146.227 123.873 147.55 128.444L158.018 164.613H122.49Z" fill="#2290AC"/>
<path d="M120.156 171.054H174.751C175.847 171.054 176.745 170.157 176.745 169.061V166.607C176.745 165.511 175.848 164.614 174.751 164.614H118.162V169.061C118.162 170.157 119.059 171.054 120.156 171.054Z" fill="#2290AC"/>
<path d="M145.775 171.054H180.578C181.462 171.054 182.185 170.332 182.185 169.449V166.219C182.185 165.336 181.462 164.614 180.578 164.614H145.775C144.892 164.614 144.169 165.336 144.169 166.219V169.449C144.169 170.332 144.892 171.054 145.775 171.054Z" fill="#2290AC"/>
<path d="M165.723 157.226C162.769 162.363 159.054 164.346 159.054 164.346H143.6C143.6 164.346 167.976 153.307 165.723 157.226Z" fill="#233862"/>
<path d="M184.784 208.267C184.617 209.887 186.872 210.306 189.488 210.464C192.103 210.622 191.307 211.15 194.886 211.837C198.466 212.525 199.914 211.559 200.178 211.078C200.414 210.651 198.754 209.961 196.985 209.182C196.762 209.085 196.54 208.985 196.317 208.885C194.326 207.984 193.223 206.18 191.682 204.501C190.222 202.911 188.873 197.856 188.873 197.856L184.011 196.763C184.011 196.763 185.33 201.314 185.785 203.256C186.052 204.398 185.626 205.667 185.25 206.633C185.047 207.158 184.842 207.696 184.784 208.267Z" fill="#FFB27D"/>
<path d="M189.488 210.464C192.103 210.622 191.307 211.149 194.886 211.837C198.466 212.524 199.913 211.559 200.178 211.077C200.414 210.65 198.754 209.96 196.985 209.182L196.957 209.212C196.957 209.212 194.426 210.04 191.524 209.218C189.158 208.549 186.879 207.108 185.25 206.632C185.047 207.158 184.842 207.695 184.784 208.266C184.617 209.887 186.872 210.305 189.488 210.464Z" fill="#262524"/>
<path d="M177.416 151.965C174.8 150.129 157.492 146.855 148.659 145.909L138.897 137.439C138.897 137.439 130.587 149.74 130.521 159.15C130.49 163.538 132.512 163.973 132.513 163.974C132.513 163.974 163.809 164.206 165.181 164.348C167.426 164.579 170.388 170.17 171.129 175.262C171.869 180.354 184.919 201.064 184.919 201.064C184.919 201.064 187.641 201.935 188.899 201.862C190.253 201.782 190.88 201.329 190.88 201.329C190.88 201.329 183.317 156.106 177.416 151.965Z" fill="#233862"/>
<path d="M176.689 208.267C176.522 209.887 178.777 210.306 181.393 210.464C184.008 210.622 183.212 211.15 186.791 211.837C190.371 212.525 191.818 211.559 192.083 211.078C192.319 210.651 190.659 209.961 188.89 209.182C188.667 209.085 188.444 208.985 188.221 208.885C186.231 207.984 185.128 206.18 183.586 204.501C182.126 202.911 180.778 197.856 180.778 197.856L175.916 196.763C175.916 196.763 177.235 201.314 177.69 203.256C177.957 204.398 177.531 205.667 177.155 206.633C176.952 207.158 176.747 207.696 176.689 208.267Z" fill="#FFB27D"/>
<path d="M181.393 210.464C184.009 210.622 183.212 211.149 186.791 211.837C190.371 212.524 191.819 211.559 192.083 211.077C192.319 210.65 190.659 209.96 188.89 209.182L188.862 209.212C188.862 209.212 186.331 210.04 183.429 209.218C181.063 208.549 178.784 207.108 177.155 206.632C176.952 207.158 176.747 207.695 176.689 208.266C176.522 209.887 178.777 210.305 181.393 210.464Z" fill="#233862"/>
<path d="M169.25 151.965C166.977 150.37 160.14 149.133 152.593 148.215C150.507 147.961 148.793 146.445 148.284 144.407L130.73 137.439C130.73 137.439 122.42 149.74 122.354 159.15C122.324 163.538 124.346 163.973 124.346 163.974C124.346 163.974 155.642 164.206 157.014 164.348C159.26 164.579 162.222 170.17 162.962 175.262C163.702 180.354 176.753 201.064 176.753 201.064C176.753 201.064 179.474 201.935 180.733 201.862C182.086 201.782 182.713 201.329 182.713 201.329C182.713 201.329 175.151 156.106 169.25 151.965Z" fill="#2B478B"/>
<path d="M145.761 86.3316C143.348 85.0656 139.678 84.8944 139.082 84.8143C131.946 83.8559 127.652 94.2182 127.399 97.3581C126.934 103.146 123.87 104.028 119.558 107.652C110.912 114.92 113.447 123.365 118.175 126.503C121.012 128.385 126.012 126.502 126.012 126.502C126.082 126.552 139.685 118.903 146.391 115.213C156.443 113.785 151.908 89.5575 145.761 86.3316Z" fill="#233862"/>
<path d="M144.272 111.648C144.304 111.664 141.102 113.12 138.791 112.356C136.616 111.64 134.701 108.369 134.732 108.364C135.676 108.227 136.635 107.297 136.903 101.783L137.321 101.888L144.347 103.663C144.347 103.663 144.069 105.888 143.955 107.991C143.858 109.758 143.878 111.438 144.272 111.648Z" fill="#FFB27D"/>
<path d="M144.347 103.663C144.347 103.663 144.347 104.121 144.085 106.191C140.111 105.189 138.358 103.872 137.123 102.365L144.347 103.663Z" fill="#ED975D"/>
<path d="M145.847 103.943C145.847 103.943 136.554 105.455 135.701 99.6577C134.848 93.8601 133.075 90.1507 138.971 88.9402C144.868 87.7297 146.349 89.7721 147.104 91.6382C147.86 93.5041 148.242 103.401 145.847 103.943Z" fill="#FFB27D"/>
<path d="M145.855 88.6974C145.855 88.6974 141.636 95.3544 137.869 96.931C134.102 98.5076 132.251 97.7071 132.251 97.7071C132.251 97.7071 133.965 95.1102 134.411 91.6233C134.543 90.5955 135.213 89.7143 136.175 89.329C138.879 88.247 144.108 86.5408 145.855 88.6974Z" fill="#233862"/>
<path d="M142.149 89.341C142.149 89.341 144.622 90.6083 145.641 91.7959C146.624 92.9421 147.759 96.052 147.678 97.4486C147.678 97.4486 148.898 90.7555 146.357 88.4547C143.662 86.015 142.149 89.341 142.149 89.341Z" fill="#233862"/>
<path d="M151.706 125.812C151.424 144.688 151.629 140.744 149.563 142.535C149.065 142.966 147.665 143.223 145.823 143.345C140.032 143.729 129.851 142.775 129.464 141.706C128.128 138.005 129.071 136.855 127.956 131.188C127.84 130.586 127.697 129.933 127.528 129.223C126.599 125.331 125.694 124.007 128.991 117.755C131.981 112.091 135.497 107.49 135.776 107.656C143.664 112.335 143.934 108.413 143.934 108.413C143.934 108.413 151.845 116.605 151.706 125.812Z" fill="white"/>
<path d="M143.934 108.413C143.934 108.413 152.007 109.78 152.96 113.273C153.913 116.765 159.522 137.297 159.522 137.297C159.522 137.297 155.396 138.038 153.49 136.133C151.583 134.228 146.857 118.459 146.857 118.459L143.934 108.413Z" fill="white"/>
<path d="M145.824 143.344C140.032 143.729 129.851 142.775 129.464 141.705C128.128 138.004 129.071 136.854 127.957 131.188L130.75 123.327C130.75 123.327 130.288 132.081 132.871 134.383C135.452 136.686 143.448 138.828 144.703 140.752C145.309 141.675 145.707 142.601 145.824 143.344Z" fill="#EBF3FF"/>
<path d="M139.188 139.663C139.188 139.663 144.902 138.391 145.824 138.898C146.746 139.405 148.999 141.251 149.281 141.893C149.563 142.535 147.228 141.405 146.469 141.202C145.977 141.07 144.683 141.519 144.042 141.733C141.345 142.631 139.693 142.169 139.693 142.169L139.188 139.663Z" fill="#FFB27D"/>
<path d="M135.776 107.656C135.776 107.656 127.69 108.128 125.034 111.83C121.295 117.041 113.879 139.251 118.129 142.213C122.916 145.549 139.914 143.085 139.914 143.085C139.914 143.085 140.48 140.443 139.693 139.165C138.906 137.886 126.116 135.822 125.525 135.232C124.935 134.642 132.904 123.728 132.904 121.958C132.904 120.188 135.776 107.656 135.776 107.656Z" fill="white"/>
<path d="M146.1 140.487C146.1 140.487 147.297 142.031 147.69 142.215C148.082 142.399 148.336 142.353 148.336 142.353L147.529 140.902L146.1 140.487Z" fill="#FFB27D"/>
<path d="M145.823 138.898L149.304 140.587C149.304 140.587 149.156 140.829 148.727 140.81C148.299 140.79 147.218 140.395 147.218 140.395L145.823 138.898Z" fill="#FFB27D"/>
<path d="M158.645 142.901H142.479C142.479 142.189 143.056 141.613 143.768 141.613H158.645V142.901Z" fill="#1A1C1E" fill-opacity="0.6"/>
<path d="M158.6 125.305H183.593L177.598 142.901H152.442L158.6 125.305Z" fill="#68C184"/>
<path d="M183.961 125.305L177.966 142.901H152.81L158.967 125.305H183.961Z" fill="#1A1C1E" fill-opacity="0.6"/>
<path d="M170.486 133.94C170.331 134.613 169.659 135.158 168.987 135.158C168.314 135.158 167.895 134.613 168.05 133.94C168.205 133.268 168.876 132.723 169.549 132.723C170.222 132.723 170.641 133.268 170.486 133.94Z" fill="white"/>
<path d="M136.892 146.86H246.422C246.883 146.86 247.256 146.486 247.256 146.026V143.734C247.256 143.274 246.883 142.901 246.422 142.901H136.892C136.432 142.901 136.058 143.274 136.058 143.734V146.026C136.058 146.486 136.432 146.86 136.892 146.86Z" fill="#182D4F"/>
<path d="M249.104 212.069L249.151 212.063C249.712 211.994 250.109 211.493 250.038 210.945L240.278 144.916L236.705 145.018L248.188 211.405C248.262 211.83 248.666 212.123 249.104 212.069Z" fill="#182D4F"/>
<path d="M133.224 212.069L133.177 212.063C132.616 211.994 132.219 211.493 132.289 210.945L142.05 144.916L145.623 145.018L134.139 211.405C134.066 211.83 133.662 212.123 133.224 212.069Z" fill="#182D4F"/>
<path d="M155.82 212.069L155.773 212.063C155.212 211.994 154.815 211.493 154.886 210.945L164.646 144.916L168.219 145.018L156.735 211.405C156.662 211.83 156.258 212.123 155.82 212.069Z" fill="#182D4F"/>
<path d="M336.114 212.611H32.7668C32.5387 212.611 32.3521 212.425 32.3521 212.196V211.858C32.3521 211.63 32.5387 211.443 32.7668 211.443H336.114C336.342 211.443 336.528 211.63 336.528 211.858V212.196C336.528 212.425 336.342 212.611 336.114 212.611Z" fill="#2E3552"/>
<path d="M213.403 212.015H232.772C233.703 210.878 233.36 206.686 233.219 205.317C233.19 205.042 233.17 204.881 233.17 204.881C233.17 204.881 226.556 199.594 225.648 203.642C225.62 203.769 225.586 203.893 225.55 204.016C224.405 207.802 219.271 209.523 216.307 210.003C214.379 210.315 213.667 211.316 213.403 212.015Z" fill="#233862"/>
<path d="M266.253 149.118C265.554 149.118 233.076 155.212 227.704 161.858C225.02 165.178 224.621 203.521 224.621 203.521C224.621 203.521 227.941 207.635 235.112 205.246C235.112 205.246 240.369 179.013 239.981 171.056C239.874 168.855 262.172 170.737 266.253 169.682C270.334 168.626 280.306 159.753 278.108 155.431C275.911 151.108 266.253 149.118 266.253 149.118Z" fill="#233862"/>
<path d="M227.843 139.729C227.843 139.729 221.292 139.817 219.742 140.481C218.193 141.144 215.05 142.667 215.891 142.901C216.732 143.135 220.745 142.805 221.612 142.937C222.48 143.07 223.549 142.901 224.08 142.901C224.611 142.901 227.089 142.901 227.089 142.901L227.843 139.729Z" fill="#FFB27D"/>
<path d="M220.183 124.015C220.183 124.015 217.95 122.42 215.781 122.111C214.544 121.934 213.341 121.714 212.614 121.458C210.613 120.753 206.608 117.155 206.911 116.732C207.882 115.38 212.558 118.242 213.373 117.935C214.189 117.628 211.805 115.933 212.634 115.337C213.068 115.026 214.081 116.586 214.909 116.743C216.03 116.955 216.906 118.536 217.243 118.619C217.9 118.779 220.776 120.917 220.776 120.917L220.183 124.015Z" fill="#FFB27D"/>
<path d="M263.018 105.388C263.018 105.388 258.031 106.933 253.118 120.455C248.204 133.977 246.338 134.707 244.552 135.238C242.766 135.769 227.089 138.888 227.089 138.888V142.901H251.245C251.245 142.901 260.302 134.29 263.018 128.493C265.733 122.696 263.018 105.388 263.018 105.388Z" fill="#CED3D6"/>
<path d="M204.843 212.015H224.212C225.143 210.878 224.8 206.686 224.659 205.317C224.63 205.042 224.61 204.881 224.61 204.881C224.61 204.881 217.996 199.594 217.087 203.642C217.06 203.769 217.026 203.893 216.989 204.016C215.845 207.802 210.711 209.523 207.746 210.003C205.819 210.315 205.107 211.316 204.843 212.015Z" fill="#262524"/>
<path d="M256.682 149.118C255.983 149.118 223.505 155.212 218.133 161.858C215.449 165.178 215.05 203.521 215.05 203.521C215.05 203.521 218.371 207.635 225.541 205.246C225.541 205.246 230.799 179.013 230.41 171.056C230.303 168.855 252.601 170.737 256.682 169.682C260.763 168.626 270.735 159.753 268.538 155.431C266.34 151.108 256.682 149.118 256.682 149.118Z" fill="#2B478B"/>
<path d="M258.715 109.673C261.051 109.481 263.501 108.858 265.618 108.172C268.264 107.313 270.398 106.059 269.023 103.642C267.756 101.413 265.706 96.4362 265.844 92.313L260.919 96.2794L257.574 98.9733C257.574 98.9733 257.588 100.561 257.954 103.345C258.02 103.852 258.099 104.4 258.191 104.985C258.265 105.458 258.048 105.93 257.641 106.183C257.616 106.198 257.59 106.214 257.565 106.23C255.903 107.274 256.758 109.835 258.715 109.673Z" fill="#FFB27D"/>
<path d="M257.574 98.318C257.574 98.318 257.403 98.8947 257.697 101.024C260.679 100.538 263.467 98.1605 263.467 98.1605C261.949 97.7439 261.397 96.1042 260.266 96.2571L257.574 98.318Z" fill="#ED975D"/>
<path d="M254.815 98.8031C254.815 98.8031 266.288 100.708 267.365 93.5498C268.441 86.3915 270.647 81.8165 263.368 80.2977C256.089 78.7789 254.252 81.2961 253.311 83.598C252.37 85.8998 251.859 98.1232 254.815 98.8031Z" fill="#FFB27D"/>
<path d="M251.623 80.4306C251.131 82.1543 252.449 84.2539 254.662 84.945C257.948 85.971 257.222 89.9983 258.7 89.9436C260.178 89.8889 260.775 87.6287 262.095 89.4346C263.221 90.9748 261.158 92.801 261.3 93.6456C261.543 95.0958 263.816 98.0626 265.865 97.9139C267.913 97.765 271.746 88.0367 270.979 85.0271C270.212 82.0174 267.146 78.8436 264.244 78.4058C261.342 77.9681 257.312 79.2203 256.381 79.2203C255.451 79.2203 251.89 79.4995 251.623 80.4306Z" fill="#2B478B"/>
<path d="M278.261 115.323C276.603 108.653 272.02 101.655 268.921 101.661C263.641 101.671 256.05 103.063 252.986 110.619C250.728 116.184 247.717 148.195 251.12 150.472C258.899 155.677 276.929 166.3 280.132 155.466C283.067 145.539 281.139 126.899 278.261 115.323Z" fill="#CED3D6"/>
<path d="M265.436 108.686C263.93 104.77 259.071 103.416 255.758 105.992C253.966 107.386 251.771 109.37 249.121 112.191C239.267 122.678 237.264 122.613 235.413 122.396C233.563 122.18 217.926 118.863 217.926 118.863C217.926 118.863 217.126 119.453 216.654 120.408C216.025 121.682 216.342 122.551 216.342 122.551C215.729 122.155 221.884 126.395 224.948 128.086C228.994 130.319 235.091 132.412 237.519 133.207C238.207 133.432 238.949 133.421 239.631 133.175C243.235 131.877 255.338 127.146 265.191 118.937C267.787 116.774 266.833 112.317 265.436 108.686Z" fill="#CED3D6"/>
<path d="M269.453 101.725L268.257 99.0332C268.257 99.0332 257.556 99.9053 255.758 105.992C255.758 105.992 264.053 101.855 269.453 101.725Z" fill="white"/>
<path d="M295.433 211.773L295.506 211.771C296.111 211.76 296.577 211.267 296.52 210.699L292.49 170.467L288.972 170.78L294.76 211.229C294.806 211.545 295.095 211.779 295.433 211.773Z" fill="#2290AC"/>
<path d="M274.685 211.773L274.759 211.771C275.363 211.76 275.83 211.267 275.773 210.699L271.742 170.467L268.225 170.78L274.013 211.229C274.058 211.545 274.347 211.779 274.685 211.773Z" fill="#2290AC"/>
<path d="M235.735 211.773L235.661 211.771C235.057 211.76 234.59 211.267 234.647 210.699L238.678 170.467L242.195 170.78L236.407 211.229C236.362 211.545 236.072 211.779 235.735 211.773Z" fill="#2290AC"/>
<path d="M294.293 164.768L298.119 131.166C298.621 126.323 296.999 121.582 290.007 121.215L277.707 120.466C270.416 120.165 267.124 126.229 266.201 130.898L258.899 167.835L294.293 164.768Z" fill="#2290AC"/>
<path d="M292.238 171.056H237.643C236.546 171.056 235.649 170.159 235.649 169.063V166.608C235.649 165.512 236.546 164.615 237.643 164.615H294.232V169.063C294.232 170.159 293.335 171.056 292.238 171.056Z" fill="#2290AC"/>
<path d="M292.684 171.055H260.448C259.596 171.055 258.899 170.359 258.899 169.507V166.163C258.899 165.311 259.596 164.615 260.448 164.615H294.232V169.507C294.232 170.359 293.536 171.055 292.684 171.055Z" fill="#2290AC"/>
<g opacity="0.3">
<path d="M53.4459 157.997C53.4237 158.043 52.6982 157.622 51.2743 157.172C49.8619 156.734 47.6825 156.311 45.0459 156.709C43.7383 156.919 42.322 157.314 40.9381 158.029C39.5451 158.727 38.2176 159.762 36.8994 160.933C35.5748 162.101 34.2604 163.427 32.7438 164.654C31.2271 165.86 29.487 167.002 27.4398 167.523C26.4237 167.784 25.3598 167.852 24.3428 167.71C23.3238 167.571 22.3613 167.238 21.4731 166.824C19.6944 165.986 18.1729 164.885 16.6664 163.967C15.1705 163.03 13.6663 162.288 12.1454 161.941C10.6335 161.573 9.16562 161.499 7.84494 161.611C5.18718 161.844 3.17624 162.784 1.90866 163.543C0.634801 164.322 0.0343168 164.907 4.48043e-05 164.866C-0.0105747 164.854 0.137618 164.709 0.431102 164.442C0.719758 164.17 1.18074 163.804 1.81308 163.391C3.06859 162.575 5.09643 161.567 7.81405 161.287C9.16417 161.151 10.6731 161.207 12.2346 161.569C13.8054 161.909 15.3751 162.67 16.8879 163.604C18.4147 164.522 19.9362 165.608 21.6628 166.413C23.3716 167.236 25.3816 167.602 27.3264 167.076C29.2712 166.582 30.9689 165.481 32.4604 164.301C33.9529 163.102 35.2736 161.784 36.6175 160.614C37.9565 159.441 39.3216 158.392 40.7648 157.688C42.197 156.967 43.6567 156.58 44.9982 156.387C47.7032 156.021 49.915 156.505 51.3293 157.001C52.0437 157.248 52.5752 157.501 52.9246 157.687C53.2746 157.877 53.4532 157.983 53.4459 157.997Z" fill="#2290AC"/>
<path d="M16.0464 168.346H10.3047V183.867H16.0464V168.346Z" fill="#2290AC"/>
<path d="M40.4102 168.346H34.6685V183.867H40.4102V168.346Z" fill="#2290AC"/>
<path d="M48.5318 159.232H42.79V183.869H48.5318V159.232Z" fill="#2290AC"/>
<path d="M8.61578 178.98H2.87402V184.204H8.61578V178.98Z" fill="#2290AC"/>
<path d="M24.1675 175.352H18.4258V183.865H24.1675V175.352Z" fill="#2290AC"/>
<path d="M32.2891 173.402H26.5474V183.868H32.2891V173.402Z" fill="#2290AC"/>
<path d="M16.2774 185.698C16.2774 185.826 14.8887 185.929 13.1756 185.929C11.462 185.929 10.0732 185.826 10.0732 185.698C10.0732 185.571 11.462 185.468 13.1756 185.468C14.8887 185.468 16.2774 185.571 16.2774 185.698Z" fill="#2290AC"/>
<path d="M9.1329 185.698C9.1329 185.826 7.74368 185.929 6.03105 185.929C4.31745 185.929 2.92871 185.826 2.92871 185.698C2.92871 185.571 4.31745 185.468 6.03105 185.468C7.74368 185.468 9.1329 185.571 9.1329 185.698Z" fill="#2290AC"/>
<path d="M49.6621 185.698C49.6621 185.826 48.0919 185.929 46.1558 185.929C44.2187 185.929 42.6489 185.826 42.6489 185.698C42.6489 185.571 44.2182 185.468 46.1558 185.468C48.0919 185.468 49.6621 185.571 49.6621 185.698Z" fill="#2290AC"/>
<path d="M37.6265 185.929C39.5632 185.929 41.1333 185.826 41.1333 185.698C41.1333 185.571 39.5632 185.468 37.6265 185.468C35.6897 185.468 34.1196 185.571 34.1196 185.698C34.1196 185.826 35.6897 185.929 37.6265 185.929Z" fill="#2290AC"/>
<path d="M32.2887 185.698C32.2887 185.826 30.8994 185.93 29.1868 185.93C27.4737 185.93 26.085 185.826 26.085 185.698C26.085 185.571 27.4737 185.468 29.1868 185.468C30.8994 185.468 32.2887 185.571 32.2887 185.698Z" fill="#2290AC"/>
<path d="M23.8975 185.698C23.8975 185.826 22.5083 185.93 20.7957 185.93C19.0826 185.93 17.6934 185.826 17.6934 185.698C17.6934 185.571 19.0821 185.468 20.7957 185.468C22.5083 185.468 23.8975 185.571 23.8975 185.698Z" fill="#2290AC"/>
</g>
<g opacity="0.6">
<path opacity="0.3" d="M103.541 46.1924H93.1543V87.6646H103.541V46.1924Z" fill="#2290AC"/>
<path opacity="0.3" d="M126.383 55.4312H115.997V87.8569H126.383V55.4312Z" fill="#2290AC"/>
<path opacity="0.3" d="M148.709 73.1382H138.323V87.9953H148.709V73.1382Z" fill="#2290AC"/>
</g>
<g opacity="0.6">
<path opacity="0.3" d="M238.321 20.564L256.633 20.816C256.493 30.5705 248.27 38.5201 238.321 38.5201C238.286 38.5201 238.249 38.5201 238.214 38.5194L238.321 20.564Z" fill="#2290AC"/>
<path opacity="0.3" d="M235.424 17.9561L235.168 35.9108C225.219 35.7737 217.111 27.7114 217.111 17.9561C217.111 8.10548 225.379 0 235.425 0C245.472 0 253.739 8.10548 253.739 17.9561H235.424Z" fill="#2290AC"/>
</g>
<defs>
<linearGradient id="paint0_linear_4606_2040" x1="32.3521" y1="39.98" x2="182.281" y2="296.848" gradientUnits="userSpaceOnUse">
<stop stop-color="#2290AC"/>
<stop offset="1" stop-color="#68C184"/>
</linearGradient>
</defs>
</svg>
